<mxfile host="app.diagrams.net" modified="2022-05-21T23:07:12.177Z" agent="5.0 (Windows)" etag="p9vF-5_Emcyrr6gzEyON" version="18.1.1" type="github" pages="5">
  <diagram id="prtHgNgQTEPvFCAcTncT" name="Booking">
    <mxGraphModel dx="1198" dy="606" grid="1" gridSize="10" guides="1" tooltips="1" connect="1" arrows="1" fold="1" page="1" pageScale="1" pageWidth="827" pageHeight="1169" math="0" shadow="0">
      <root>
        <mxCell id="0" />
        <mxCell id="1" parent="0" />
        <mxCell id="Y9b4Z3o9En6oE_J5yfvX-1" value="Search and Book a Coworking Space" style="swimlane;childLayout=stackLayout;resizeParent=1;resizeParentMax=0;startSize=30;swimlaneFillColor=none;gradientColor=none;rounded=1;fillColor=#283592;fontColor=#FFFFFF;strokeColor=#283592;fontSize=16;" parent="1" vertex="1">
          <mxGeometry x="10" y="25" width="806" height="1135" as="geometry" />
        </mxCell>
        <mxCell id="Y9b4Z3o9En6oE_J5yfvX-2" value="User" style="swimlane;startSize=20;rounded=1;strokeColor=#283592;fontColor=#283592;fontSize=14;" parent="Y9b4Z3o9En6oE_J5yfvX-1" vertex="1">
          <mxGeometry y="30" width="200" height="1105" as="geometry" />
        </mxCell>
        <mxCell id="SBwuihwLTVM8k1IBvn76-6" style="edgeStyle=orthogonalEdgeStyle;rounded=0;orthogonalLoop=1;jettySize=auto;html=1;exitX=0.5;exitY=1;exitDx=0;exitDy=0;entryX=0.5;entryY=0;entryDx=0;entryDy=0;fontColor=#283592;strokeColor=#283592;" parent="Y9b4Z3o9En6oE_J5yfvX-2" source="JYSIa6xG7unAo9f5RrJn-1" target="SBwuihwLTVM8k1IBvn76-2" edge="1">
          <mxGeometry relative="1" as="geometry" />
        </mxCell>
        <mxCell id="JYSIa6xG7unAo9f5RrJn-1" value="" style="ellipse;fillColor=#283592;strokeColor=none;fontSize=14;fontColor=#283592;aspect=fixed;" parent="Y9b4Z3o9En6oE_J5yfvX-2" vertex="1">
          <mxGeometry x="90" y="40" width="20" height="20" as="geometry" />
        </mxCell>
        <mxCell id="SBwuihwLTVM8k1IBvn76-4" value="" style="edgeStyle=orthogonalEdgeStyle;rounded=0;orthogonalLoop=1;jettySize=auto;html=1;fontColor=#283592;strokeColor=#283592;" parent="Y9b4Z3o9En6oE_J5yfvX-2" source="SBwuihwLTVM8k1IBvn76-2" target="SBwuihwLTVM8k1IBvn76-3" edge="1">
          <mxGeometry relative="1" as="geometry" />
        </mxCell>
        <mxCell id="SBwuihwLTVM8k1IBvn76-2" value="Search for a Space" style="rounded=1;whiteSpace=wrap;html=1;strokeColor=#283592;fontColor=#283592;" parent="Y9b4Z3o9En6oE_J5yfvX-2" vertex="1">
          <mxGeometry x="40" y="90" width="120" height="40" as="geometry" />
        </mxCell>
        <mxCell id="SBwuihwLTVM8k1IBvn76-3" value="Query" style="rounded=0;whiteSpace=wrap;html=1;fontColor=#283592;strokeColor=#283592;" parent="Y9b4Z3o9En6oE_J5yfvX-2" vertex="1">
          <mxGeometry x="40" y="150" width="120" height="40" as="geometry" />
        </mxCell>
        <mxCell id="SBwuihwLTVM8k1IBvn76-14" style="edgeStyle=orthogonalEdgeStyle;rounded=0;orthogonalLoop=1;jettySize=auto;html=1;exitX=0.5;exitY=1;exitDx=0;exitDy=0;entryX=0.5;entryY=0;entryDx=0;entryDy=0;fontColor=#283592;strokeColor=#283592;" parent="Y9b4Z3o9En6oE_J5yfvX-2" source="SBwuihwLTVM8k1IBvn76-11" target="SBwuihwLTVM8k1IBvn76-13" edge="1">
          <mxGeometry relative="1" as="geometry" />
        </mxCell>
        <mxCell id="SBwuihwLTVM8k1IBvn76-18" style="edgeStyle=orthogonalEdgeStyle;rounded=0;orthogonalLoop=1;jettySize=auto;html=1;exitX=1;exitY=0.5;exitDx=0;exitDy=0;entryX=0.5;entryY=0;entryDx=0;entryDy=0;fontColor=#283592;strokeColor=#283592;" parent="Y9b4Z3o9En6oE_J5yfvX-2" source="SBwuihwLTVM8k1IBvn76-11" target="SBwuihwLTVM8k1IBvn76-17" edge="1">
          <mxGeometry relative="1" as="geometry">
            <Array as="points">
              <mxPoint x="176" y="250" />
              <mxPoint x="176" y="350" />
              <mxPoint x="100" y="350" />
            </Array>
          </mxGeometry>
        </mxCell>
        <mxCell id="SBwuihwLTVM8k1IBvn76-11" value="Relevant ?" style="rhombus;whiteSpace=wrap;html=1;fontColor=#283592;strokeColor=#283592;" parent="Y9b4Z3o9En6oE_J5yfvX-2" vertex="1">
          <mxGeometry x="60" y="235" width="80" height="30" as="geometry" />
        </mxCell>
        <mxCell id="SBwuihwLTVM8k1IBvn76-16" style="edgeStyle=orthogonalEdgeStyle;rounded=0;orthogonalLoop=1;jettySize=auto;html=1;exitX=0;exitY=0.5;exitDx=0;exitDy=0;entryX=0;entryY=0.5;entryDx=0;entryDy=0;fontColor=#283592;strokeColor=#283592;" parent="Y9b4Z3o9En6oE_J5yfvX-2" source="SBwuihwLTVM8k1IBvn76-13" target="SBwuihwLTVM8k1IBvn76-3" edge="1">
          <mxGeometry relative="1" as="geometry" />
        </mxCell>
        <mxCell id="SBwuihwLTVM8k1IBvn76-13" value="Applying filters" style="rounded=1;whiteSpace=wrap;html=1;strokeColor=#283592;fontColor=#283592;" parent="Y9b4Z3o9En6oE_J5yfvX-2" vertex="1">
          <mxGeometry x="40" y="290" width="120" height="40" as="geometry" />
        </mxCell>
        <mxCell id="SBwuihwLTVM8k1IBvn76-17" value="Select a result" style="rounded=1;whiteSpace=wrap;html=1;strokeColor=#283592;fontColor=#283592;" parent="Y9b4Z3o9En6oE_J5yfvX-2" vertex="1">
          <mxGeometry x="40" y="370" width="120" height="40" as="geometry" />
        </mxCell>
        <mxCell id="SBwuihwLTVM8k1IBvn76-25" style="edgeStyle=orthogonalEdgeStyle;rounded=0;orthogonalLoop=1;jettySize=auto;html=1;exitX=0.5;exitY=1;exitDx=0;exitDy=0;entryX=0.5;entryY=0;entryDx=0;entryDy=0;fontColor=#283592;strokeColor=#283592;" parent="Y9b4Z3o9En6oE_J5yfvX-2" source="SBwuihwLTVM8k1IBvn76-21" target="SBwuihwLTVM8k1IBvn76-24" edge="1">
          <mxGeometry relative="1" as="geometry" />
        </mxCell>
        <mxCell id="SBwuihwLTVM8k1IBvn76-21" value="Observe information about space" style="rounded=1;whiteSpace=wrap;html=1;strokeColor=#283592;fontColor=#283592;" parent="Y9b4Z3o9En6oE_J5yfvX-2" vertex="1">
          <mxGeometry x="40" y="450" width="120" height="40" as="geometry" />
        </mxCell>
        <mxCell id="SBwuihwLTVM8k1IBvn76-26" style="edgeStyle=orthogonalEdgeStyle;rounded=0;orthogonalLoop=1;jettySize=auto;html=1;exitX=0;exitY=0.5;exitDx=0;exitDy=0;entryX=0;entryY=0.5;entryDx=0;entryDy=0;fontColor=#283592;strokeColor=#283592;" parent="Y9b4Z3o9En6oE_J5yfvX-2" source="SBwuihwLTVM8k1IBvn76-24" target="SBwuihwLTVM8k1IBvn76-17" edge="1">
          <mxGeometry relative="1" as="geometry" />
        </mxCell>
        <mxCell id="SBwuihwLTVM8k1IBvn76-32" style="edgeStyle=orthogonalEdgeStyle;rounded=0;orthogonalLoop=1;jettySize=auto;html=1;exitX=0.5;exitY=1;exitDx=0;exitDy=0;entryX=0.5;entryY=0;entryDx=0;entryDy=0;fontColor=#283592;strokeColor=#283592;" parent="Y9b4Z3o9En6oE_J5yfvX-2" source="SBwuihwLTVM8k1IBvn76-24" target="SBwuihwLTVM8k1IBvn76-31" edge="1">
          <mxGeometry relative="1" as="geometry" />
        </mxCell>
        <mxCell id="SBwuihwLTVM8k1IBvn76-24" value="Satisfactory ?" style="rhombus;whiteSpace=wrap;html=1;fontColor=#283592;strokeColor=#283592;aspect=fixed;" parent="Y9b4Z3o9En6oE_J5yfvX-2" vertex="1">
          <mxGeometry x="60" y="530" width="80" height="40" as="geometry" />
        </mxCell>
        <mxCell id="SBwuihwLTVM8k1IBvn76-27" value="Yes" style="text;html=1;strokeColor=none;fillColor=none;align=center;verticalAlign=middle;whiteSpace=wrap;rounded=0;fontColor=#283592;" parent="Y9b4Z3o9En6oE_J5yfvX-2" vertex="1">
          <mxGeometry x="136" y="230" width="24" height="20" as="geometry" />
        </mxCell>
        <mxCell id="SBwuihwLTVM8k1IBvn76-28" value="No" style="text;html=1;strokeColor=none;fillColor=none;align=center;verticalAlign=middle;whiteSpace=wrap;rounded=0;fontColor=#283592;" parent="Y9b4Z3o9En6oE_J5yfvX-2" vertex="1">
          <mxGeometry x="76" y="265" width="24" height="20" as="geometry" />
        </mxCell>
        <mxCell id="SBwuihwLTVM8k1IBvn76-29" value="No" style="text;html=1;strokeColor=none;fillColor=none;align=center;verticalAlign=middle;whiteSpace=wrap;rounded=0;fontColor=#283592;" parent="Y9b4Z3o9En6oE_J5yfvX-2" vertex="1">
          <mxGeometry x="40" y="530" width="24" height="20" as="geometry" />
        </mxCell>
        <mxCell id="SBwuihwLTVM8k1IBvn76-30" value="Yes" style="text;html=1;strokeColor=none;fillColor=none;align=center;verticalAlign=middle;whiteSpace=wrap;rounded=0;fontColor=#283592;" parent="Y9b4Z3o9En6oE_J5yfvX-2" vertex="1">
          <mxGeometry x="100" y="570" width="24" height="20" as="geometry" />
        </mxCell>
        <mxCell id="SBwuihwLTVM8k1IBvn76-34" style="edgeStyle=orthogonalEdgeStyle;rounded=0;orthogonalLoop=1;jettySize=auto;html=1;exitX=0.5;exitY=1;exitDx=0;exitDy=0;entryX=0.5;entryY=0;entryDx=0;entryDy=0;fontColor=#283592;strokeColor=#283592;" parent="Y9b4Z3o9En6oE_J5yfvX-2" source="SBwuihwLTVM8k1IBvn76-31" target="SBwuihwLTVM8k1IBvn76-33" edge="1">
          <mxGeometry relative="1" as="geometry" />
        </mxCell>
        <mxCell id="SBwuihwLTVM8k1IBvn76-31" value="Select booking specifications" style="rounded=1;whiteSpace=wrap;html=1;strokeColor=#283592;fontColor=#283592;" parent="Y9b4Z3o9En6oE_J5yfvX-2" vertex="1">
          <mxGeometry x="40" y="610" width="120" height="40" as="geometry" />
        </mxCell>
        <mxCell id="SBwuihwLTVM8k1IBvn76-33" value="Proceed to checkout" style="rounded=1;whiteSpace=wrap;html=1;strokeColor=#283592;fontColor=#283592;" parent="Y9b4Z3o9En6oE_J5yfvX-2" vertex="1">
          <mxGeometry x="40" y="690" width="120" height="40" as="geometry" />
        </mxCell>
        <mxCell id="SBwuihwLTVM8k1IBvn76-42" style="edgeStyle=orthogonalEdgeStyle;rounded=0;orthogonalLoop=1;jettySize=auto;html=1;exitX=0.5;exitY=1;exitDx=0;exitDy=0;entryX=0.5;entryY=0;entryDx=0;entryDy=0;fontColor=#283592;strokeColor=#283592;" parent="Y9b4Z3o9En6oE_J5yfvX-2" source="SBwuihwLTVM8k1IBvn76-39" target="SBwuihwLTVM8k1IBvn76-41" edge="1">
          <mxGeometry relative="1" as="geometry" />
        </mxCell>
        <mxCell id="SBwuihwLTVM8k1IBvn76-39" value="Accept ?" style="rhombus;whiteSpace=wrap;html=1;fontColor=#283592;strokeColor=#283592;aspect=fixed;" parent="Y9b4Z3o9En6oE_J5yfvX-2" vertex="1">
          <mxGeometry x="60" y="770" width="80" height="40" as="geometry" />
        </mxCell>
        <mxCell id="SBwuihwLTVM8k1IBvn76-41" value="Pays" style="rounded=1;whiteSpace=wrap;html=1;strokeColor=#283592;fontColor=#283592;" parent="Y9b4Z3o9En6oE_J5yfvX-2" vertex="1">
          <mxGeometry x="40" y="850" width="120" height="40" as="geometry" />
        </mxCell>
        <mxCell id="SBwuihwLTVM8k1IBvn76-43" value="Yes" style="text;html=1;strokeColor=none;fillColor=none;align=center;verticalAlign=middle;whiteSpace=wrap;rounded=0;fontColor=#283592;" parent="Y9b4Z3o9En6oE_J5yfvX-2" vertex="1">
          <mxGeometry x="100" y="810" width="24" height="20" as="geometry" />
        </mxCell>
        <mxCell id="SBwuihwLTVM8k1IBvn76-44" value="No" style="text;html=1;strokeColor=none;fillColor=none;align=center;verticalAlign=middle;whiteSpace=wrap;rounded=0;fontColor=#283592;" parent="Y9b4Z3o9En6oE_J5yfvX-2" vertex="1">
          <mxGeometry x="40" y="770" width="24" height="20" as="geometry" />
        </mxCell>
        <mxCell id="SBwuihwLTVM8k1IBvn76-80" value="Confirmation" style="html=1;shape=mxgraph.infographic.ribbonSimple;notch1=20;notch2=0;align=center;verticalAlign=middle;fontSize=14;fontStyle=0;flipH=1;fillColor=#FFFFFF;fontColor=#283592;strokeColor=#283592;" parent="Y9b4Z3o9En6oE_J5yfvX-2" vertex="1">
          <mxGeometry x="40" y="910" width="120" height="40" as="geometry" />
        </mxCell>
        <mxCell id="Y9b4Z3o9En6oE_J5yfvX-3" value="CoworkClub" style="swimlane;startSize=20;rounded=1;fontColor=#E01B84;strokeColor=#283592;fontSize=14;" parent="Y9b4Z3o9En6oE_J5yfvX-1" vertex="1">
          <mxGeometry x="200" y="30" width="206" height="1105" as="geometry" />
        </mxCell>
        <mxCell id="SBwuihwLTVM8k1IBvn76-8" value="Retrieve matching results" style="rounded=1;whiteSpace=wrap;html=1;strokeColor=#E01B84;fontColor=#283592;" parent="Y9b4Z3o9En6oE_J5yfvX-3" vertex="1">
          <mxGeometry x="46" y="90" width="120" height="40" as="geometry" />
        </mxCell>
        <mxCell id="SBwuihwLTVM8k1IBvn76-19" value="Retrieve information about space" style="rounded=1;whiteSpace=wrap;html=1;strokeColor=#E01B84;fontColor=#283592;" parent="Y9b4Z3o9En6oE_J5yfvX-3" vertex="1">
          <mxGeometry x="46" y="250" width="120" height="40" as="geometry" />
        </mxCell>
        <mxCell id="SBwuihwLTVM8k1IBvn76-38" style="edgeStyle=orthogonalEdgeStyle;rounded=0;orthogonalLoop=1;jettySize=auto;html=1;exitX=0.5;exitY=1;exitDx=0;exitDy=0;entryX=0.5;entryY=0;entryDx=0;entryDy=0;fontColor=#283592;strokeColor=#E01B84;" parent="Y9b4Z3o9En6oE_J5yfvX-3" source="SBwuihwLTVM8k1IBvn76-35" target="SBwuihwLTVM8k1IBvn76-37" edge="1">
          <mxGeometry relative="1" as="geometry" />
        </mxCell>
        <mxCell id="SBwuihwLTVM8k1IBvn76-35" value="Reserves selected date, time and space" style="rounded=1;whiteSpace=wrap;html=1;strokeColor=#E01B84;fontColor=#283592;" parent="Y9b4Z3o9En6oE_J5yfvX-3" vertex="1">
          <mxGeometry x="46" y="325" width="120" height="40" as="geometry" />
        </mxCell>
        <mxCell id="SBwuihwLTVM8k1IBvn76-37" value="Retrieve payment information" style="rounded=1;whiteSpace=wrap;html=1;strokeColor=#E01B84;fontColor=#283592;" parent="Y9b4Z3o9En6oE_J5yfvX-3" vertex="1">
          <mxGeometry x="45" y="405" width="120" height="40" as="geometry" />
        </mxCell>
        <mxCell id="SBwuihwLTVM8k1IBvn76-60" style="edgeStyle=orthogonalEdgeStyle;rounded=0;orthogonalLoop=1;jettySize=auto;html=1;exitX=0;exitY=0;exitDx=60;exitDy=40;exitPerimeter=0;entryX=0.5;entryY=0;entryDx=0;entryDy=0;fontSize=14;fontColor=#283592;strokeColor=#E01B84;" parent="Y9b4Z3o9En6oE_J5yfvX-3" source="SBwuihwLTVM8k1IBvn76-57" target="SBwuihwLTVM8k1IBvn76-59" edge="1">
          <mxGeometry relative="1" as="geometry" />
        </mxCell>
        <mxCell id="SBwuihwLTVM8k1IBvn76-57" value="Confirmation" style="html=1;shape=mxgraph.infographic.ribbonSimple;notch1=20;notch2=0;align=center;verticalAlign=middle;fontSize=14;fontStyle=0;flipH=1;fillColor=#FFFFFF;fontColor=#283592;strokeColor=#E01B84;" parent="Y9b4Z3o9En6oE_J5yfvX-3" vertex="1">
          <mxGeometry x="46" y="630" width="120" height="40" as="geometry" />
        </mxCell>
        <mxCell id="SBwuihwLTVM8k1IBvn76-59" value="Informs of booking info" style="rounded=1;whiteSpace=wrap;html=1;strokeColor=#E01B84;fontColor=#283592;" parent="Y9b4Z3o9En6oE_J5yfvX-3" vertex="1">
          <mxGeometry x="46" y="710" width="120" height="40" as="geometry" />
        </mxCell>
        <mxCell id="SBwuihwLTVM8k1IBvn76-68" style="edgeStyle=orthogonalEdgeStyle;rounded=0;orthogonalLoop=1;jettySize=auto;html=1;exitX=0;exitY=0;exitDx=60;exitDy=40;exitPerimeter=0;entryX=0.017;entryY=0.499;entryDx=0;entryDy=0;entryPerimeter=0;fontSize=14;fontColor=#283592;strokeColor=#E01B84;" parent="Y9b4Z3o9En6oE_J5yfvX-3" source="SBwuihwLTVM8k1IBvn76-65" target="SBwuihwLTVM8k1IBvn76-67" edge="1">
          <mxGeometry relative="1" as="geometry" />
        </mxCell>
        <mxCell id="SBwuihwLTVM8k1IBvn76-65" value="Confirmation" style="html=1;shape=mxgraph.infographic.ribbonSimple;notch1=20;notch2=0;align=center;verticalAlign=middle;fontSize=14;fontStyle=0;flipH=1;fillColor=#FFFFFF;fontColor=#283592;strokeColor=#E01B84;" parent="Y9b4Z3o9En6oE_J5yfvX-3" vertex="1">
          <mxGeometry x="46" y="790" width="120" height="40" as="geometry" />
        </mxCell>
        <mxCell id="SBwuihwLTVM8k1IBvn76-67" value="" style="html=1;points=[];perimeter=orthogonalPerimeter;fillColor=#E01B84;strokeColor=none;fontSize=14;fontColor=#E01B84;rotation=90;" parent="Y9b4Z3o9En6oE_J5yfvX-3" vertex="1">
          <mxGeometry x="103.5" y="830" width="5" height="120" as="geometry" />
        </mxCell>
        <mxCell id="SBwuihwLTVM8k1IBvn76-69" value="Booked" style="html=1;shape=mxgraph.infographic.ribbonSimple;notch1=0;notch2=20;align=center;verticalAlign=middle;fontSize=14;fontStyle=0;fillColor=#FFFFFF;fontColor=#283592;strokeColor=#E01B84;" parent="Y9b4Z3o9En6oE_J5yfvX-3" vertex="1">
          <mxGeometry x="16" y="910" width="74" height="40" as="geometry" />
        </mxCell>
        <mxCell id="SBwuihwLTVM8k1IBvn76-70" value="" style="endArrow=classic;html=1;rounded=0;fontSize=14;fontColor=#E01B84;strokeColor=#E01B84;entryX=0;entryY=0;entryDx=40.5;entryDy=0;entryPerimeter=0;exitX=0.994;exitY=0.912;exitDx=0;exitDy=0;exitPerimeter=0;" parent="Y9b4Z3o9En6oE_J5yfvX-3" source="SBwuihwLTVM8k1IBvn76-67" target="SBwuihwLTVM8k1IBvn76-69" edge="1">
          <mxGeometry width="50" height="50" relative="1" as="geometry">
            <mxPoint x="86" y="950" as="sourcePoint" />
            <mxPoint x="136" y="900" as="targetPoint" />
          </mxGeometry>
        </mxCell>
        <mxCell id="SBwuihwLTVM8k1IBvn76-71" value="Pay service provider" style="rounded=1;whiteSpace=wrap;html=1;strokeColor=#E01B84;fontColor=#283592;" parent="Y9b4Z3o9En6oE_J5yfvX-3" vertex="1">
          <mxGeometry x="116" y="910" width="76" height="40" as="geometry" />
        </mxCell>
        <mxCell id="SBwuihwLTVM8k1IBvn76-73" value="" style="endArrow=classic;html=1;rounded=0;fontSize=14;fontColor=#E01B84;strokeColor=#E01B84;entryX=0.5;entryY=0;entryDx=0;entryDy=0;exitX=0.988;exitY=0.099;exitDx=0;exitDy=0;exitPerimeter=0;" parent="Y9b4Z3o9En6oE_J5yfvX-3" source="SBwuihwLTVM8k1IBvn76-67" target="SBwuihwLTVM8k1IBvn76-71" edge="1">
          <mxGeometry width="50" height="50" relative="1" as="geometry">
            <mxPoint x="105.93999999999994" y="950" as="sourcePoint" />
            <mxPoint x="105.88" y="967.53" as="targetPoint" />
          </mxGeometry>
        </mxCell>
        <mxCell id="SBwuihwLTVM8k1IBvn76-83" style="edgeStyle=orthogonalEdgeStyle;rounded=0;orthogonalLoop=1;jettySize=auto;html=1;exitX=0.5;exitY=1;exitDx=0;exitDy=0;entryX=-0.045;entryY=0.5;entryDx=0;entryDy=0;fontSize=14;fontColor=#E01B84;strokeColor=#E01B84;entryPerimeter=0;" parent="Y9b4Z3o9En6oE_J5yfvX-3" source="SBwuihwLTVM8k1IBvn76-74" target="UYK-7qxF8x5jv9WJo-W0-1" edge="1">
          <mxGeometry relative="1" as="geometry" />
        </mxCell>
        <mxCell id="SBwuihwLTVM8k1IBvn76-74" value="Update Space availability" style="rounded=1;whiteSpace=wrap;html=1;strokeColor=#E01B84;fontColor=#283592;" parent="Y9b4Z3o9En6oE_J5yfvX-3" vertex="1">
          <mxGeometry x="41" y="970" width="124" height="40" as="geometry" />
        </mxCell>
        <mxCell id="SBwuihwLTVM8k1IBvn76-75" value="" style="endArrow=classic;html=1;rounded=0;fontSize=14;fontColor=#E01B84;strokeColor=#E01B84;exitX=0.967;exitY=0.5;exitDx=0;exitDy=0;exitPerimeter=0;entryX=0.523;entryY=0.006;entryDx=0;entryDy=0;entryPerimeter=0;" parent="Y9b4Z3o9En6oE_J5yfvX-3" source="SBwuihwLTVM8k1IBvn76-67" target="SBwuihwLTVM8k1IBvn76-74" edge="1">
          <mxGeometry width="50" height="50" relative="1" as="geometry">
            <mxPoint x="106.05999999999995" y="899.9999999999998" as="sourcePoint" />
            <mxPoint x="106" y="950" as="targetPoint" />
          </mxGeometry>
        </mxCell>
        <mxCell id="SBwuihwLTVM8k1IBvn76-79" value="" style="ellipse;html=1;shape=endState;fillColor=#283592;strokeColor=#E01B84;fontSize=14;fontColor=#E01B84;" parent="Y9b4Z3o9En6oE_J5yfvX-3" vertex="1">
          <mxGeometry x="90" y="1060" width="30" height="30" as="geometry" />
        </mxCell>
        <mxCell id="UYK-7qxF8x5jv9WJo-W0-1" value="" style="html=1;points=[];perimeter=orthogonalPerimeter;fillColor=#E01B84;strokeColor=none;fontSize=14;fontColor=#E01B84;rotation=90;" parent="Y9b4Z3o9En6oE_J5yfvX-3" vertex="1">
          <mxGeometry x="100.5" y="979" width="5" height="120" as="geometry" />
        </mxCell>
        <mxCell id="UYK-7qxF8x5jv9WJo-W0-3" style="edgeStyle=orthogonalEdgeStyle;rounded=0;orthogonalLoop=1;jettySize=auto;html=1;exitX=1.213;exitY=0.474;exitDx=0;exitDy=0;entryX=0.5;entryY=0;entryDx=0;entryDy=0;fontSize=14;fontColor=#E01B84;strokeColor=#E01B84;exitPerimeter=0;" parent="Y9b4Z3o9En6oE_J5yfvX-3" source="UYK-7qxF8x5jv9WJo-W0-1" target="SBwuihwLTVM8k1IBvn76-79" edge="1">
          <mxGeometry relative="1" as="geometry">
            <mxPoint x="113.00000000000011" y="1020" as="sourcePoint" />
            <mxPoint x="112.99999999999989" y="1037.275" as="targetPoint" />
          </mxGeometry>
        </mxCell>
        <mxCell id="ucHowXHDUnCpZmRlBpM0-2" style="edgeStyle=orthogonalEdgeStyle;rounded=0;orthogonalLoop=1;jettySize=auto;html=1;exitX=0.5;exitY=1;exitDx=0;exitDy=0;entryX=0.5;entryY=0;entryDx=0;entryDy=0;strokeColor=#283592;" parent="Y9b4Z3o9En6oE_J5yfvX-3" source="ucHowXHDUnCpZmRlBpM0-1" target="SBwuihwLTVM8k1IBvn76-76" edge="1">
          <mxGeometry relative="1" as="geometry" />
        </mxCell>
        <mxCell id="ucHowXHDUnCpZmRlBpM0-1" value="Date, time and space made available" style="rounded=1;whiteSpace=wrap;html=1;strokeColor=#E01B84;fontColor=#283592;" parent="Y9b4Z3o9En6oE_J5yfvX-3" vertex="1">
          <mxGeometry x="46" y="505" width="120" height="40" as="geometry" />
        </mxCell>
        <mxCell id="SBwuihwLTVM8k1IBvn76-76" value="" style="shape=sumEllipse;perimeter=ellipsePerimeter;whiteSpace=wrap;html=1;backgroundOutline=1;fontSize=14;fontColor=#E01B84;strokeColor=#283592;fillColor=#FFFFFF;" parent="Y9b4Z3o9En6oE_J5yfvX-3" vertex="1">
          <mxGeometry x="91" y="565" width="30" height="30" as="geometry" />
        </mxCell>
        <mxCell id="SBwuihwLTVM8k1IBvn76-45" value="Payment Service Provider" style="swimlane;startSize=20;rounded=1;fontColor=#283592;strokeColor=#283592;fontSize=14;" parent="Y9b4Z3o9En6oE_J5yfvX-1" vertex="1">
          <mxGeometry x="406" y="30" width="200" height="1105" as="geometry" />
        </mxCell>
        <mxCell id="SBwuihwLTVM8k1IBvn76-52" style="edgeStyle=orthogonalEdgeStyle;rounded=0;orthogonalLoop=1;jettySize=auto;html=1;exitX=0.5;exitY=1;exitDx=0;exitDy=0;entryX=0.5;entryY=0;entryDx=0;entryDy=0;fontSize=14;fontColor=#283592;strokeColor=#283592;" parent="SBwuihwLTVM8k1IBvn76-45" source="SBwuihwLTVM8k1IBvn76-49" target="SBwuihwLTVM8k1IBvn76-51" edge="1">
          <mxGeometry relative="1" as="geometry" />
        </mxCell>
        <mxCell id="SBwuihwLTVM8k1IBvn76-49" value="Receives payment request" style="rounded=1;whiteSpace=wrap;html=1;strokeColor=#283592;fontColor=#283592;" parent="SBwuihwLTVM8k1IBvn76-45" vertex="1">
          <mxGeometry x="39" y="90" width="120" height="40" as="geometry" />
        </mxCell>
        <mxCell id="SBwuihwLTVM8k1IBvn76-50" value="Received" style="html=1;shape=mxgraph.infographic.ribbonSimple;notch1=0;notch2=20;align=center;verticalAlign=middle;fontSize=14;fontStyle=0;fillColor=#FFFFFF;fontColor=#283592;strokeColor=#283592;" parent="SBwuihwLTVM8k1IBvn76-45" vertex="1">
          <mxGeometry x="40" y="210" width="120" height="40" as="geometry" />
        </mxCell>
        <mxCell id="SBwuihwLTVM8k1IBvn76-53" style="edgeStyle=orthogonalEdgeStyle;rounded=0;orthogonalLoop=1;jettySize=auto;html=1;exitX=0.5;exitY=1;exitDx=0;exitDy=0;entryX=0.502;entryY=-0.001;entryDx=0;entryDy=0;entryPerimeter=0;fontSize=14;fontColor=#283592;strokeColor=#283592;" parent="SBwuihwLTVM8k1IBvn76-45" source="SBwuihwLTVM8k1IBvn76-51" target="SBwuihwLTVM8k1IBvn76-50" edge="1">
          <mxGeometry relative="1" as="geometry" />
        </mxCell>
        <mxCell id="SBwuihwLTVM8k1IBvn76-51" value="Accepted ?" style="rhombus;whiteSpace=wrap;html=1;fontColor=#283592;strokeColor=#283592;aspect=fixed;" parent="SBwuihwLTVM8k1IBvn76-45" vertex="1">
          <mxGeometry x="60" y="155" width="80" height="30" as="geometry" />
        </mxCell>
        <mxCell id="SBwuihwLTVM8k1IBvn76-54" value="Yes" style="text;html=1;strokeColor=none;fillColor=none;align=center;verticalAlign=middle;whiteSpace=wrap;rounded=0;fontColor=#283592;" parent="SBwuihwLTVM8k1IBvn76-45" vertex="1">
          <mxGeometry x="76" y="180" width="24" height="20" as="geometry" />
        </mxCell>
        <mxCell id="SBwuihwLTVM8k1IBvn76-78" value="No" style="text;html=1;strokeColor=none;fillColor=none;align=center;verticalAlign=middle;whiteSpace=wrap;rounded=0;fontColor=#283592;" parent="SBwuihwLTVM8k1IBvn76-45" vertex="1">
          <mxGeometry x="39" y="155" width="24" height="20" as="geometry" />
        </mxCell>
        <mxCell id="SBwuihwLTVM8k1IBvn76-89" style="edgeStyle=orthogonalEdgeStyle;rounded=0;orthogonalLoop=1;jettySize=auto;html=1;exitX=0.5;exitY=1;exitDx=0;exitDy=0;entryX=0.499;entryY=-0.027;entryDx=0;entryDy=0;entryPerimeter=0;fontSize=14;fontColor=#E01B84;strokeColor=#283592;" parent="SBwuihwLTVM8k1IBvn76-45" source="SBwuihwLTVM8k1IBvn76-84" target="SBwuihwLTVM8k1IBvn76-85" edge="1">
          <mxGeometry relative="1" as="geometry" />
        </mxCell>
        <mxCell id="SBwuihwLTVM8k1IBvn76-84" value="Receives payment request" style="rounded=1;whiteSpace=wrap;html=1;strokeColor=#283592;fontColor=#283592;" parent="SBwuihwLTVM8k1IBvn76-45" vertex="1">
          <mxGeometry x="39" y="910" width="120" height="40" as="geometry" />
        </mxCell>
        <mxCell id="SBwuihwLTVM8k1IBvn76-85" value="Received" style="html=1;shape=mxgraph.infographic.ribbonSimple;notch1=0;notch2=20;align=center;verticalAlign=middle;fontSize=14;fontStyle=0;fillColor=#FFFFFF;fontColor=#283592;strokeColor=#283592;" parent="SBwuihwLTVM8k1IBvn76-45" vertex="1">
          <mxGeometry x="39" y="970" width="120" height="40" as="geometry" />
        </mxCell>
        <mxCell id="Y9b4Z3o9En6oE_J5yfvX-4" value="Space Provider" style="swimlane;startSize=20;rounded=1;fontColor=#283592;strokeColor=#283592;fontSize=14;" parent="Y9b4Z3o9En6oE_J5yfvX-1" vertex="1">
          <mxGeometry x="606" y="30" width="200" height="1105" as="geometry" />
        </mxCell>
        <mxCell id="SBwuihwLTVM8k1IBvn76-64" style="edgeStyle=orthogonalEdgeStyle;rounded=0;orthogonalLoop=1;jettySize=auto;html=1;exitX=0.5;exitY=1;exitDx=0;exitDy=0;entryX=0.496;entryY=0.014;entryDx=0;entryDy=0;entryPerimeter=0;fontSize=14;fontColor=#283592;strokeColor=#283592;" parent="Y9b4Z3o9En6oE_J5yfvX-4" source="SBwuihwLTVM8k1IBvn76-61" target="SBwuihwLTVM8k1IBvn76-63" edge="1">
          <mxGeometry relative="1" as="geometry" />
        </mxCell>
        <mxCell id="SBwuihwLTVM8k1IBvn76-61" value="Registers the new booking" style="rounded=1;whiteSpace=wrap;html=1;strokeColor=#283592;fontColor=#283592;" parent="Y9b4Z3o9En6oE_J5yfvX-4" vertex="1">
          <mxGeometry x="40" y="90" width="120" height="40" as="geometry" />
        </mxCell>
        <mxCell id="SBwuihwLTVM8k1IBvn76-63" value="Registered" style="html=1;shape=mxgraph.infographic.ribbonSimple;notch1=0;notch2=20;align=center;verticalAlign=middle;fontSize=14;fontStyle=0;fillColor=#FFFFFF;fontColor=#283592;strokeColor=#283592;" parent="Y9b4Z3o9En6oE_J5yfvX-4" vertex="1">
          <mxGeometry x="40" y="170" width="120" height="40" as="geometry" />
        </mxCell>
        <mxCell id="SBwuihwLTVM8k1IBvn76-90" value="Payment&lt;br&gt;Receiver" style="html=1;shape=mxgraph.infographic.ribbonSimple;notch1=20;notch2=0;align=center;verticalAlign=middle;fontSize=14;fontStyle=0;flipH=1;fillColor=#FFFFFF;fontColor=#283592;strokeColor=#283592;" parent="Y9b4Z3o9En6oE_J5yfvX-4" vertex="1">
          <mxGeometry x="40" y="250" width="120" height="40" as="geometry" />
        </mxCell>
        <mxCell id="SBwuihwLTVM8k1IBvn76-9" style="edgeStyle=orthogonalEdgeStyle;rounded=0;orthogonalLoop=1;jettySize=auto;html=1;exitX=1;exitY=0.5;exitDx=0;exitDy=0;entryX=0;entryY=0.5;entryDx=0;entryDy=0;fontColor=#283592;strokeColor=#283592;" parent="Y9b4Z3o9En6oE_J5yfvX-1" source="SBwuihwLTVM8k1IBvn76-3" target="SBwuihwLTVM8k1IBvn76-8" edge="1">
          <mxGeometry relative="1" as="geometry">
            <Array as="points">
              <mxPoint x="216" y="200" />
              <mxPoint x="216" y="140" />
            </Array>
          </mxGeometry>
        </mxCell>
        <mxCell id="SBwuihwLTVM8k1IBvn76-12" style="edgeStyle=orthogonalEdgeStyle;rounded=0;orthogonalLoop=1;jettySize=auto;html=1;exitX=0.5;exitY=1;exitDx=0;exitDy=0;entryX=0.5;entryY=0;entryDx=0;entryDy=0;fontColor=#283592;strokeColor=#E01B84;" parent="Y9b4Z3o9En6oE_J5yfvX-1" source="SBwuihwLTVM8k1IBvn76-8" target="SBwuihwLTVM8k1IBvn76-11" edge="1">
          <mxGeometry relative="1" as="geometry">
            <Array as="points">
              <mxPoint x="306" y="240" />
              <mxPoint x="100" y="240" />
            </Array>
          </mxGeometry>
        </mxCell>
        <mxCell id="SBwuihwLTVM8k1IBvn76-20" style="edgeStyle=orthogonalEdgeStyle;rounded=0;orthogonalLoop=1;jettySize=auto;html=1;exitX=1;exitY=0.5;exitDx=0;exitDy=0;entryX=0;entryY=0.5;entryDx=0;entryDy=0;fontColor=#283592;strokeColor=#283592;" parent="Y9b4Z3o9En6oE_J5yfvX-1" source="SBwuihwLTVM8k1IBvn76-17" target="SBwuihwLTVM8k1IBvn76-19" edge="1">
          <mxGeometry relative="1" as="geometry">
            <Array as="points">
              <mxPoint x="210" y="420" />
              <mxPoint x="210" y="300" />
            </Array>
          </mxGeometry>
        </mxCell>
        <mxCell id="SBwuihwLTVM8k1IBvn76-22" style="edgeStyle=orthogonalEdgeStyle;rounded=0;orthogonalLoop=1;jettySize=auto;html=1;exitX=0.5;exitY=1;exitDx=0;exitDy=0;entryX=0.5;entryY=0;entryDx=0;entryDy=0;fontColor=#283592;strokeColor=#E01B84;" parent="Y9b4Z3o9En6oE_J5yfvX-1" source="SBwuihwLTVM8k1IBvn76-19" target="SBwuihwLTVM8k1IBvn76-21" edge="1">
          <mxGeometry relative="1" as="geometry">
            <Array as="points">
              <mxPoint x="306" y="335" />
              <mxPoint x="220" y="335" />
              <mxPoint x="220" y="460" />
              <mxPoint x="100" y="460" />
            </Array>
          </mxGeometry>
        </mxCell>
        <mxCell id="SBwuihwLTVM8k1IBvn76-36" style="edgeStyle=orthogonalEdgeStyle;rounded=0;orthogonalLoop=1;jettySize=auto;html=1;exitX=1;exitY=0.5;exitDx=0;exitDy=0;entryX=0;entryY=0.5;entryDx=0;entryDy=0;fontColor=#283592;strokeColor=#283592;" parent="Y9b4Z3o9En6oE_J5yfvX-1" source="SBwuihwLTVM8k1IBvn76-33" target="SBwuihwLTVM8k1IBvn76-35" edge="1">
          <mxGeometry relative="1" as="geometry">
            <Array as="points">
              <mxPoint x="216" y="740" />
              <mxPoint x="216" y="475" />
              <mxPoint x="230" y="475" />
              <mxPoint x="230" y="375" />
            </Array>
          </mxGeometry>
        </mxCell>
        <mxCell id="SBwuihwLTVM8k1IBvn76-40" style="edgeStyle=orthogonalEdgeStyle;rounded=0;orthogonalLoop=1;jettySize=auto;html=1;exitX=0.5;exitY=1;exitDx=0;exitDy=0;entryX=0.5;entryY=0;entryDx=0;entryDy=0;fontColor=#283592;strokeColor=#E01B84;" parent="Y9b4Z3o9En6oE_J5yfvX-1" source="SBwuihwLTVM8k1IBvn76-37" target="SBwuihwLTVM8k1IBvn76-39" edge="1">
          <mxGeometry relative="1" as="geometry">
            <Array as="points">
              <mxPoint x="306" y="495" />
              <mxPoint x="226" y="495" />
              <mxPoint x="226" y="770" />
              <mxPoint x="100" y="770" />
            </Array>
          </mxGeometry>
        </mxCell>
        <mxCell id="SBwuihwLTVM8k1IBvn76-56" style="edgeStyle=orthogonalEdgeStyle;rounded=0;orthogonalLoop=1;jettySize=auto;html=1;exitX=1;exitY=0.5;exitDx=0;exitDy=0;entryX=0;entryY=0.5;entryDx=0;entryDy=0;fontSize=14;fontColor=#283592;strokeColor=#283592;" parent="Y9b4Z3o9En6oE_J5yfvX-1" source="SBwuihwLTVM8k1IBvn76-41" target="SBwuihwLTVM8k1IBvn76-49" edge="1">
          <mxGeometry relative="1" as="geometry">
            <Array as="points">
              <mxPoint x="236" y="900" />
              <mxPoint x="236" y="505" />
              <mxPoint x="416" y="505" />
              <mxPoint x="416" y="140" />
            </Array>
          </mxGeometry>
        </mxCell>
        <mxCell id="SBwuihwLTVM8k1IBvn76-58" style="edgeStyle=orthogonalEdgeStyle;rounded=0;orthogonalLoop=1;jettySize=auto;html=1;exitX=0.502;exitY=0.993;exitDx=0;exitDy=0;exitPerimeter=0;entryX=0;entryY=0;entryDx=60;entryDy=0;entryPerimeter=0;fontSize=14;fontColor=#283592;strokeColor=#283592;" parent="Y9b4Z3o9En6oE_J5yfvX-1" source="SBwuihwLTVM8k1IBvn76-50" target="SBwuihwLTVM8k1IBvn76-57" edge="1">
          <mxGeometry relative="1" as="geometry">
            <Array as="points">
              <mxPoint x="506" y="645" />
              <mxPoint x="306" y="645" />
            </Array>
          </mxGeometry>
        </mxCell>
        <mxCell id="SBwuihwLTVM8k1IBvn76-62" style="edgeStyle=orthogonalEdgeStyle;rounded=0;orthogonalLoop=1;jettySize=auto;html=1;exitX=1;exitY=0.5;exitDx=0;exitDy=0;entryX=0;entryY=0.5;entryDx=0;entryDy=0;fontSize=14;fontColor=#283592;strokeColor=#283592;" parent="Y9b4Z3o9En6oE_J5yfvX-1" source="SBwuihwLTVM8k1IBvn76-59" target="SBwuihwLTVM8k1IBvn76-61" edge="1">
          <mxGeometry relative="1" as="geometry">
            <Array as="points">
              <mxPoint x="616" y="760" />
              <mxPoint x="616" y="140" />
            </Array>
          </mxGeometry>
        </mxCell>
        <mxCell id="SBwuihwLTVM8k1IBvn76-66" style="edgeStyle=orthogonalEdgeStyle;rounded=0;orthogonalLoop=1;jettySize=auto;html=1;exitX=0;exitY=0;exitDx=0;exitDy=20;exitPerimeter=0;entryX=0;entryY=0;entryDx=20;entryDy=20;entryPerimeter=0;fontSize=14;fontColor=#283592;strokeColor=#283592;" parent="Y9b4Z3o9En6oE_J5yfvX-1" source="SBwuihwLTVM8k1IBvn76-63" target="SBwuihwLTVM8k1IBvn76-65" edge="1">
          <mxGeometry relative="1" as="geometry">
            <Array as="points">
              <mxPoint x="626" y="220" />
              <mxPoint x="626" y="840" />
              <mxPoint x="346" y="840" />
            </Array>
          </mxGeometry>
        </mxCell>
        <mxCell id="SBwuihwLTVM8k1IBvn76-81" style="edgeStyle=orthogonalEdgeStyle;rounded=0;orthogonalLoop=1;jettySize=auto;html=1;exitX=0;exitY=0;exitDx=0;exitDy=20;exitPerimeter=0;entryX=0;entryY=0;entryDx=20;entryDy=20;entryPerimeter=0;fontSize=14;fontColor=#E01B84;strokeColor=#283592;" parent="Y9b4Z3o9En6oE_J5yfvX-1" source="SBwuihwLTVM8k1IBvn76-69" target="SBwuihwLTVM8k1IBvn76-80" edge="1">
          <mxGeometry relative="1" as="geometry">
            <Array as="points">
              <mxPoint x="166" y="960" />
              <mxPoint x="166" y="960" />
            </Array>
          </mxGeometry>
        </mxCell>
        <mxCell id="SBwuihwLTVM8k1IBvn76-82" style="edgeStyle=orthogonalEdgeStyle;rounded=0;orthogonalLoop=1;jettySize=auto;html=1;exitX=0;exitY=0;exitDx=60;exitDy=40;exitPerimeter=0;entryX=-0.401;entryY=0.811;entryDx=0;entryDy=0;fontSize=14;fontColor=#E01B84;strokeColor=#283592;entryPerimeter=0;" parent="Y9b4Z3o9En6oE_J5yfvX-1" source="SBwuihwLTVM8k1IBvn76-80" target="UYK-7qxF8x5jv9WJo-W0-1" edge="1">
          <mxGeometry relative="1" as="geometry">
            <Array as="points">
              <mxPoint x="100" y="1050" />
              <mxPoint x="266" y="1050" />
            </Array>
          </mxGeometry>
        </mxCell>
        <mxCell id="SBwuihwLTVM8k1IBvn76-87" style="edgeStyle=orthogonalEdgeStyle;rounded=0;orthogonalLoop=1;jettySize=auto;html=1;exitX=1;exitY=0.5;exitDx=0;exitDy=0;entryX=0;entryY=0.5;entryDx=0;entryDy=0;fontSize=14;fontColor=#E01B84;strokeColor=#283592;" parent="Y9b4Z3o9En6oE_J5yfvX-1" source="SBwuihwLTVM8k1IBvn76-71" target="SBwuihwLTVM8k1IBvn76-84" edge="1">
          <mxGeometry relative="1" as="geometry" />
        </mxCell>
        <mxCell id="SBwuihwLTVM8k1IBvn76-91" style="edgeStyle=orthogonalEdgeStyle;rounded=0;orthogonalLoop=1;jettySize=auto;html=1;exitX=1;exitY=0.5;exitDx=0;exitDy=0;exitPerimeter=0;entryX=1;entryY=0.5;entryDx=0;entryDy=0;entryPerimeter=0;fontSize=14;fontColor=#E01B84;strokeColor=#283592;" parent="Y9b4Z3o9En6oE_J5yfvX-1" source="SBwuihwLTVM8k1IBvn76-85" target="SBwuihwLTVM8k1IBvn76-90" edge="1">
          <mxGeometry relative="1" as="geometry">
            <Array as="points">
              <mxPoint x="636" y="1020" />
              <mxPoint x="636" y="300" />
            </Array>
          </mxGeometry>
        </mxCell>
        <mxCell id="SBwuihwLTVM8k1IBvn76-92" style="edgeStyle=orthogonalEdgeStyle;rounded=0;orthogonalLoop=1;jettySize=auto;html=1;exitX=0;exitY=0;exitDx=60;exitDy=40;exitPerimeter=0;entryX=-0.307;entryY=0.145;entryDx=0;entryDy=0;fontSize=14;fontColor=#E01B84;strokeColor=#283592;entryPerimeter=0;" parent="Y9b4Z3o9En6oE_J5yfvX-1" source="SBwuihwLTVM8k1IBvn76-90" target="UYK-7qxF8x5jv9WJo-W0-1" edge="1">
          <mxGeometry relative="1" as="geometry">
            <Array as="points">
              <mxPoint x="706" y="1050" />
              <mxPoint x="346" y="1050" />
            </Array>
          </mxGeometry>
        </mxCell>
        <mxCell id="SBwuihwLTVM8k1IBvn76-77" style="edgeStyle=orthogonalEdgeStyle;rounded=0;orthogonalLoop=1;jettySize=auto;html=1;exitX=0;exitY=0.5;exitDx=0;exitDy=0;entryX=1;entryY=0.5;entryDx=0;entryDy=0;fontSize=14;fontColor=#E01B84;strokeColor=#283592;" parent="Y9b4Z3o9En6oE_J5yfvX-1" source="SBwuihwLTVM8k1IBvn76-51" target="ucHowXHDUnCpZmRlBpM0-1" edge="1">
          <mxGeometry relative="1" as="geometry">
            <Array as="points">
              <mxPoint x="430" y="200" />
              <mxPoint x="430" y="555" />
            </Array>
          </mxGeometry>
        </mxCell>
      </root>
    </mxGraphModel>
  </diagram>
  <diagram id="dLOneZuymx4iYUXCO88S" name="Add Space">
    <mxGraphModel dx="784" dy="748" grid="1" gridSize="10" guides="1" tooltips="1" connect="1" arrows="1" fold="1" page="1" pageScale="1" pageWidth="827" pageHeight="1169" math="0" shadow="0">
      <root>
        <mxCell id="0" />
        <mxCell id="1" parent="0" />
        <mxCell id="Yo68WYZIFa2jaD8EibDz-1" value="Add Coworking space" style="swimlane;childLayout=stackLayout;resizeParent=1;resizeParentMax=0;startSize=30;swimlaneFillColor=none;gradientColor=none;rounded=1;fillColor=#283592;fontColor=#FFFFFF;strokeColor=#283592;fontSize=16;" parent="1" vertex="1">
          <mxGeometry x="134" y="40" width="560" height="890" as="geometry" />
        </mxCell>
        <mxCell id="srAZ5GR5LNJATQXIu9n--6" style="edgeStyle=orthogonalEdgeStyle;rounded=0;orthogonalLoop=1;jettySize=auto;html=1;exitX=1;exitY=0.5;exitDx=0;exitDy=0;entryX=0;entryY=0.5;entryDx=0;entryDy=0;fontSize=14;fontColor=#283592;strokeColor=#E01B84;" parent="Yo68WYZIFa2jaD8EibDz-1" source="srAZ5GR5LNJATQXIu9n--3" target="srAZ5GR5LNJATQXIu9n--5" edge="1">
          <mxGeometry relative="1" as="geometry" />
        </mxCell>
        <mxCell id="srAZ5GR5LNJATQXIu9n--11" style="edgeStyle=orthogonalEdgeStyle;rounded=0;orthogonalLoop=1;jettySize=auto;html=1;exitX=0;exitY=0.5;exitDx=0;exitDy=0;entryX=1;entryY=0.5;entryDx=0;entryDy=0;fontSize=14;fontColor=#283592;strokeColor=#283592;" parent="Yo68WYZIFa2jaD8EibDz-1" source="srAZ5GR5LNJATQXIu9n--7" target="srAZ5GR5LNJATQXIu9n--10" edge="1">
          <mxGeometry relative="1" as="geometry" />
        </mxCell>
        <mxCell id="srAZ5GR5LNJATQXIu9n--14" style="edgeStyle=orthogonalEdgeStyle;rounded=0;orthogonalLoop=1;jettySize=auto;html=1;exitX=0.5;exitY=0;exitDx=0;exitDy=0;entryX=0;entryY=0.75;entryDx=0;entryDy=0;fontSize=14;fontColor=#283592;strokeColor=#E01B84;" parent="Yo68WYZIFa2jaD8EibDz-1" source="srAZ5GR5LNJATQXIu9n--10" target="srAZ5GR5LNJATQXIu9n--5" edge="1">
          <mxGeometry relative="1" as="geometry">
            <Array as="points">
              <mxPoint x="203" y="530" />
              <mxPoint x="286" y="530" />
              <mxPoint x="286" y="510" />
            </Array>
          </mxGeometry>
        </mxCell>
        <mxCell id="Yo68WYZIFa2jaD8EibDz-2" value="CoworkClub" style="swimlane;startSize=20;rounded=1;fontColor=#e01b84;strokeColor=#283592;fontSize=14;" parent="Yo68WYZIFa2jaD8EibDz-1" vertex="1">
          <mxGeometry y="30" width="280" height="860" as="geometry">
            <mxRectangle y="30" width="30" height="980" as="alternateBounds" />
          </mxGeometry>
        </mxCell>
        <mxCell id="Gj3wsYL6SBJlNOCuP870-2" style="edgeStyle=orthogonalEdgeStyle;rounded=0;orthogonalLoop=1;jettySize=auto;html=1;exitX=0.5;exitY=1;exitDx=0;exitDy=0;entryX=0.5;entryY=0;entryDx=0;entryDy=0;fontSize=14;fontColor=#283592;strokeColor=#E01B84;" parent="Yo68WYZIFa2jaD8EibDz-2" source="78g4_6eE-cRGmUJaPtJS-4" target="Gj3wsYL6SBJlNOCuP870-1" edge="1">
          <mxGeometry relative="1" as="geometry" />
        </mxCell>
        <mxCell id="78g4_6eE-cRGmUJaPtJS-4" value="Application Validation" style="rounded=1;whiteSpace=wrap;html=1;strokeColor=#E01B84;fontColor=#283592;" parent="Yo68WYZIFa2jaD8EibDz-2" vertex="1">
          <mxGeometry x="80" y="190" width="120" height="40" as="geometry" />
        </mxCell>
        <mxCell id="srAZ5GR5LNJATQXIu9n--2" style="edgeStyle=orthogonalEdgeStyle;rounded=0;orthogonalLoop=1;jettySize=auto;html=1;exitX=0.5;exitY=1;exitDx=0;exitDy=0;entryX=0.5;entryY=0;entryDx=0;entryDy=0;fontSize=14;fontColor=#283592;strokeColor=#E01B84;" parent="Yo68WYZIFa2jaD8EibDz-2" source="Gj3wsYL6SBJlNOCuP870-1" target="srAZ5GR5LNJATQXIu9n--1" edge="1">
          <mxGeometry relative="1" as="geometry" />
        </mxCell>
        <mxCell id="Gj3wsYL6SBJlNOCuP870-1" value="Accepted ?" style="rhombus;whiteSpace=wrap;html=1;fontColor=#283592;strokeColor=#E01B84;aspect=fixed;" parent="Yo68WYZIFa2jaD8EibDz-2" vertex="1">
          <mxGeometry x="86.66" y="265" width="106.67" height="40" as="geometry" />
        </mxCell>
        <mxCell id="lBcqNDobqTq8zWEflIWa-1" value="No" style="text;html=1;strokeColor=none;fillColor=none;align=center;verticalAlign=middle;whiteSpace=wrap;rounded=0;fontColor=#283592;" parent="Yo68WYZIFa2jaD8EibDz-2" vertex="1">
          <mxGeometry x="62.660000000000025" y="265" width="24" height="20" as="geometry" />
        </mxCell>
        <mxCell id="lBcqNDobqTq8zWEflIWa-2" value="Yes" style="text;html=1;strokeColor=none;fillColor=none;align=center;verticalAlign=middle;whiteSpace=wrap;rounded=0;fontColor=#283592;" parent="Yo68WYZIFa2jaD8EibDz-2" vertex="1">
          <mxGeometry x="146" y="300" width="24" height="20" as="geometry" />
        </mxCell>
        <mxCell id="18OS0yw9Aujf9VRR2W7C-2" style="edgeStyle=orthogonalEdgeStyle;rounded=0;orthogonalLoop=1;jettySize=auto;html=1;exitX=0.5;exitY=1;exitDx=0;exitDy=0;entryX=-0.091;entryY=0.501;entryDx=0;entryDy=0;entryPerimeter=0;fontSize=14;fontColor=#283592;strokeColor=#E01B84;" parent="Yo68WYZIFa2jaD8EibDz-2" source="srAZ5GR5LNJATQXIu9n--1" target="18OS0yw9Aujf9VRR2W7C-1" edge="1">
          <mxGeometry relative="1" as="geometry" />
        </mxCell>
        <mxCell id="srAZ5GR5LNJATQXIu9n--1" value="Registration into database" style="rounded=1;whiteSpace=wrap;html=1;strokeColor=#E01B84;fontColor=#283592;" parent="Yo68WYZIFa2jaD8EibDz-2" vertex="1">
          <mxGeometry x="80" y="330" width="120" height="40" as="geometry" />
        </mxCell>
        <mxCell id="srAZ5GR5LNJATQXIu9n--3" value="Profile creation" style="rounded=1;whiteSpace=wrap;html=1;strokeColor=#E01B84;fontColor=#283592;" parent="Yo68WYZIFa2jaD8EibDz-2" vertex="1">
          <mxGeometry x="156.68" y="450" width="106.66" height="40" as="geometry" />
        </mxCell>
        <mxCell id="srAZ5GR5LNJATQXIu9n--12" style="edgeStyle=orthogonalEdgeStyle;rounded=0;orthogonalLoop=1;jettySize=auto;html=1;exitX=0.5;exitY=1;exitDx=0;exitDy=0;entryX=0.5;entryY=0;entryDx=0;entryDy=0;fontSize=14;fontColor=#283592;strokeColor=#E01B84;" parent="Yo68WYZIFa2jaD8EibDz-2" source="srAZ5GR5LNJATQXIu9n--10" target="srAZ5GR5LNJATQXIu9n--9" edge="1">
          <mxGeometry relative="1" as="geometry" />
        </mxCell>
        <mxCell id="srAZ5GR5LNJATQXIu9n--10" value="Accepted ?" style="rhombus;whiteSpace=wrap;html=1;fontColor=#283592;strokeColor=#E01B84;aspect=fixed;" parent="Yo68WYZIFa2jaD8EibDz-2" vertex="1">
          <mxGeometry x="150" y="530" width="106.67" height="40" as="geometry" />
        </mxCell>
        <mxCell id="7KMEmrjU1cZvPjGv8on1-2" style="edgeStyle=orthogonalEdgeStyle;rounded=0;orthogonalLoop=1;jettySize=auto;html=1;exitX=0.5;exitY=1;exitDx=0;exitDy=0;entryX=-0.151;entryY=0.236;entryDx=0;entryDy=0;entryPerimeter=0;fontSize=14;fontColor=#283592;strokeColor=#E01B84;" parent="Yo68WYZIFa2jaD8EibDz-2" source="srAZ5GR5LNJATQXIu9n--9" target="7KMEmrjU1cZvPjGv8on1-1" edge="1">
          <mxGeometry relative="1" as="geometry" />
        </mxCell>
        <mxCell id="srAZ5GR5LNJATQXIu9n--9" value="Profile update" style="rounded=1;whiteSpace=wrap;html=1;strokeColor=#E01B84;fontColor=#283592;" parent="Yo68WYZIFa2jaD8EibDz-2" vertex="1">
          <mxGeometry x="143.34" y="610" width="120" height="40" as="geometry" />
        </mxCell>
        <mxCell id="srAZ5GR5LNJATQXIu9n--13" value="Yes" style="text;html=1;strokeColor=none;fillColor=none;align=center;verticalAlign=middle;whiteSpace=wrap;rounded=0;fontColor=#283592;" parent="Yo68WYZIFa2jaD8EibDz-2" vertex="1">
          <mxGeometry x="209.34" y="570" width="24" height="20" as="geometry" />
        </mxCell>
        <mxCell id="srAZ5GR5LNJATQXIu9n--15" value="No" style="text;html=1;strokeColor=none;fillColor=none;align=center;verticalAlign=middle;whiteSpace=wrap;rounded=0;fontColor=#283592;" parent="Yo68WYZIFa2jaD8EibDz-2" vertex="1">
          <mxGeometry x="209.34000000000003" y="510" width="24" height="20" as="geometry" />
        </mxCell>
        <mxCell id="18OS0yw9Aujf9VRR2W7C-1" value="" style="html=1;points=[];perimeter=orthogonalPerimeter;fillColor=#E01B84;strokeColor=none;fontSize=14;fontColor=#E01B84;rotation=90;" parent="Yo68WYZIFa2jaD8EibDz-2" vertex="1">
          <mxGeometry x="140" y="292.5" width="5" height="235" as="geometry" />
        </mxCell>
        <mxCell id="18OS0yw9Aujf9VRR2W7C-3" value="Management Dashboard access" style="rounded=1;whiteSpace=wrap;html=1;strokeColor=#E01B84;fontColor=#283592;" parent="Yo68WYZIFa2jaD8EibDz-2" vertex="1">
          <mxGeometry x="21.340000000000003" y="450" width="104.66" height="40" as="geometry" />
        </mxCell>
        <mxCell id="18OS0yw9Aujf9VRR2W7C-4" style="edgeStyle=orthogonalEdgeStyle;rounded=0;orthogonalLoop=1;jettySize=auto;html=1;exitX=0.826;exitY=0.827;exitDx=0;exitDy=0;entryX=0.5;entryY=0;entryDx=0;entryDy=0;fontSize=14;fontColor=#283592;strokeColor=#E01B84;exitPerimeter=0;" parent="Yo68WYZIFa2jaD8EibDz-2" source="18OS0yw9Aujf9VRR2W7C-1" target="18OS0yw9Aujf9VRR2W7C-3" edge="1">
          <mxGeometry relative="1" as="geometry">
            <mxPoint x="149.9999999999999" y="380" as="sourcePoint" />
            <mxPoint x="152.26499999999987" y="417.04499999999996" as="targetPoint" />
          </mxGeometry>
        </mxCell>
        <mxCell id="18OS0yw9Aujf9VRR2W7C-5" style="edgeStyle=orthogonalEdgeStyle;rounded=0;orthogonalLoop=1;jettySize=auto;html=1;exitX=1.03;exitY=0.211;exitDx=0;exitDy=0;entryX=0.5;entryY=0;entryDx=0;entryDy=0;fontSize=14;fontColor=#283592;strokeColor=#E01B84;exitPerimeter=0;" parent="Yo68WYZIFa2jaD8EibDz-2" source="18OS0yw9Aujf9VRR2W7C-1" target="srAZ5GR5LNJATQXIu9n--3" edge="1">
          <mxGeometry relative="1" as="geometry">
            <mxPoint x="75.65500000000003" y="421.6299999999999" as="sourcePoint" />
            <mxPoint x="83.66999999999996" y="460" as="targetPoint" />
            <Array as="points">
              <mxPoint x="210" y="432" />
              <mxPoint x="210" y="432" />
            </Array>
          </mxGeometry>
        </mxCell>
        <mxCell id="7KMEmrjU1cZvPjGv8on1-1" value="" style="html=1;points=[];perimeter=orthogonalPerimeter;fillColor=#E01B84;strokeColor=none;fontSize=14;fontColor=#E01B84;rotation=90;" parent="Yo68WYZIFa2jaD8EibDz-2" vertex="1">
          <mxGeometry x="140" y="570" width="5" height="235" as="geometry" />
        </mxCell>
        <mxCell id="7KMEmrjU1cZvPjGv8on1-3" style="edgeStyle=orthogonalEdgeStyle;rounded=0;orthogonalLoop=1;jettySize=auto;html=1;exitX=0.5;exitY=1;exitDx=0;exitDy=0;fontSize=14;fontColor=#283592;strokeColor=#E01B84;entryX=-0.076;entryY=0.788;entryDx=0;entryDy=0;entryPerimeter=0;" parent="Yo68WYZIFa2jaD8EibDz-2" source="18OS0yw9Aujf9VRR2W7C-3" target="7KMEmrjU1cZvPjGv8on1-1" edge="1">
          <mxGeometry relative="1" as="geometry">
            <mxPoint x="96" y="630" as="targetPoint" />
            <Array as="points">
              <mxPoint x="75" y="490" />
              <mxPoint x="75" y="588" />
            </Array>
          </mxGeometry>
        </mxCell>
        <mxCell id="RFCVS_46vstNp0yDbta4-2" style="edgeStyle=orthogonalEdgeStyle;rounded=0;orthogonalLoop=1;jettySize=auto;html=1;exitX=0.5;exitY=1;exitDx=0;exitDy=0;entryX=0.5;entryY=0;entryDx=0;entryDy=0;fontSize=14;fontColor=#283592;strokeColor=#E01B84;" parent="Yo68WYZIFa2jaD8EibDz-2" source="NGinKQUIg61Kh9BNyJYm-1" target="RFCVS_46vstNp0yDbta4-1" edge="1">
          <mxGeometry relative="1" as="geometry" />
        </mxCell>
        <mxCell id="NGinKQUIg61Kh9BNyJYm-1" value="Publish to CoworkClub" style="rounded=1;whiteSpace=wrap;html=1;strokeColor=#E01B84;fontColor=#283592;" parent="Yo68WYZIFa2jaD8EibDz-2" vertex="1">
          <mxGeometry x="80.00000000000003" y="730" width="120" height="40" as="geometry" />
        </mxCell>
        <mxCell id="NGinKQUIg61Kh9BNyJYm-2" style="edgeStyle=orthogonalEdgeStyle;rounded=0;orthogonalLoop=1;jettySize=auto;html=1;exitX=0.912;exitY=0.51;exitDx=0;exitDy=0;entryX=0.5;entryY=0;entryDx=0;entryDy=0;fontSize=14;fontColor=#283592;strokeColor=#E01B84;exitPerimeter=0;" parent="Yo68WYZIFa2jaD8EibDz-2" source="7KMEmrjU1cZvPjGv8on1-1" target="NGinKQUIg61Kh9BNyJYm-1" edge="1">
          <mxGeometry relative="1" as="geometry">
            <mxPoint x="138.80000000000013" y="690.0000000000001" as="sourcePoint" />
            <mxPoint x="139.99999999999994" y="724.245" as="targetPoint" />
          </mxGeometry>
        </mxCell>
        <mxCell id="RFCVS_46vstNp0yDbta4-1" value="" style="ellipse;html=1;shape=endState;fillColor=#283592;strokeColor=#E01B84;fontSize=14;fontColor=#E01B84;" parent="Yo68WYZIFa2jaD8EibDz-2" vertex="1">
          <mxGeometry x="125" y="820" width="30" height="30" as="geometry" />
        </mxCell>
        <mxCell id="Yo68WYZIFa2jaD8EibDz-19" value="Space Provider" style="swimlane;startSize=20;rounded=1;fontColor=#283592;strokeColor=#283592;fontSize=14;" parent="Yo68WYZIFa2jaD8EibDz-1" vertex="1">
          <mxGeometry x="280" y="30" width="280" height="860" as="geometry" />
        </mxCell>
        <mxCell id="WolrFz-vaTPoc9gOzd8_-2" style="edgeStyle=orthogonalEdgeStyle;rounded=0;orthogonalLoop=1;jettySize=auto;html=1;exitX=0.5;exitY=1;exitDx=0;exitDy=0;entryX=0.5;entryY=0;entryDx=0;entryDy=0;fontSize=14;fontColor=#283592;strokeColor=#283592;" parent="Yo68WYZIFa2jaD8EibDz-19" source="Yo68WYZIFa2jaD8EibDz-33" target="WolrFz-vaTPoc9gOzd8_-1" edge="1">
          <mxGeometry relative="1" as="geometry" />
        </mxCell>
        <mxCell id="Yo68WYZIFa2jaD8EibDz-33" value="" style="ellipse;fillColor=#283592;strokeColor=none;fontSize=14;fontColor=#283592;" parent="Yo68WYZIFa2jaD8EibDz-19" vertex="1">
          <mxGeometry x="125" y="60" width="30" height="30" as="geometry" />
        </mxCell>
        <mxCell id="78g4_6eE-cRGmUJaPtJS-3" style="edgeStyle=orthogonalEdgeStyle;rounded=0;orthogonalLoop=1;jettySize=auto;html=1;exitX=0.5;exitY=1;exitDx=0;exitDy=0;entryX=0.5;entryY=0;entryDx=0;entryDy=0;fontSize=14;fontColor=#283592;strokeColor=#283592;" parent="Yo68WYZIFa2jaD8EibDz-19" source="WolrFz-vaTPoc9gOzd8_-1" target="78g4_6eE-cRGmUJaPtJS-1" edge="1">
          <mxGeometry relative="1" as="geometry" />
        </mxCell>
        <mxCell id="WolrFz-vaTPoc9gOzd8_-1" value="Request to add Space" style="rounded=1;whiteSpace=wrap;html=1;strokeColor=#283592;fontColor=#283592;" parent="Yo68WYZIFa2jaD8EibDz-19" vertex="1">
          <mxGeometry x="80" y="110" width="120" height="40" as="geometry" />
        </mxCell>
        <mxCell id="78g4_6eE-cRGmUJaPtJS-1" value="Application&lt;br&gt;(Space name, location, working days/hours, prices, office types, ... )" style="rounded=0;whiteSpace=wrap;html=1;fontColor=#283592;strokeColor=#283592;" parent="Yo68WYZIFa2jaD8EibDz-19" vertex="1">
          <mxGeometry x="80" y="170" width="120" height="80" as="geometry" />
        </mxCell>
        <mxCell id="srAZ5GR5LNJATQXIu9n--8" style="edgeStyle=orthogonalEdgeStyle;rounded=0;orthogonalLoop=1;jettySize=auto;html=1;exitX=0.5;exitY=1;exitDx=0;exitDy=0;entryX=0.5;entryY=0;entryDx=0;entryDy=0;fontSize=14;fontColor=#283592;strokeColor=#283592;" parent="Yo68WYZIFa2jaD8EibDz-19" source="srAZ5GR5LNJATQXIu9n--5" target="srAZ5GR5LNJATQXIu9n--7" edge="1">
          <mxGeometry relative="1" as="geometry" />
        </mxCell>
        <mxCell id="srAZ5GR5LNJATQXIu9n--5" value="Profile editing" style="rounded=1;whiteSpace=wrap;html=1;strokeColor=#283592;fontColor=#283592;" parent="Yo68WYZIFa2jaD8EibDz-19" vertex="1">
          <mxGeometry x="80" y="450" width="120" height="40" as="geometry" />
        </mxCell>
        <mxCell id="srAZ5GR5LNJATQXIu9n--7" value="Images, descriptions, ..." style="rounded=0;whiteSpace=wrap;html=1;fontColor=#283592;strokeColor=#283592;" parent="Yo68WYZIFa2jaD8EibDz-19" vertex="1">
          <mxGeometry x="80" y="530" width="120" height="40" as="geometry" />
        </mxCell>
        <mxCell id="78g4_6eE-cRGmUJaPtJS-5" style="edgeStyle=orthogonalEdgeStyle;rounded=0;orthogonalLoop=1;jettySize=auto;html=1;exitX=0;exitY=0.5;exitDx=0;exitDy=0;entryX=1;entryY=0.5;entryDx=0;entryDy=0;fontSize=14;fontColor=#283592;strokeColor=#283592;" parent="Yo68WYZIFa2jaD8EibDz-1" source="78g4_6eE-cRGmUJaPtJS-1" target="78g4_6eE-cRGmUJaPtJS-4" edge="1">
          <mxGeometry relative="1" as="geometry" />
        </mxCell>
        <mxCell id="Gj3wsYL6SBJlNOCuP870-3" style="edgeStyle=orthogonalEdgeStyle;rounded=0;orthogonalLoop=1;jettySize=auto;html=1;exitX=0;exitY=0.5;exitDx=0;exitDy=0;entryX=0;entryY=0.5;entryDx=0;entryDy=0;fontSize=14;fontColor=#283592;strokeColor=#E01B84;" parent="Yo68WYZIFa2jaD8EibDz-1" source="Gj3wsYL6SBJlNOCuP870-1" target="WolrFz-vaTPoc9gOzd8_-1" edge="1">
          <mxGeometry relative="1" as="geometry">
            <Array as="points">
              <mxPoint x="46" y="315" />
              <mxPoint x="46" y="160" />
            </Array>
          </mxGeometry>
        </mxCell>
      </root>
    </mxGraphModel>
  </diagram>
  <diagram id="QN3FZXPzjIui03fiu6KZ" name="Class Diagram">
    <mxGraphModel dx="922" dy="805" grid="1" gridSize="10" guides="1" tooltips="1" connect="1" arrows="1" fold="1" page="1" pageScale="1" pageWidth="850" pageHeight="1100" math="0" shadow="0">
      <root>
        <mxCell id="wxooSHnF6QyXdMB0OCFC-0" />
        <mxCell id="wxooSHnF6QyXdMB0OCFC-1" parent="wxooSHnF6QyXdMB0OCFC-0" />
        <mxCell id="NTe5a28m2p0eOUfpOkD7-0" value="User" style="swimlane;fontStyle=1;align=center;verticalAlign=top;childLayout=stackLayout;horizontal=1;startSize=26;horizontalStack=0;resizeParent=1;resizeParentMax=0;resizeLast=0;collapsible=1;marginBottom=0;strokeColor=#283592;fontColor=#E01B84;rounded=1;" vertex="1" parent="wxooSHnF6QyXdMB0OCFC-1">
          <mxGeometry x="455" y="40" width="160" height="60" as="geometry" />
        </mxCell>
        <mxCell id="NTe5a28m2p0eOUfpOkD7-4" value="+ Cookie: String" style="text;strokeColor=none;fillColor=none;align=left;verticalAlign=top;spacingLeft=4;spacingRight=4;overflow=hidden;rotatable=0;points=[[0,0.5],[1,0.5]];portConstraint=eastwest;" vertex="1" parent="NTe5a28m2p0eOUfpOkD7-0">
          <mxGeometry y="26" width="160" height="26" as="geometry" />
        </mxCell>
        <mxCell id="NTe5a28m2p0eOUfpOkD7-2" value="" style="line;strokeWidth=1;fillColor=none;align=left;verticalAlign=middle;spacingTop=-1;spacingLeft=3;spacingRight=3;rotatable=0;labelPosition=right;points=[];portConstraint=eastwest;strokeColor=#283592;" vertex="1" parent="NTe5a28m2p0eOUfpOkD7-0">
          <mxGeometry y="52" width="160" height="8" as="geometry" />
        </mxCell>
        <mxCell id="NTe5a28m2p0eOUfpOkD7-12" value="Registered User" style="swimlane;fontStyle=1;align=center;verticalAlign=top;childLayout=stackLayout;horizontal=1;startSize=26;horizontalStack=0;resizeParent=1;resizeParentMax=0;resizeLast=0;collapsible=1;marginBottom=0;strokeColor=#283592;fontColor=#E01B84;rounded=1;" vertex="1" parent="wxooSHnF6QyXdMB0OCFC-1">
          <mxGeometry x="455" y="160" width="160" height="268" as="geometry" />
        </mxCell>
        <mxCell id="NTe5a28m2p0eOUfpOkD7-16" value="+ Name: String" style="text;strokeColor=none;fillColor=none;align=left;verticalAlign=top;spacingLeft=4;spacingRight=4;overflow=hidden;rotatable=0;points=[[0,0.5],[1,0.5]];portConstraint=eastwest;" vertex="1" parent="NTe5a28m2p0eOUfpOkD7-12">
          <mxGeometry y="26" width="160" height="26" as="geometry" />
        </mxCell>
        <mxCell id="NTe5a28m2p0eOUfpOkD7-17" value="+ Email: String" style="text;strokeColor=none;fillColor=none;align=left;verticalAlign=top;spacingLeft=4;spacingRight=4;overflow=hidden;rotatable=0;points=[[0,0.5],[1,0.5]];portConstraint=eastwest;" vertex="1" parent="NTe5a28m2p0eOUfpOkD7-12">
          <mxGeometry y="52" width="160" height="26" as="geometry" />
        </mxCell>
        <mxCell id="NTe5a28m2p0eOUfpOkD7-18" value="+ Image: String" style="text;strokeColor=none;fillColor=none;align=left;verticalAlign=top;spacingLeft=4;spacingRight=4;overflow=hidden;rotatable=0;points=[[0,0.5],[1,0.5]];portConstraint=eastwest;" vertex="1" parent="NTe5a28m2p0eOUfpOkD7-12">
          <mxGeometry y="78" width="160" height="26" as="geometry" />
        </mxCell>
        <mxCell id="NTe5a28m2p0eOUfpOkD7-19" value="- Payment information: ?" style="text;strokeColor=none;fillColor=none;align=left;verticalAlign=top;spacingLeft=4;spacingRight=4;overflow=hidden;rotatable=0;points=[[0,0.5],[1,0.5]];portConstraint=eastwest;" vertex="1" parent="NTe5a28m2p0eOUfpOkD7-12">
          <mxGeometry y="104" width="160" height="26" as="geometry" />
        </mxCell>
        <mxCell id="NTe5a28m2p0eOUfpOkD7-21" style="line;strokeWidth=1;fillColor=none;align=left;verticalAlign=middle;spacingTop=-1;spacingLeft=3;spacingRight=3;rotatable=0;labelPosition=right;points=[];portConstraint=eastwest;strokeColor=#283592;" vertex="1" parent="NTe5a28m2p0eOUfpOkD7-12">
          <mxGeometry y="130" width="160" height="8" as="geometry" />
        </mxCell>
        <mxCell id="NTe5a28m2p0eOUfpOkD7-24" value="# UpdateName(name)" style="text;strokeColor=none;fillColor=none;align=left;verticalAlign=top;spacingLeft=4;spacingRight=4;overflow=hidden;rotatable=0;points=[[0,0.5],[1,0.5]];portConstraint=eastwest;" vertex="1" parent="NTe5a28m2p0eOUfpOkD7-12">
          <mxGeometry y="138" width="160" height="26" as="geometry" />
        </mxCell>
        <mxCell id="NTe5a28m2p0eOUfpOkD7-25" value="# UpdateEmail(email)" style="text;strokeColor=none;fillColor=none;align=left;verticalAlign=top;spacingLeft=4;spacingRight=4;overflow=hidden;rotatable=0;points=[[0,0.5],[1,0.5]];portConstraint=eastwest;" vertex="1" parent="NTe5a28m2p0eOUfpOkD7-12">
          <mxGeometry y="164" width="160" height="26" as="geometry" />
        </mxCell>
        <mxCell id="NTe5a28m2p0eOUfpOkD7-26" value="# UploadImage(image)" style="text;strokeColor=none;fillColor=none;align=left;verticalAlign=top;spacingLeft=4;spacingRight=4;overflow=hidden;rotatable=0;points=[[0,0.5],[1,0.5]];portConstraint=eastwest;" vertex="1" parent="NTe5a28m2p0eOUfpOkD7-12">
          <mxGeometry y="190" width="160" height="26" as="geometry" />
        </mxCell>
        <mxCell id="NTe5a28m2p0eOUfpOkD7-27" value="# UpdatePaymentInfo(info)" style="text;strokeColor=none;fillColor=none;align=left;verticalAlign=top;spacingLeft=4;spacingRight=4;overflow=hidden;rotatable=0;points=[[0,0.5],[1,0.5]];portConstraint=eastwest;" vertex="1" parent="NTe5a28m2p0eOUfpOkD7-12">
          <mxGeometry y="216" width="160" height="26" as="geometry" />
        </mxCell>
        <mxCell id="NTe5a28m2p0eOUfpOkD7-28" value="# DeleteAccount()" style="text;strokeColor=none;fillColor=none;align=left;verticalAlign=top;spacingLeft=4;spacingRight=4;overflow=hidden;rotatable=0;points=[[0,0.5],[1,0.5]];portConstraint=eastwest;" vertex="1" parent="NTe5a28m2p0eOUfpOkD7-12">
          <mxGeometry y="242" width="160" height="26" as="geometry" />
        </mxCell>
        <mxCell id="NTe5a28m2p0eOUfpOkD7-15" style="edgeStyle=orthogonalEdgeStyle;rounded=0;orthogonalLoop=1;jettySize=auto;html=1;exitX=0.5;exitY=0;exitDx=0;exitDy=0;entryX=0.5;entryY=1;entryDx=0;entryDy=0;fontColor=#E01B84;endArrow=block;endFill=0;strokeColor=#283592;" edge="1" parent="wxooSHnF6QyXdMB0OCFC-1" source="NTe5a28m2p0eOUfpOkD7-12" target="NTe5a28m2p0eOUfpOkD7-0">
          <mxGeometry relative="1" as="geometry" />
        </mxCell>
        <mxCell id="NTe5a28m2p0eOUfpOkD7-31" value="Worker" style="swimlane;fontStyle=1;align=center;verticalAlign=top;childLayout=stackLayout;horizontal=1;startSize=26;horizontalStack=0;resizeParent=1;resizeParentMax=0;resizeLast=0;collapsible=1;marginBottom=0;strokeColor=#283592;fontColor=#E01B84;rounded=1;" vertex="1" parent="wxooSHnF6QyXdMB0OCFC-1">
          <mxGeometry x="230" y="160" width="160" height="242" as="geometry" />
        </mxCell>
        <mxCell id="NTe5a28m2p0eOUfpOkD7-39" value="- AttendanceHistory: List[Spaces]" style="text;strokeColor=none;fillColor=none;align=left;verticalAlign=top;spacingLeft=4;spacingRight=4;overflow=hidden;rotatable=0;points=[[0,0.5],[1,0.5]];portConstraint=eastwest;whiteSpace=wrap;" vertex="1" parent="NTe5a28m2p0eOUfpOkD7-31">
          <mxGeometry y="26" width="160" height="38" as="geometry" />
        </mxCell>
        <mxCell id="NTe5a28m2p0eOUfpOkD7-40" value="+ JobType: Job" style="text;strokeColor=none;fillColor=none;align=left;verticalAlign=top;spacingLeft=4;spacingRight=4;overflow=hidden;rotatable=0;points=[[0,0.5],[1,0.5]];portConstraint=eastwest;whiteSpace=wrap;" vertex="1" parent="NTe5a28m2p0eOUfpOkD7-31">
          <mxGeometry y="64" width="160" height="26" as="geometry" />
        </mxCell>
        <mxCell id="NTe5a28m2p0eOUfpOkD7-65" value="- Calendar" style="text;strokeColor=none;fillColor=none;align=left;verticalAlign=top;spacingLeft=4;spacingRight=4;overflow=hidden;rotatable=0;points=[[0,0.5],[1,0.5]];portConstraint=eastwest;whiteSpace=wrap;" vertex="1" parent="NTe5a28m2p0eOUfpOkD7-31">
          <mxGeometry y="90" width="160" height="26" as="geometry" />
        </mxCell>
        <mxCell id="NTe5a28m2p0eOUfpOkD7-66" value="- UpcomingBookings: Booking[]" style="text;strokeColor=none;fillColor=none;align=left;verticalAlign=top;spacingLeft=4;spacingRight=4;overflow=hidden;rotatable=0;points=[[0,0.5],[1,0.5]];portConstraint=eastwest;whiteSpace=wrap;" vertex="1" parent="NTe5a28m2p0eOUfpOkD7-31">
          <mxGeometry y="116" width="160" height="34" as="geometry" />
        </mxCell>
        <mxCell id="NTe5a28m2p0eOUfpOkD7-33" value="" style="line;strokeWidth=1;fillColor=none;align=left;verticalAlign=middle;spacingTop=-1;spacingLeft=3;spacingRight=3;rotatable=0;labelPosition=right;points=[];portConstraint=eastwest;strokeColor=#283592;" vertex="1" parent="NTe5a28m2p0eOUfpOkD7-31">
          <mxGeometry y="150" width="160" height="8" as="geometry" />
        </mxCell>
        <mxCell id="NTe5a28m2p0eOUfpOkD7-30" value="- ViewHistory()" style="text;strokeColor=none;fillColor=none;align=left;verticalAlign=top;spacingLeft=4;spacingRight=4;overflow=hidden;rotatable=0;points=[[0,0.5],[1,0.5]];portConstraint=eastwest;" vertex="1" parent="NTe5a28m2p0eOUfpOkD7-31">
          <mxGeometry y="158" width="160" height="28" as="geometry" />
        </mxCell>
        <mxCell id="NTe5a28m2p0eOUfpOkD7-41" value="- EditJobType()" style="text;strokeColor=none;fillColor=none;align=left;verticalAlign=top;spacingLeft=4;spacingRight=4;overflow=hidden;rotatable=0;points=[[0,0.5],[1,0.5]];portConstraint=eastwest;" vertex="1" parent="NTe5a28m2p0eOUfpOkD7-31">
          <mxGeometry y="186" width="160" height="28" as="geometry" />
        </mxCell>
        <mxCell id="NTe5a28m2p0eOUfpOkD7-67" value="- ViewBookings()" style="text;strokeColor=none;fillColor=none;align=left;verticalAlign=top;spacingLeft=4;spacingRight=4;overflow=hidden;rotatable=0;points=[[0,0.5],[1,0.5]];portConstraint=eastwest;" vertex="1" parent="NTe5a28m2p0eOUfpOkD7-31">
          <mxGeometry y="214" width="160" height="28" as="geometry" />
        </mxCell>
        <mxCell id="NTe5a28m2p0eOUfpOkD7-42" value="Job" style="swimlane;fontStyle=1;align=center;verticalAlign=top;childLayout=stackLayout;horizontal=1;startSize=26;horizontalStack=0;resizeParent=1;resizeParentMax=0;resizeLast=0;collapsible=1;marginBottom=0;strokeColor=#283592;fontColor=#E01B84;rounded=1;" vertex="1" parent="wxooSHnF6QyXdMB0OCFC-1">
          <mxGeometry x="10" y="160" width="160" height="138" as="geometry" />
        </mxCell>
        <mxCell id="NTe5a28m2p0eOUfpOkD7-43" value="+ Name: String" style="text;strokeColor=none;fillColor=none;align=left;verticalAlign=top;spacingLeft=4;spacingRight=4;overflow=hidden;rotatable=0;points=[[0,0.5],[1,0.5]];portConstraint=eastwest;" vertex="1" parent="NTe5a28m2p0eOUfpOkD7-42">
          <mxGeometry y="26" width="160" height="26" as="geometry" />
        </mxCell>
        <mxCell id="NTe5a28m2p0eOUfpOkD7-47" value="+ Preferences: String[]" style="text;strokeColor=none;fillColor=none;align=left;verticalAlign=top;spacingLeft=4;spacingRight=4;overflow=hidden;rotatable=0;points=[[0,0.5],[1,0.5]];portConstraint=eastwest;" vertex="1" parent="NTe5a28m2p0eOUfpOkD7-42">
          <mxGeometry y="52" width="160" height="26" as="geometry" />
        </mxCell>
        <mxCell id="NTe5a28m2p0eOUfpOkD7-44" value="" style="line;strokeWidth=1;fillColor=none;align=left;verticalAlign=middle;spacingTop=-1;spacingLeft=3;spacingRight=3;rotatable=0;labelPosition=right;points=[];portConstraint=eastwest;strokeColor=#283592;" vertex="1" parent="NTe5a28m2p0eOUfpOkD7-42">
          <mxGeometry y="78" width="160" height="8" as="geometry" />
        </mxCell>
        <mxCell id="NTe5a28m2p0eOUfpOkD7-48" value="- EditName()" style="text;strokeColor=none;fillColor=none;align=left;verticalAlign=top;spacingLeft=4;spacingRight=4;overflow=hidden;rotatable=0;points=[[0,0.5],[1,0.5]];portConstraint=eastwest;" vertex="1" parent="NTe5a28m2p0eOUfpOkD7-42">
          <mxGeometry y="86" width="160" height="26" as="geometry" />
        </mxCell>
        <mxCell id="NTe5a28m2p0eOUfpOkD7-49" value="- EditPreferences()" style="text;strokeColor=none;fillColor=none;align=left;verticalAlign=top;spacingLeft=4;spacingRight=4;overflow=hidden;rotatable=0;points=[[0,0.5],[1,0.5]];portConstraint=eastwest;" vertex="1" parent="NTe5a28m2p0eOUfpOkD7-42">
          <mxGeometry y="112" width="160" height="26" as="geometry" />
        </mxCell>
        <mxCell id="NTe5a28m2p0eOUfpOkD7-46" style="edgeStyle=orthogonalEdgeStyle;rounded=0;orthogonalLoop=1;jettySize=auto;html=1;exitX=1;exitY=0.5;exitDx=0;exitDy=0;entryX=0;entryY=0.5;entryDx=0;entryDy=0;fontColor=#E01B84;endArrow=none;endFill=0;strokeColor=#283592;startArrow=open;startFill=0;dashed=1;" edge="1" parent="wxooSHnF6QyXdMB0OCFC-1" source="NTe5a28m2p0eOUfpOkD7-43">
          <mxGeometry relative="1" as="geometry">
            <mxPoint x="230" y="199" as="targetPoint" />
          </mxGeometry>
        </mxCell>
        <mxCell id="NTe5a28m2p0eOUfpOkD7-50" value="Space Provider" style="swimlane;fontStyle=1;align=center;verticalAlign=top;childLayout=stackLayout;horizontal=1;startSize=26;horizontalStack=0;resizeParent=1;resizeParentMax=0;resizeLast=0;collapsible=1;marginBottom=0;strokeColor=#283592;fontColor=#E01B84;rounded=1;" vertex="1" parent="wxooSHnF6QyXdMB0OCFC-1">
          <mxGeometry x="680" y="162" width="160" height="232" as="geometry" />
        </mxCell>
        <mxCell id="NTe5a28m2p0eOUfpOkD7-52" value="+ Spaces: Spaces[]" style="text;strokeColor=none;fillColor=none;align=left;verticalAlign=top;spacingLeft=4;spacingRight=4;overflow=hidden;rotatable=0;points=[[0,0.5],[1,0.5]];portConstraint=eastwest;whiteSpace=wrap;" vertex="1" parent="NTe5a28m2p0eOUfpOkD7-50">
          <mxGeometry y="26" width="160" height="34" as="geometry" />
        </mxCell>
        <mxCell id="NTe5a28m2p0eOUfpOkD7-53" value="+ Owner: Registered User[]" style="text;strokeColor=none;fillColor=none;align=left;verticalAlign=top;spacingLeft=4;spacingRight=4;overflow=hidden;rotatable=0;points=[[0,0.5],[1,0.5]];portConstraint=eastwest;whiteSpace=wrap;" vertex="1" parent="NTe5a28m2p0eOUfpOkD7-50">
          <mxGeometry y="60" width="160" height="26" as="geometry" />
        </mxCell>
        <mxCell id="NTe5a28m2p0eOUfpOkD7-60" value="+ Rating: Int" style="text;strokeColor=none;fillColor=none;align=left;verticalAlign=top;spacingLeft=4;spacingRight=4;overflow=hidden;rotatable=0;points=[[0,0.5],[1,0.5]];portConstraint=eastwest;whiteSpace=wrap;" vertex="1" parent="NTe5a28m2p0eOUfpOkD7-50">
          <mxGeometry y="86" width="160" height="26" as="geometry" />
        </mxCell>
        <mxCell id="NTe5a28m2p0eOUfpOkD7-54" value="" style="line;strokeWidth=1;fillColor=none;align=left;verticalAlign=middle;spacingTop=-1;spacingLeft=3;spacingRight=3;rotatable=0;labelPosition=right;points=[];portConstraint=eastwest;strokeColor=#283592;" vertex="1" parent="NTe5a28m2p0eOUfpOkD7-50">
          <mxGeometry y="112" width="160" height="8" as="geometry" />
        </mxCell>
        <mxCell id="NTe5a28m2p0eOUfpOkD7-55" value="- EditOwners()" style="text;strokeColor=none;fillColor=none;align=left;verticalAlign=top;spacingLeft=4;spacingRight=4;overflow=hidden;rotatable=0;points=[[0,0.5],[1,0.5]];portConstraint=eastwest;" vertex="1" parent="NTe5a28m2p0eOUfpOkD7-50">
          <mxGeometry y="120" width="160" height="28" as="geometry" />
        </mxCell>
        <mxCell id="NTe5a28m2p0eOUfpOkD7-56" value="+ ViewRating()" style="text;strokeColor=none;fillColor=none;align=left;verticalAlign=top;spacingLeft=4;spacingRight=4;overflow=hidden;rotatable=0;points=[[0,0.5],[1,0.5]];portConstraint=eastwest;" vertex="1" parent="NTe5a28m2p0eOUfpOkD7-50">
          <mxGeometry y="148" width="160" height="28" as="geometry" />
        </mxCell>
        <mxCell id="NTe5a28m2p0eOUfpOkD7-62" value="- AddSpace()" style="text;strokeColor=none;fillColor=none;align=left;verticalAlign=top;spacingLeft=4;spacingRight=4;overflow=hidden;rotatable=0;points=[[0,0.5],[1,0.5]];portConstraint=eastwest;" vertex="1" parent="NTe5a28m2p0eOUfpOkD7-50">
          <mxGeometry y="176" width="160" height="28" as="geometry" />
        </mxCell>
        <mxCell id="NTe5a28m2p0eOUfpOkD7-63" value="- RemoveSpace()" style="text;strokeColor=none;fillColor=none;align=left;verticalAlign=top;spacingLeft=4;spacingRight=4;overflow=hidden;rotatable=0;points=[[0,0.5],[1,0.5]];portConstraint=eastwest;" vertex="1" parent="NTe5a28m2p0eOUfpOkD7-50">
          <mxGeometry y="204" width="160" height="28" as="geometry" />
        </mxCell>
        <mxCell id="NTe5a28m2p0eOUfpOkD7-58" style="edgeStyle=orthogonalEdgeStyle;rounded=0;orthogonalLoop=1;jettySize=auto;html=1;exitX=1;exitY=0.5;exitDx=0;exitDy=0;entryX=-0.004;entryY=0.753;entryDx=0;entryDy=0;entryPerimeter=0;fontColor=#E01B84;endArrow=block;endFill=0;strokeColor=#283592;" edge="1" parent="wxooSHnF6QyXdMB0OCFC-1" source="NTe5a28m2p0eOUfpOkD7-39" target="NTe5a28m2p0eOUfpOkD7-16">
          <mxGeometry relative="1" as="geometry" />
        </mxCell>
        <mxCell id="NTe5a28m2p0eOUfpOkD7-59" style="edgeStyle=orthogonalEdgeStyle;rounded=0;orthogonalLoop=1;jettySize=auto;html=1;exitX=0;exitY=0.5;exitDx=0;exitDy=0;entryX=1.006;entryY=0.753;entryDx=0;entryDy=0;entryPerimeter=0;fontColor=#E01B84;endArrow=block;endFill=0;strokeColor=#283592;" edge="1" parent="wxooSHnF6QyXdMB0OCFC-1" source="NTe5a28m2p0eOUfpOkD7-52" target="NTe5a28m2p0eOUfpOkD7-16">
          <mxGeometry relative="1" as="geometry" />
        </mxCell>
        <mxCell id="HZQU3ItHJuRqybhnOOmt-0" value="Space" style="swimlane;fontStyle=1;align=center;verticalAlign=top;childLayout=stackLayout;horizontal=1;startSize=26;horizontalStack=0;resizeParent=1;resizeParentMax=0;resizeLast=0;collapsible=1;marginBottom=0;strokeColor=#283592;fontColor=#E01B84;rounded=1;" vertex="1" parent="wxooSHnF6QyXdMB0OCFC-1">
          <mxGeometry x="680" y="481" width="160" height="320" as="geometry" />
        </mxCell>
        <mxCell id="HZQU3ItHJuRqybhnOOmt-1" value="+ Name: String" style="text;strokeColor=none;fillColor=none;align=left;verticalAlign=top;spacingLeft=4;spacingRight=4;overflow=hidden;rotatable=0;points=[[0,0.5],[1,0.5]];portConstraint=eastwest;" vertex="1" parent="HZQU3ItHJuRqybhnOOmt-0">
          <mxGeometry y="26" width="160" height="26" as="geometry" />
        </mxCell>
        <mxCell id="HZQU3ItHJuRqybhnOOmt-2" value="+ ID: int" style="text;strokeColor=none;fillColor=none;align=left;verticalAlign=top;spacingLeft=4;spacingRight=4;overflow=hidden;rotatable=0;points=[[0,0.5],[1,0.5]];portConstraint=eastwest;" vertex="1" parent="HZQU3ItHJuRqybhnOOmt-0">
          <mxGeometry y="52" width="160" height="26" as="geometry" />
        </mxCell>
        <mxCell id="HZQU3ItHJuRqybhnOOmt-11" value="+ Location: String" style="text;strokeColor=none;fillColor=none;align=left;verticalAlign=top;spacingLeft=4;spacingRight=4;overflow=hidden;rotatable=0;points=[[0,0.5],[1,0.5]];portConstraint=eastwest;" vertex="1" parent="HZQU3ItHJuRqybhnOOmt-0">
          <mxGeometry y="78" width="160" height="26" as="geometry" />
        </mxCell>
        <mxCell id="HZQU3ItHJuRqybhnOOmt-12" value="+ Pricing: double" style="text;strokeColor=none;fillColor=none;align=left;verticalAlign=top;spacingLeft=4;spacingRight=4;overflow=hidden;rotatable=0;points=[[0,0.5],[1,0.5]];portConstraint=eastwest;" vertex="1" parent="HZQU3ItHJuRqybhnOOmt-0">
          <mxGeometry y="104" width="160" height="26" as="geometry" />
        </mxCell>
        <mxCell id="HZQU3ItHJuRqybhnOOmt-13" value="+ Offices: Offices[]" style="text;strokeColor=none;fillColor=none;align=left;verticalAlign=top;spacingLeft=4;spacingRight=4;overflow=hidden;rotatable=0;points=[[0,0.5],[1,0.5]];portConstraint=eastwest;" vertex="1" parent="HZQU3ItHJuRqybhnOOmt-0">
          <mxGeometry y="130" width="160" height="26" as="geometry" />
        </mxCell>
        <mxCell id="HZQU3ItHJuRqybhnOOmt-14" value="+ Amenities: String[]" style="text;strokeColor=none;fillColor=none;align=left;verticalAlign=top;spacingLeft=4;spacingRight=4;overflow=hidden;rotatable=0;points=[[0,0.5],[1,0.5]];portConstraint=eastwest;" vertex="1" parent="HZQU3ItHJuRqybhnOOmt-0">
          <mxGeometry y="156" width="160" height="26" as="geometry" />
        </mxCell>
        <mxCell id="HZQU3ItHJuRqybhnOOmt-35" value="+ Rating: int" style="text;strokeColor=none;fillColor=none;align=left;verticalAlign=top;spacingLeft=4;spacingRight=4;overflow=hidden;rotatable=0;points=[[0,0.5],[1,0.5]];portConstraint=eastwest;" vertex="1" parent="HZQU3ItHJuRqybhnOOmt-0">
          <mxGeometry y="182" width="160" height="26" as="geometry" />
        </mxCell>
        <mxCell id="HZQU3ItHJuRqybhnOOmt-3" value="" style="line;strokeWidth=1;fillColor=none;align=left;verticalAlign=middle;spacingTop=-1;spacingLeft=3;spacingRight=3;rotatable=0;labelPosition=right;points=[];portConstraint=eastwest;strokeColor=#283592;" vertex="1" parent="HZQU3ItHJuRqybhnOOmt-0">
          <mxGeometry y="208" width="160" height="8" as="geometry" />
        </mxCell>
        <mxCell id="HZQU3ItHJuRqybhnOOmt-4" value="- EditInfo(info)" style="text;strokeColor=none;fillColor=none;align=left;verticalAlign=top;spacingLeft=4;spacingRight=4;overflow=hidden;rotatable=0;points=[[0,0.5],[1,0.5]];portConstraint=eastwest;" vertex="1" parent="HZQU3ItHJuRqybhnOOmt-0">
          <mxGeometry y="216" width="160" height="26" as="geometry" />
        </mxCell>
        <mxCell id="HZQU3ItHJuRqybhnOOmt-5" value="- AddOffices()" style="text;strokeColor=none;fillColor=none;align=left;verticalAlign=top;spacingLeft=4;spacingRight=4;overflow=hidden;rotatable=0;points=[[0,0.5],[1,0.5]];portConstraint=eastwest;" vertex="1" parent="HZQU3ItHJuRqybhnOOmt-0">
          <mxGeometry y="242" width="160" height="26" as="geometry" />
        </mxCell>
        <mxCell id="HZQU3ItHJuRqybhnOOmt-15" value="- RemoveOffice()" style="text;strokeColor=none;fillColor=none;align=left;verticalAlign=top;spacingLeft=4;spacingRight=4;overflow=hidden;rotatable=0;points=[[0,0.5],[1,0.5]];portConstraint=eastwest;" vertex="1" parent="HZQU3ItHJuRqybhnOOmt-0">
          <mxGeometry y="268" width="160" height="26" as="geometry" />
        </mxCell>
        <mxCell id="HZQU3ItHJuRqybhnOOmt-16" value="+ BookOffice(Office, User)" style="text;strokeColor=none;fillColor=none;align=left;verticalAlign=top;spacingLeft=4;spacingRight=4;overflow=hidden;rotatable=0;points=[[0,0.5],[1,0.5]];portConstraint=eastwest;" vertex="1" parent="HZQU3ItHJuRqybhnOOmt-0">
          <mxGeometry y="294" width="160" height="26" as="geometry" />
        </mxCell>
        <mxCell id="HZQU3ItHJuRqybhnOOmt-7" value="" style="endArrow=diamondThin;endFill=0;endSize=24;html=1;rounded=0;dashed=1;fontColor=#E01B84;strokeColor=#283592;strokeWidth=1;exitX=0.5;exitY=0;exitDx=0;exitDy=0;entryX=0.5;entryY=1;entryDx=0;entryDy=0;" edge="1" parent="wxooSHnF6QyXdMB0OCFC-1" source="HZQU3ItHJuRqybhnOOmt-0" target="NTe5a28m2p0eOUfpOkD7-50">
          <mxGeometry width="160" relative="1" as="geometry">
            <mxPoint x="400" y="560" as="sourcePoint" />
            <mxPoint x="760" y="400" as="targetPoint" />
          </mxGeometry>
        </mxCell>
        <mxCell id="HZQU3ItHJuRqybhnOOmt-8" value="1" style="text;html=1;strokeColor=none;fillColor=none;align=center;verticalAlign=middle;whiteSpace=wrap;rounded=0;fontColor=#E01B84;" vertex="1" parent="wxooSHnF6QyXdMB0OCFC-1">
          <mxGeometry x="770" y="402" width="10" height="18" as="geometry" />
        </mxCell>
        <mxCell id="HZQU3ItHJuRqybhnOOmt-10" value="*" style="text;html=1;strokeColor=none;fillColor=none;align=center;verticalAlign=middle;whiteSpace=wrap;rounded=0;fontColor=#E01B84;" vertex="1" parent="wxooSHnF6QyXdMB0OCFC-1">
          <mxGeometry x="770" y="463" width="10" height="18" as="geometry" />
        </mxCell>
        <mxCell id="HZQU3ItHJuRqybhnOOmt-23" value="Premium" style="swimlane;fontStyle=1;align=center;verticalAlign=top;childLayout=stackLayout;horizontal=1;startSize=26;horizontalStack=0;resizeParent=1;resizeParentMax=0;resizeLast=0;collapsible=1;marginBottom=0;strokeColor=#283592;fontColor=#E01B84;rounded=1;" vertex="1" parent="wxooSHnF6QyXdMB0OCFC-1">
          <mxGeometry x="230" y="40" width="160" height="86" as="geometry" />
        </mxCell>
        <mxCell id="HZQU3ItHJuRqybhnOOmt-24" value="- Duration: int" style="text;strokeColor=none;fillColor=none;align=left;verticalAlign=top;spacingLeft=4;spacingRight=4;overflow=hidden;rotatable=0;points=[[0,0.5],[1,0.5]];portConstraint=eastwest;" vertex="1" parent="HZQU3ItHJuRqybhnOOmt-23">
          <mxGeometry y="26" width="160" height="26" as="geometry" />
        </mxCell>
        <mxCell id="HZQU3ItHJuRqybhnOOmt-28" value="- Fee: double" style="text;strokeColor=none;fillColor=none;align=left;verticalAlign=top;spacingLeft=4;spacingRight=4;overflow=hidden;rotatable=0;points=[[0,0.5],[1,0.5]];portConstraint=eastwest;" vertex="1" parent="HZQU3ItHJuRqybhnOOmt-23">
          <mxGeometry y="52" width="160" height="26" as="geometry" />
        </mxCell>
        <mxCell id="HZQU3ItHJuRqybhnOOmt-25" value="" style="line;strokeWidth=1;fillColor=none;align=left;verticalAlign=middle;spacingTop=-1;spacingLeft=3;spacingRight=3;rotatable=0;labelPosition=right;points=[];portConstraint=eastwest;strokeColor=#283592;" vertex="1" parent="HZQU3ItHJuRqybhnOOmt-23">
          <mxGeometry y="78" width="160" height="8" as="geometry" />
        </mxCell>
        <mxCell id="HZQU3ItHJuRqybhnOOmt-33" value="" style="endArrow=block;endFill=1;html=1;edgeStyle=orthogonalEdgeStyle;align=left;verticalAlign=top;rounded=0;dashed=1;fontColor=#E01B84;strokeColor=#283592;strokeWidth=1;entryX=0.5;entryY=0;entryDx=0;entryDy=0;exitX=0.5;exitY=0;exitDx=0;exitDy=0;" edge="1" parent="wxooSHnF6QyXdMB0OCFC-1" source="NTe5a28m2p0eOUfpOkD7-50" target="HZQU3ItHJuRqybhnOOmt-23">
          <mxGeometry x="-0.7647" y="-20" relative="1" as="geometry">
            <mxPoint x="320" y="170" as="sourcePoint" />
            <mxPoint x="320" y="135.9999999999999" as="targetPoint" />
            <Array as="points">
              <mxPoint x="760" y="20" />
              <mxPoint x="310" y="20" />
            </Array>
            <mxPoint as="offset" />
          </mxGeometry>
        </mxCell>
        <mxCell id="HZQU3ItHJuRqybhnOOmt-63" style="edgeStyle=orthogonalEdgeStyle;rounded=0;orthogonalLoop=1;jettySize=auto;html=1;exitX=0.5;exitY=0;exitDx=0;exitDy=0;entryX=0.5;entryY=1;entryDx=0;entryDy=0;entryPerimeter=0;fontColor=#E01B84;startArrow=none;startFill=0;endArrow=none;endFill=0;strokeColor=#283592;strokeWidth=1;" edge="1" parent="wxooSHnF6QyXdMB0OCFC-1" source="HZQU3ItHJuRqybhnOOmt-36" target="NTe5a28m2p0eOUfpOkD7-67">
          <mxGeometry relative="1" as="geometry" />
        </mxCell>
        <mxCell id="HZQU3ItHJuRqybhnOOmt-36" value="Booking" style="swimlane;fontStyle=1;align=center;verticalAlign=top;childLayout=stackLayout;horizontal=1;startSize=26;horizontalStack=0;resizeParent=1;resizeParentMax=0;resizeLast=0;collapsible=1;marginBottom=0;strokeColor=#283592;fontColor=#E01B84;rounded=1;" vertex="1" parent="wxooSHnF6QyXdMB0OCFC-1">
          <mxGeometry x="230" y="480" width="160" height="242" as="geometry" />
        </mxCell>
        <mxCell id="HZQU3ItHJuRqybhnOOmt-38" value="+ Date" style="text;strokeColor=none;fillColor=none;align=left;verticalAlign=top;spacingLeft=4;spacingRight=4;overflow=hidden;rotatable=0;points=[[0,0.5],[1,0.5]];portConstraint=eastwest;" vertex="1" parent="HZQU3ItHJuRqybhnOOmt-36">
          <mxGeometry y="26" width="160" height="26" as="geometry" />
        </mxCell>
        <mxCell id="HZQU3ItHJuRqybhnOOmt-66" value="+ Worker ID" style="text;strokeColor=none;fillColor=none;align=left;verticalAlign=top;spacingLeft=4;spacingRight=4;overflow=hidden;rotatable=0;points=[[0,0.5],[1,0.5]];portConstraint=eastwest;" vertex="1" parent="HZQU3ItHJuRqybhnOOmt-36">
          <mxGeometry y="52" width="160" height="26" as="geometry" />
        </mxCell>
        <mxCell id="HZQU3ItHJuRqybhnOOmt-67" value="+ Office ID" style="text;strokeColor=none;fillColor=none;align=left;verticalAlign=top;spacingLeft=4;spacingRight=4;overflow=hidden;rotatable=0;points=[[0,0.5],[1,0.5]];portConstraint=eastwest;" vertex="1" parent="HZQU3ItHJuRqybhnOOmt-36">
          <mxGeometry y="78" width="160" height="26" as="geometry" />
        </mxCell>
        <mxCell id="HZQU3ItHJuRqybhnOOmt-68" value="+ State" style="text;strokeColor=none;fillColor=none;align=left;verticalAlign=top;spacingLeft=4;spacingRight=4;overflow=hidden;rotatable=0;points=[[0,0.5],[1,0.5]];portConstraint=eastwest;" vertex="1" parent="HZQU3ItHJuRqybhnOOmt-36">
          <mxGeometry y="104" width="160" height="26" as="geometry" />
        </mxCell>
        <mxCell id="HZQU3ItHJuRqybhnOOmt-71" value="+ Cost" style="text;strokeColor=none;fillColor=none;align=left;verticalAlign=top;spacingLeft=4;spacingRight=4;overflow=hidden;rotatable=0;points=[[0,0.5],[1,0.5]];portConstraint=eastwest;" vertex="1" parent="HZQU3ItHJuRqybhnOOmt-36">
          <mxGeometry y="130" width="160" height="26" as="geometry" />
        </mxCell>
        <mxCell id="HZQU3ItHJuRqybhnOOmt-39" value="" style="line;strokeWidth=1;fillColor=none;align=left;verticalAlign=middle;spacingTop=-1;spacingLeft=3;spacingRight=3;rotatable=0;labelPosition=right;points=[];portConstraint=eastwest;strokeColor=#283592;" vertex="1" parent="HZQU3ItHJuRqybhnOOmt-36">
          <mxGeometry y="156" width="160" height="8" as="geometry" />
        </mxCell>
        <mxCell id="HZQU3ItHJuRqybhnOOmt-40" value="- getState()" style="text;strokeColor=none;fillColor=none;align=left;verticalAlign=top;spacingLeft=4;spacingRight=4;overflow=hidden;rotatable=0;points=[[0,0.5],[1,0.5]];portConstraint=eastwest;" vertex="1" parent="HZQU3ItHJuRqybhnOOmt-36">
          <mxGeometry y="164" width="160" height="26" as="geometry" />
        </mxCell>
        <mxCell id="HZQU3ItHJuRqybhnOOmt-69" value="- cancel()" style="text;strokeColor=none;fillColor=none;align=left;verticalAlign=top;spacingLeft=4;spacingRight=4;overflow=hidden;rotatable=0;points=[[0,0.5],[1,0.5]];portConstraint=eastwest;" vertex="1" parent="HZQU3ItHJuRqybhnOOmt-36">
          <mxGeometry y="190" width="160" height="26" as="geometry" />
        </mxCell>
        <mxCell id="HZQU3ItHJuRqybhnOOmt-70" value="- updateDate()" style="text;strokeColor=none;fillColor=none;align=left;verticalAlign=top;spacingLeft=4;spacingRight=4;overflow=hidden;rotatable=0;points=[[0,0.5],[1,0.5]];portConstraint=eastwest;" vertex="1" parent="HZQU3ItHJuRqybhnOOmt-36">
          <mxGeometry y="216" width="160" height="26" as="geometry" />
        </mxCell>
        <mxCell id="HZQU3ItHJuRqybhnOOmt-45" value="Office" style="swimlane;fontStyle=1;align=center;verticalAlign=top;childLayout=stackLayout;horizontal=1;startSize=26;horizontalStack=0;resizeParent=1;resizeParentMax=0;resizeLast=0;collapsible=1;marginBottom=0;strokeColor=#283592;fontColor=#E01B84;rounded=1;" vertex="1" parent="wxooSHnF6QyXdMB0OCFC-1">
          <mxGeometry x="450" y="480" width="160" height="242" as="geometry" />
        </mxCell>
        <mxCell id="HZQU3ItHJuRqybhnOOmt-46" value="# ID: int" style="text;strokeColor=none;fillColor=none;align=left;verticalAlign=top;spacingLeft=4;spacingRight=4;overflow=hidden;rotatable=0;points=[[0,0.5],[1,0.5]];portConstraint=eastwest;" vertex="1" parent="HZQU3ItHJuRqybhnOOmt-45">
          <mxGeometry y="26" width="160" height="26" as="geometry" />
        </mxCell>
        <mxCell id="HZQU3ItHJuRqybhnOOmt-47" value="+ Type: String" style="text;strokeColor=none;fillColor=none;align=left;verticalAlign=top;spacingLeft=4;spacingRight=4;overflow=hidden;rotatable=0;points=[[0,0.5],[1,0.5]];portConstraint=eastwest;" vertex="1" parent="HZQU3ItHJuRqybhnOOmt-45">
          <mxGeometry y="52" width="160" height="26" as="geometry" />
        </mxCell>
        <mxCell id="HZQU3ItHJuRqybhnOOmt-52" value="# Historic" style="text;strokeColor=none;fillColor=none;align=left;verticalAlign=top;spacingLeft=4;spacingRight=4;overflow=hidden;rotatable=0;points=[[0,0.5],[1,0.5]];portConstraint=eastwest;" vertex="1" parent="HZQU3ItHJuRqybhnOOmt-45">
          <mxGeometry y="78" width="160" height="26" as="geometry" />
        </mxCell>
        <mxCell id="HZQU3ItHJuRqybhnOOmt-53" value="- Calendar" style="text;strokeColor=none;fillColor=none;align=left;verticalAlign=top;spacingLeft=4;spacingRight=4;overflow=hidden;rotatable=0;points=[[0,0.5],[1,0.5]];portConstraint=eastwest;" vertex="1" parent="HZQU3ItHJuRqybhnOOmt-45">
          <mxGeometry y="104" width="160" height="26" as="geometry" />
        </mxCell>
        <mxCell id="HZQU3ItHJuRqybhnOOmt-48" value="" style="line;strokeWidth=1;fillColor=none;align=left;verticalAlign=middle;spacingTop=-1;spacingLeft=3;spacingRight=3;rotatable=0;labelPosition=right;points=[];portConstraint=eastwest;strokeColor=#283592;" vertex="1" parent="HZQU3ItHJuRqybhnOOmt-45">
          <mxGeometry y="130" width="160" height="8" as="geometry" />
        </mxCell>
        <mxCell id="HZQU3ItHJuRqybhnOOmt-49" value="- Book()" style="text;strokeColor=none;fillColor=none;align=left;verticalAlign=top;spacingLeft=4;spacingRight=4;overflow=hidden;rotatable=0;points=[[0,0.5],[1,0.5]];portConstraint=eastwest;" vertex="1" parent="HZQU3ItHJuRqybhnOOmt-45">
          <mxGeometry y="138" width="160" height="26" as="geometry" />
        </mxCell>
        <mxCell id="HZQU3ItHJuRqybhnOOmt-50" value="- Historic()" style="text;strokeColor=none;fillColor=none;align=left;verticalAlign=top;spacingLeft=4;spacingRight=4;overflow=hidden;rotatable=0;points=[[0,0.5],[1,0.5]];portConstraint=eastwest;" vertex="1" parent="HZQU3ItHJuRqybhnOOmt-45">
          <mxGeometry y="164" width="160" height="26" as="geometry" />
        </mxCell>
        <mxCell id="HZQU3ItHJuRqybhnOOmt-51" value="- getCalendar()" style="text;strokeColor=none;fillColor=none;align=left;verticalAlign=top;spacingLeft=4;spacingRight=4;overflow=hidden;rotatable=0;points=[[0,0.5],[1,0.5]];portConstraint=eastwest;" vertex="1" parent="HZQU3ItHJuRqybhnOOmt-45">
          <mxGeometry y="190" width="160" height="26" as="geometry" />
        </mxCell>
        <mxCell id="HZQU3ItHJuRqybhnOOmt-54" value="- EditType" style="text;strokeColor=none;fillColor=none;align=left;verticalAlign=top;spacingLeft=4;spacingRight=4;overflow=hidden;rotatable=0;points=[[0,0.5],[1,0.5]];portConstraint=eastwest;" vertex="1" parent="HZQU3ItHJuRqybhnOOmt-45">
          <mxGeometry y="216" width="160" height="26" as="geometry" />
        </mxCell>
        <mxCell id="HZQU3ItHJuRqybhnOOmt-55" value="" style="endArrow=diamondThin;endFill=0;endSize=24;html=1;rounded=0;dashed=1;fontColor=#E01B84;strokeColor=#283592;strokeWidth=1;exitX=1;exitY=0.5;exitDx=0;exitDy=0;entryX=0;entryY=0.5;entryDx=0;entryDy=0;" edge="1" parent="wxooSHnF6QyXdMB0OCFC-1" source="HZQU3ItHJuRqybhnOOmt-46" target="HZQU3ItHJuRqybhnOOmt-1">
          <mxGeometry width="160" relative="1" as="geometry">
            <mxPoint x="630" y="515.5" as="sourcePoint" />
            <mxPoint x="630" y="428.5" as="targetPoint" />
          </mxGeometry>
        </mxCell>
        <mxCell id="HZQU3ItHJuRqybhnOOmt-56" value="1" style="text;html=1;strokeColor=none;fillColor=none;align=center;verticalAlign=middle;whiteSpace=wrap;rounded=0;fontColor=#E01B84;" vertex="1" parent="wxooSHnF6QyXdMB0OCFC-1">
          <mxGeometry x="670" y="497.5" width="10" height="18" as="geometry" />
        </mxCell>
        <mxCell id="HZQU3ItHJuRqybhnOOmt-57" value="*" style="text;html=1;strokeColor=none;fillColor=none;align=center;verticalAlign=middle;whiteSpace=wrap;rounded=0;fontColor=#E01B84;" vertex="1" parent="wxooSHnF6QyXdMB0OCFC-1">
          <mxGeometry x="610" y="503" width="20" height="12.5" as="geometry" />
        </mxCell>
        <mxCell id="HZQU3ItHJuRqybhnOOmt-59" style="edgeStyle=orthogonalEdgeStyle;rounded=0;orthogonalLoop=1;jettySize=auto;html=1;exitX=1;exitY=0.5;exitDx=0;exitDy=0;entryX=0;entryY=0.5;entryDx=0;entryDy=0;fontColor=#E01B84;startArrow=none;startFill=0;endArrow=none;endFill=0;strokeColor=#283592;strokeWidth=1;" edge="1" parent="wxooSHnF6QyXdMB0OCFC-1" source="HZQU3ItHJuRqybhnOOmt-38" target="HZQU3ItHJuRqybhnOOmt-46">
          <mxGeometry relative="1" as="geometry" />
        </mxCell>
        <mxCell id="HZQU3ItHJuRqybhnOOmt-60" value="1" style="text;html=1;strokeColor=none;fillColor=none;align=center;verticalAlign=middle;whiteSpace=wrap;rounded=0;fontColor=#E01B84;" vertex="1" parent="wxooSHnF6QyXdMB0OCFC-1">
          <mxGeometry x="440" y="500.25" width="10" height="18" as="geometry" />
        </mxCell>
        <mxCell id="HZQU3ItHJuRqybhnOOmt-61" value="*" style="text;html=1;strokeColor=none;fillColor=none;align=center;verticalAlign=middle;whiteSpace=wrap;rounded=0;fontColor=#E01B84;" vertex="1" parent="wxooSHnF6QyXdMB0OCFC-1">
          <mxGeometry x="390" y="505.75" width="20" height="12.5" as="geometry" />
        </mxCell>
        <mxCell id="HZQU3ItHJuRqybhnOOmt-62" value="" style="endArrow=block;endFill=1;html=1;edgeStyle=orthogonalEdgeStyle;align=left;verticalAlign=top;rounded=0;dashed=1;fontColor=#E01B84;strokeColor=#283592;strokeWidth=1;entryX=0.5;entryY=1;entryDx=0;entryDy=0;exitX=0.5;exitY=0;exitDx=0;exitDy=0;" edge="1" parent="wxooSHnF6QyXdMB0OCFC-1" source="NTe5a28m2p0eOUfpOkD7-31" target="HZQU3ItHJuRqybhnOOmt-23">
          <mxGeometry x="0.1765" relative="1" as="geometry">
            <mxPoint x="770" y="172" as="sourcePoint" />
            <mxPoint x="320" y="50" as="targetPoint" />
            <Array as="points">
              <mxPoint x="310" y="130" />
              <mxPoint x="310" y="130" />
            </Array>
            <mxPoint as="offset" />
          </mxGeometry>
        </mxCell>
        <mxCell id="HZQU3ItHJuRqybhnOOmt-64" value="1" style="text;html=1;strokeColor=none;fillColor=none;align=center;verticalAlign=middle;whiteSpace=wrap;rounded=0;fontColor=#E01B84;" vertex="1" parent="wxooSHnF6QyXdMB0OCFC-1">
          <mxGeometry x="310" y="402" width="10" height="18" as="geometry" />
        </mxCell>
        <mxCell id="HZQU3ItHJuRqybhnOOmt-65" value="*" style="text;html=1;strokeColor=none;fillColor=none;align=center;verticalAlign=middle;whiteSpace=wrap;rounded=0;fontColor=#E01B84;" vertex="1" parent="wxooSHnF6QyXdMB0OCFC-1">
          <mxGeometry x="310" y="465.75" width="20" height="12.5" as="geometry" />
        </mxCell>
        <mxCell id="HZQU3ItHJuRqybhnOOmt-72" value="Payment" style="swimlane;fontStyle=1;align=center;verticalAlign=top;childLayout=stackLayout;horizontal=1;startSize=26;horizontalStack=0;resizeParent=1;resizeParentMax=0;resizeLast=0;collapsible=1;marginBottom=0;strokeColor=#283592;fontColor=#E01B84;rounded=1;" vertex="1" parent="wxooSHnF6QyXdMB0OCFC-1">
          <mxGeometry x="10" y="480" width="160" height="164" as="geometry" />
        </mxCell>
        <mxCell id="HZQU3ItHJuRqybhnOOmt-73" value="+ Date" style="text;strokeColor=none;fillColor=none;align=left;verticalAlign=top;spacingLeft=4;spacingRight=4;overflow=hidden;rotatable=0;points=[[0,0.5],[1,0.5]];portConstraint=eastwest;" vertex="1" parent="HZQU3ItHJuRqybhnOOmt-72">
          <mxGeometry y="26" width="160" height="26" as="geometry" />
        </mxCell>
        <mxCell id="HZQU3ItHJuRqybhnOOmt-74" value="+ Amount" style="text;strokeColor=none;fillColor=none;align=left;verticalAlign=top;spacingLeft=4;spacingRight=4;overflow=hidden;rotatable=0;points=[[0,0.5],[1,0.5]];portConstraint=eastwest;" vertex="1" parent="HZQU3ItHJuRqybhnOOmt-72">
          <mxGeometry y="52" width="160" height="26" as="geometry" />
        </mxCell>
        <mxCell id="HZQU3ItHJuRqybhnOOmt-95" value="- State" style="text;strokeColor=none;fillColor=none;align=left;verticalAlign=top;spacingLeft=4;spacingRight=4;overflow=hidden;rotatable=0;points=[[0,0.5],[1,0.5]];portConstraint=eastwest;" vertex="1" parent="HZQU3ItHJuRqybhnOOmt-72">
          <mxGeometry y="78" width="160" height="26" as="geometry" />
        </mxCell>
        <mxCell id="HZQU3ItHJuRqybhnOOmt-78" value="" style="line;strokeWidth=1;fillColor=none;align=left;verticalAlign=middle;spacingTop=-1;spacingLeft=3;spacingRight=3;rotatable=0;labelPosition=right;points=[];portConstraint=eastwest;strokeColor=#283592;" vertex="1" parent="HZQU3ItHJuRqybhnOOmt-72">
          <mxGeometry y="104" width="160" height="8" as="geometry" />
        </mxCell>
        <mxCell id="HZQU3ItHJuRqybhnOOmt-79" value="- getState()" style="text;strokeColor=none;fillColor=none;align=left;verticalAlign=top;spacingLeft=4;spacingRight=4;overflow=hidden;rotatable=0;points=[[0,0.5],[1,0.5]];portConstraint=eastwest;" vertex="1" parent="HZQU3ItHJuRqybhnOOmt-72">
          <mxGeometry y="112" width="160" height="26" as="geometry" />
        </mxCell>
        <mxCell id="HZQU3ItHJuRqybhnOOmt-80" value="- cancel()" style="text;strokeColor=none;fillColor=none;align=left;verticalAlign=top;spacingLeft=4;spacingRight=4;overflow=hidden;rotatable=0;points=[[0,0.5],[1,0.5]];portConstraint=eastwest;" vertex="1" parent="HZQU3ItHJuRqybhnOOmt-72">
          <mxGeometry y="138" width="160" height="26" as="geometry" />
        </mxCell>
        <mxCell id="HZQU3ItHJuRqybhnOOmt-82" style="edgeStyle=orthogonalEdgeStyle;rounded=0;orthogonalLoop=1;jettySize=auto;html=1;fontColor=#E01B84;endArrow=none;endFill=0;strokeColor=#283592;startArrow=open;startFill=0;dashed=1;exitX=1;exitY=0.5;exitDx=0;exitDy=0;entryX=0;entryY=0.5;entryDx=0;entryDy=0;" edge="1" parent="wxooSHnF6QyXdMB0OCFC-1" source="HZQU3ItHJuRqybhnOOmt-73" target="HZQU3ItHJuRqybhnOOmt-38">
          <mxGeometry relative="1" as="geometry">
            <mxPoint x="170" y="519" as="sourcePoint" />
            <mxPoint x="210" y="520" as="targetPoint" />
          </mxGeometry>
        </mxCell>
      </root>
    </mxGraphModel>
  </diagram>
  <diagram id="HerWaRR4fosUu1pSUeQV" name="Use Case">
    <mxGraphModel dx="784" dy="748" grid="1" gridSize="10" guides="1" tooltips="1" connect="1" arrows="1" fold="1" page="1" pageScale="1" pageWidth="827" pageHeight="1169" math="0" shadow="0">
      <root>
        <mxCell id="0" />
        <mxCell id="1" parent="0" />
        <mxCell id="7Ho1O0npHEuM6Ab0vZdr-1" value="" style="rounded=0;whiteSpace=wrap;html=1;fillColor=none;strokeColor=#283592;strokeWidth=2;" parent="1" vertex="1">
          <mxGeometry x="161" y="39" width="520" height="1090" as="geometry" />
        </mxCell>
        <mxCell id="si8uyoqPotG8R0U7-kR5-7" style="edgeStyle=orthogonalEdgeStyle;rounded=0;orthogonalLoop=1;jettySize=auto;html=1;exitX=0.5;exitY=0.5;exitDx=0;exitDy=0;exitPerimeter=0;entryX=0;entryY=0.5;entryDx=0;entryDy=0;fontSize=14;fontColor=#E01B84;strokeColor=#E01B84;endArrow=none;endFill=0;" parent="1" source="si8uyoqPotG8R0U7-kR5-6" target="0Z-lsKHnC-HnBV5NZcCl-4" edge="1">
          <mxGeometry relative="1" as="geometry">
            <mxPoint x="100.00000000000011" y="554" as="sourcePoint" />
            <Array as="points">
              <mxPoint x="200" y="585" />
              <mxPoint x="200" y="134" />
              <mxPoint x="360" y="134" />
            </Array>
          </mxGeometry>
        </mxCell>
        <mxCell id="si8uyoqPotG8R0U7-kR5-10" style="edgeStyle=orthogonalEdgeStyle;rounded=0;orthogonalLoop=1;jettySize=auto;html=1;exitX=0.5;exitY=0.5;exitDx=0;exitDy=0;exitPerimeter=0;entryX=0.5;entryY=0;entryDx=0;entryDy=0;fontSize=14;fontColor=#E01B84;startArrow=none;startFill=0;endArrow=none;endFill=0;strokeColor=#E01B84;" parent="1" source="si8uyoqPotG8R0U7-kR5-6" target="si8uyoqPotG8R0U7-kR5-3" edge="1">
          <mxGeometry relative="1" as="geometry">
            <mxPoint x="100.00000000000011" y="554" as="sourcePoint" />
            <Array as="points">
              <mxPoint x="200" y="585" />
              <mxPoint x="200" y="79" />
              <mxPoint x="545" y="79" />
              <mxPoint x="545" y="189" />
              <mxPoint x="540" y="189" />
            </Array>
          </mxGeometry>
        </mxCell>
        <mxCell id="si8uyoqPotG8R0U7-kR5-16" style="edgeStyle=orthogonalEdgeStyle;rounded=0;orthogonalLoop=1;jettySize=auto;html=1;exitX=0.5;exitY=0.5;exitDx=0;exitDy=0;exitPerimeter=0;entryX=0;entryY=0.5;entryDx=0;entryDy=0;fontSize=14;fontColor=#E01B84;startArrow=none;startFill=0;endArrow=none;endFill=0;strokeColor=#E01B84;" parent="1" source="si8uyoqPotG8R0U7-kR5-6" target="si8uyoqPotG8R0U7-kR5-11" edge="1">
          <mxGeometry relative="1" as="geometry">
            <mxPoint x="100.00000000000011" y="554" as="sourcePoint" />
            <Array as="points">
              <mxPoint x="200" y="585" />
              <mxPoint x="200" y="219" />
              <mxPoint x="240" y="219" />
            </Array>
          </mxGeometry>
        </mxCell>
        <mxCell id="si8uyoqPotG8R0U7-kR5-20" style="edgeStyle=orthogonalEdgeStyle;rounded=0;orthogonalLoop=1;jettySize=auto;html=1;exitX=0.5;exitY=0.5;exitDx=0;exitDy=0;exitPerimeter=0;entryX=0;entryY=0.5;entryDx=0;entryDy=0;fontSize=14;fontColor=#E01B84;startArrow=none;startFill=0;endArrow=none;endFill=0;strokeColor=#E01B84;" parent="1" source="si8uyoqPotG8R0U7-kR5-6" target="si8uyoqPotG8R0U7-kR5-17" edge="1">
          <mxGeometry relative="1" as="geometry">
            <mxPoint x="100.00000000000011" y="554" as="sourcePoint" />
            <Array as="points">
              <mxPoint x="200" y="585" />
              <mxPoint x="200" y="299" />
              <mxPoint x="360" y="299" />
            </Array>
          </mxGeometry>
        </mxCell>
        <mxCell id="si8uyoqPotG8R0U7-kR5-25" style="edgeStyle=orthogonalEdgeStyle;rounded=0;orthogonalLoop=1;jettySize=auto;html=1;exitX=0.5;exitY=0.5;exitDx=0;exitDy=0;exitPerimeter=0;entryX=0.5;entryY=1;entryDx=0;entryDy=0;fontSize=14;fontColor=#E01B84;startArrow=none;startFill=0;endArrow=none;endFill=0;strokeColor=#E01B84;" parent="1" source="si8uyoqPotG8R0U7-kR5-6" target="si8uyoqPotG8R0U7-kR5-24" edge="1">
          <mxGeometry relative="1" as="geometry">
            <mxPoint x="100.00000000000011" y="554" as="sourcePoint" />
            <Array as="points">
              <mxPoint x="200" y="585" />
              <mxPoint x="200" y="400" />
              <mxPoint x="300" y="400" />
            </Array>
          </mxGeometry>
        </mxCell>
        <mxCell id="si8uyoqPotG8R0U7-kR5-48" style="edgeStyle=orthogonalEdgeStyle;rounded=0;orthogonalLoop=1;jettySize=auto;html=1;exitX=0.5;exitY=0.5;exitDx=0;exitDy=0;exitPerimeter=0;entryX=0;entryY=0;entryDx=0;entryDy=0;fontSize=14;fontColor=#E01B84;startArrow=none;startFill=0;endArrow=none;endFill=0;strokeColor=#E01B84;" parent="1" source="si8uyoqPotG8R0U7-kR5-6" target="si8uyoqPotG8R0U7-kR5-47" edge="1">
          <mxGeometry relative="1" as="geometry">
            <Array as="points">
              <mxPoint x="200" y="585" />
              <mxPoint x="200" y="790" />
              <mxPoint x="370" y="790" />
              <mxPoint x="370" y="810" />
              <mxPoint x="497" y="810" />
            </Array>
          </mxGeometry>
        </mxCell>
        <mxCell id="si8uyoqPotG8R0U7-kR5-51" style="edgeStyle=orthogonalEdgeStyle;rounded=0;orthogonalLoop=1;jettySize=auto;html=1;exitX=0.5;exitY=0.5;exitDx=0;exitDy=0;exitPerimeter=0;entryX=0;entryY=0.5;entryDx=0;entryDy=0;fontSize=14;fontColor=#E01B84;startArrow=none;startFill=0;endArrow=none;endFill=0;strokeColor=#E01B84;" parent="1" source="si8uyoqPotG8R0U7-kR5-6" target="si8uyoqPotG8R0U7-kR5-50" edge="1">
          <mxGeometry relative="1" as="geometry">
            <Array as="points">
              <mxPoint x="200" y="585" />
              <mxPoint x="200" y="880" />
            </Array>
          </mxGeometry>
        </mxCell>
        <mxCell id="si8uyoqPotG8R0U7-kR5-55" style="edgeStyle=orthogonalEdgeStyle;rounded=0;orthogonalLoop=1;jettySize=auto;html=1;exitX=0.5;exitY=0.5;exitDx=0;exitDy=0;exitPerimeter=0;entryX=0;entryY=0.5;entryDx=0;entryDy=0;fontSize=14;fontColor=#E01B84;startArrow=none;startFill=0;endArrow=none;endFill=0;strokeColor=#E01B84;" parent="1" source="si8uyoqPotG8R0U7-kR5-6" target="si8uyoqPotG8R0U7-kR5-53" edge="1">
          <mxGeometry relative="1" as="geometry">
            <Array as="points">
              <mxPoint x="200" y="585" />
              <mxPoint x="200" y="920" />
            </Array>
          </mxGeometry>
        </mxCell>
        <mxCell id="si8uyoqPotG8R0U7-kR5-63" style="edgeStyle=orthogonalEdgeStyle;rounded=0;orthogonalLoop=1;jettySize=auto;html=1;exitX=0.5;exitY=0.5;exitDx=0;exitDy=0;exitPerimeter=0;entryX=0;entryY=0.5;entryDx=0;entryDy=0;fontSize=14;fontColor=#E01B84;startArrow=none;startFill=0;endArrow=none;endFill=0;strokeColor=#E01B84;" parent="1" source="si8uyoqPotG8R0U7-kR5-6" target="si8uyoqPotG8R0U7-kR5-56" edge="1">
          <mxGeometry relative="1" as="geometry">
            <Array as="points">
              <mxPoint x="200" y="585" />
              <mxPoint x="200" y="970" />
            </Array>
          </mxGeometry>
        </mxCell>
        <mxCell id="si8uyoqPotG8R0U7-kR5-64" style="edgeStyle=orthogonalEdgeStyle;rounded=0;orthogonalLoop=1;jettySize=auto;html=1;exitX=0.5;exitY=0.5;exitDx=0;exitDy=0;exitPerimeter=0;entryX=0;entryY=0.5;entryDx=0;entryDy=0;fontSize=14;fontColor=#E01B84;startArrow=none;startFill=0;endArrow=none;endFill=0;strokeColor=#E01B84;" parent="1" source="si8uyoqPotG8R0U7-kR5-6" target="si8uyoqPotG8R0U7-kR5-60" edge="1">
          <mxGeometry relative="1" as="geometry">
            <Array as="points">
              <mxPoint x="200" y="585" />
              <mxPoint x="200" y="1050" />
            </Array>
          </mxGeometry>
        </mxCell>
        <mxCell id="si8uyoqPotG8R0U7-kR5-66" style="edgeStyle=orthogonalEdgeStyle;rounded=0;orthogonalLoop=1;jettySize=auto;html=1;exitX=0.5;exitY=0.5;exitDx=0;exitDy=0;exitPerimeter=0;entryX=0.5;entryY=1;entryDx=0;entryDy=0;fontSize=14;fontColor=#E01B84;startArrow=none;startFill=0;endArrow=none;endFill=0;strokeColor=#E01B84;" parent="1" source="si8uyoqPotG8R0U7-kR5-6" target="si8uyoqPotG8R0U7-kR5-57" edge="1">
          <mxGeometry relative="1" as="geometry">
            <Array as="points">
              <mxPoint x="200" y="585" />
              <mxPoint x="200" y="1090" />
              <mxPoint x="540" y="1090" />
            </Array>
          </mxGeometry>
        </mxCell>
        <mxCell id="si8uyoqPotG8R0U7-kR5-6" value="User" style="shape=umlActor;verticalLabelPosition=bottom;verticalAlign=top;html=1;outlineConnect=0;fontSize=14;fontColor=#E01B84;strokeColor=#283592;strokeWidth=2;fillColor=#C0C8FF;" parent="1" vertex="1">
          <mxGeometry x="80" y="550" width="40" height="70" as="geometry" />
        </mxCell>
        <mxCell id="si8uyoqPotG8R0U7-kR5-31" style="edgeStyle=orthogonalEdgeStyle;rounded=0;orthogonalLoop=1;jettySize=auto;html=1;exitX=0.5;exitY=0.5;exitDx=0;exitDy=0;exitPerimeter=0;entryX=1;entryY=0.5;entryDx=0;entryDy=0;fontSize=14;fontColor=#E01B84;startArrow=none;startFill=0;endArrow=none;endFill=0;strokeColor=#E01B84;" parent="1" source="si8uyoqPotG8R0U7-kR5-26" target="si8uyoqPotG8R0U7-kR5-27" edge="1">
          <mxGeometry relative="1" as="geometry">
            <mxPoint x="750" y="525" as="sourcePoint" />
            <Array as="points">
              <mxPoint x="640" y="585" />
              <mxPoint x="640" y="470" />
              <mxPoint x="481" y="470" />
            </Array>
          </mxGeometry>
        </mxCell>
        <mxCell id="si8uyoqPotG8R0U7-kR5-32" style="edgeStyle=orthogonalEdgeStyle;rounded=0;orthogonalLoop=1;jettySize=auto;html=1;exitX=0.5;exitY=0.5;exitDx=0;exitDy=0;exitPerimeter=0;entryX=0.5;entryY=0;entryDx=0;entryDy=0;fontSize=14;fontColor=#E01B84;startArrow=none;startFill=0;endArrow=none;endFill=0;strokeColor=#E01B84;" parent="1" source="si8uyoqPotG8R0U7-kR5-26" target="si8uyoqPotG8R0U7-kR5-28" edge="1">
          <mxGeometry relative="1" as="geometry">
            <mxPoint x="750" y="525" as="sourcePoint" />
            <Array as="points">
              <mxPoint x="640" y="585" />
              <mxPoint x="640" y="420" />
              <mxPoint x="297" y="420" />
            </Array>
          </mxGeometry>
        </mxCell>
        <mxCell id="si8uyoqPotG8R0U7-kR5-36" style="edgeStyle=orthogonalEdgeStyle;rounded=0;orthogonalLoop=1;jettySize=auto;html=1;exitX=0.5;exitY=0.5;exitDx=0;exitDy=0;exitPerimeter=0;entryX=1;entryY=0.5;entryDx=0;entryDy=0;fontSize=14;fontColor=#E01B84;startArrow=none;startFill=0;endArrow=none;endFill=0;strokeColor=#E01B84;" parent="1" source="si8uyoqPotG8R0U7-kR5-26" target="si8uyoqPotG8R0U7-kR5-33" edge="1">
          <mxGeometry relative="1" as="geometry">
            <mxPoint x="750" y="525" as="sourcePoint" />
            <Array as="points">
              <mxPoint x="640" y="585" />
              <mxPoint x="640" y="550" />
              <mxPoint x="601" y="550" />
            </Array>
          </mxGeometry>
        </mxCell>
        <mxCell id="si8uyoqPotG8R0U7-kR5-44" style="edgeStyle=orthogonalEdgeStyle;rounded=0;orthogonalLoop=1;jettySize=auto;html=1;exitX=0.5;exitY=0.5;exitDx=0;exitDy=0;exitPerimeter=0;entryX=1;entryY=0.5;entryDx=0;entryDy=0;fontSize=14;fontColor=#E01B84;startArrow=none;startFill=0;endArrow=none;endFill=0;strokeColor=#E01B84;" parent="1" source="si8uyoqPotG8R0U7-kR5-26" target="si8uyoqPotG8R0U7-kR5-40" edge="1">
          <mxGeometry relative="1" as="geometry">
            <mxPoint x="750" y="525" as="sourcePoint" />
            <Array as="points">
              <mxPoint x="640" y="585" />
              <mxPoint x="640" y="650" />
              <mxPoint x="600" y="650" />
            </Array>
          </mxGeometry>
        </mxCell>
        <mxCell id="si8uyoqPotG8R0U7-kR5-45" style="edgeStyle=orthogonalEdgeStyle;rounded=0;orthogonalLoop=1;jettySize=auto;html=1;exitX=0.5;exitY=0.5;exitDx=0;exitDy=0;exitPerimeter=0;entryX=1;entryY=0.5;entryDx=0;entryDy=0;fontSize=14;fontColor=#E01B84;startArrow=none;startFill=0;endArrow=none;endFill=0;strokeColor=#E01B84;" parent="1" source="si8uyoqPotG8R0U7-kR5-26" target="si8uyoqPotG8R0U7-kR5-43" edge="1">
          <mxGeometry relative="1" as="geometry">
            <mxPoint x="750" y="525" as="sourcePoint" />
            <Array as="points">
              <mxPoint x="640" y="585" />
              <mxPoint x="640" y="730" />
              <mxPoint x="481" y="730" />
            </Array>
          </mxGeometry>
        </mxCell>
        <mxCell id="si8uyoqPotG8R0U7-kR5-46" style="edgeStyle=orthogonalEdgeStyle;rounded=0;orthogonalLoop=1;jettySize=auto;html=1;exitX=0.5;exitY=0.5;exitDx=0;exitDy=0;exitPerimeter=0;entryX=0.5;entryY=1;entryDx=0;entryDy=0;fontSize=14;fontColor=#E01B84;startArrow=none;startFill=0;endArrow=none;endFill=0;strokeColor=#E01B84;" parent="1" source="si8uyoqPotG8R0U7-kR5-26" target="si8uyoqPotG8R0U7-kR5-39" edge="1">
          <mxGeometry relative="1" as="geometry">
            <mxPoint x="750" y="525" as="sourcePoint" />
            <Array as="points">
              <mxPoint x="640" y="585" />
              <mxPoint x="640" y="780" />
              <mxPoint x="301" y="780" />
            </Array>
          </mxGeometry>
        </mxCell>
        <mxCell id="si8uyoqPotG8R0U7-kR5-49" style="edgeStyle=orthogonalEdgeStyle;rounded=0;orthogonalLoop=1;jettySize=auto;html=1;exitX=0.5;exitY=0.5;exitDx=0;exitDy=0;exitPerimeter=0;entryX=1;entryY=0.5;entryDx=0;entryDy=0;fontSize=14;fontColor=#E01B84;startArrow=none;startFill=0;endArrow=none;endFill=0;strokeColor=#E01B84;" parent="1" source="si8uyoqPotG8R0U7-kR5-26" target="si8uyoqPotG8R0U7-kR5-47" edge="1">
          <mxGeometry relative="1" as="geometry">
            <Array as="points">
              <mxPoint x="640" y="585" />
              <mxPoint x="640" y="820" />
            </Array>
          </mxGeometry>
        </mxCell>
        <mxCell id="si8uyoqPotG8R0U7-kR5-52" style="edgeStyle=orthogonalEdgeStyle;rounded=0;orthogonalLoop=1;jettySize=auto;html=1;exitX=0.5;exitY=0.5;exitDx=0;exitDy=0;exitPerimeter=0;entryX=1;entryY=0.5;entryDx=0;entryDy=0;fontSize=14;fontColor=#E01B84;startArrow=none;startFill=0;endArrow=none;endFill=0;strokeColor=#E01B84;" parent="1" source="si8uyoqPotG8R0U7-kR5-26" target="si8uyoqPotG8R0U7-kR5-50" edge="1">
          <mxGeometry relative="1" as="geometry">
            <Array as="points">
              <mxPoint x="640" y="585" />
              <mxPoint x="640" y="880" />
            </Array>
          </mxGeometry>
        </mxCell>
        <mxCell id="si8uyoqPotG8R0U7-kR5-54" style="edgeStyle=orthogonalEdgeStyle;rounded=0;orthogonalLoop=1;jettySize=auto;html=1;exitX=0.5;exitY=0.5;exitDx=0;exitDy=0;exitPerimeter=0;entryX=1;entryY=0.5;entryDx=0;entryDy=0;fontSize=14;fontColor=#E01B84;startArrow=none;startFill=0;endArrow=none;endFill=0;strokeColor=#E01B84;" parent="1" source="si8uyoqPotG8R0U7-kR5-26" target="si8uyoqPotG8R0U7-kR5-53" edge="1">
          <mxGeometry relative="1" as="geometry">
            <Array as="points">
              <mxPoint x="640" y="585" />
              <mxPoint x="640" y="920" />
            </Array>
          </mxGeometry>
        </mxCell>
        <mxCell id="si8uyoqPotG8R0U7-kR5-65" style="edgeStyle=orthogonalEdgeStyle;rounded=0;orthogonalLoop=1;jettySize=auto;html=1;exitX=0.5;exitY=0.5;exitDx=0;exitDy=0;exitPerimeter=0;entryX=1;entryY=0.5;entryDx=0;entryDy=0;fontSize=14;fontColor=#E01B84;startArrow=none;startFill=0;endArrow=none;endFill=0;strokeColor=#E01B84;" parent="1" source="si8uyoqPotG8R0U7-kR5-26" target="si8uyoqPotG8R0U7-kR5-57" edge="1">
          <mxGeometry relative="1" as="geometry">
            <Array as="points">
              <mxPoint x="640" y="585" />
              <mxPoint x="640" y="990" />
            </Array>
          </mxGeometry>
        </mxCell>
        <mxCell id="si8uyoqPotG8R0U7-kR5-67" style="edgeStyle=orthogonalEdgeStyle;rounded=0;orthogonalLoop=1;jettySize=auto;html=1;exitX=0.5;exitY=0.5;exitDx=0;exitDy=0;exitPerimeter=0;entryX=1;entryY=1;entryDx=0;entryDy=0;fontSize=14;fontColor=#E01B84;startArrow=none;startFill=0;endArrow=none;endFill=0;strokeColor=#E01B84;" parent="1" source="si8uyoqPotG8R0U7-kR5-26" target="si8uyoqPotG8R0U7-kR5-60" edge="1">
          <mxGeometry relative="1" as="geometry">
            <Array as="points">
              <mxPoint x="640" y="585" />
              <mxPoint x="640" y="1071" />
            </Array>
          </mxGeometry>
        </mxCell>
        <mxCell id="si8uyoqPotG8R0U7-kR5-68" style="edgeStyle=orthogonalEdgeStyle;rounded=0;orthogonalLoop=1;jettySize=auto;html=1;exitX=0.5;exitY=0.5;exitDx=0;exitDy=0;exitPerimeter=0;entryX=0.5;entryY=1;entryDx=0;entryDy=0;fontSize=14;fontColor=#E01B84;startArrow=none;startFill=0;endArrow=none;endFill=0;strokeColor=#E01B84;" parent="1" source="si8uyoqPotG8R0U7-kR5-26" target="si8uyoqPotG8R0U7-kR5-56" edge="1">
          <mxGeometry relative="1" as="geometry">
            <Array as="points">
              <mxPoint x="640" y="585" />
              <mxPoint x="640" y="1110" />
              <mxPoint x="297" y="1110" />
            </Array>
          </mxGeometry>
        </mxCell>
        <mxCell id="si8uyoqPotG8R0U7-kR5-26" value="Space&lt;br&gt;Provider" style="shape=umlActor;verticalLabelPosition=bottom;verticalAlign=top;html=1;outlineConnect=0;fontSize=14;fontColor=#E01B84;strokeColor=#283592;strokeWidth=2;fillColor=#C0C8FF;" parent="1" vertex="1">
          <mxGeometry x="730" y="550" width="40" height="70" as="geometry" />
        </mxCell>
        <mxCell id="0Z-lsKHnC-HnBV5NZcCl-2" value="CoworkClub" style="text;html=1;strokeColor=none;fillColor=none;align=center;verticalAlign=middle;whiteSpace=wrap;rounded=0;fontColor=#E01B84;fontStyle=1;fontSize=20;" parent="1" vertex="1">
          <mxGeometry x="356" y="39" width="128" height="30" as="geometry" />
        </mxCell>
        <mxCell id="si8uyoqPotG8R0U7-kR5-8" style="rounded=0;orthogonalLoop=1;jettySize=auto;html=1;exitX=1;exitY=1;exitDx=0;exitDy=0;entryX=0;entryY=0;entryDx=0;entryDy=0;fontSize=14;fontColor=#E01B84;strokeColor=#283592;endArrow=none;endFill=0;startArrow=open;startFill=0;dashed=1;" parent="1" source="0Z-lsKHnC-HnBV5NZcCl-4" target="si8uyoqPotG8R0U7-kR5-3" edge="1">
          <mxGeometry relative="1" as="geometry" />
        </mxCell>
        <mxCell id="si8uyoqPotG8R0U7-kR5-9" value="«include»" style="edgeLabel;html=1;align=center;verticalAlign=middle;resizable=0;points=[];fontSize=14;fontColor=#E01B84;" parent="si8uyoqPotG8R0U7-kR5-8" vertex="1" connectable="0">
          <mxGeometry x="0.1907" relative="1" as="geometry">
            <mxPoint as="offset" />
          </mxGeometry>
        </mxCell>
        <mxCell id="si8uyoqPotG8R0U7-kR5-12" style="edgeStyle=none;rounded=0;orthogonalLoop=1;jettySize=auto;html=1;exitX=0;exitY=1;exitDx=0;exitDy=0;entryX=1;entryY=0;entryDx=0;entryDy=0;fontSize=14;fontColor=#E01B84;startArrow=open;startFill=0;endArrow=none;endFill=0;strokeColor=#283592;dashed=1;" parent="1" source="0Z-lsKHnC-HnBV5NZcCl-4" target="si8uyoqPotG8R0U7-kR5-11" edge="1">
          <mxGeometry relative="1" as="geometry" />
        </mxCell>
        <mxCell id="si8uyoqPotG8R0U7-kR5-15" value="«extends»" style="edgeLabel;html=1;align=center;verticalAlign=middle;resizable=0;points=[];fontSize=14;fontColor=#E01B84;" parent="si8uyoqPotG8R0U7-kR5-12" vertex="1" connectable="0">
          <mxGeometry x="0.532" y="-2" relative="1" as="geometry">
            <mxPoint x="2" y="-10" as="offset" />
          </mxGeometry>
        </mxCell>
        <mxCell id="0Z-lsKHnC-HnBV5NZcCl-4" value="Search for&lt;br&gt;Space" style="ellipse;whiteSpace=wrap;html=1;fontSize=14;fontColor=#E01B84;strokeColor=#283592;strokeWidth=2;fillColor=#C0C8FF;" parent="1" vertex="1">
          <mxGeometry x="360" y="99" width="120" height="60" as="geometry" />
        </mxCell>
        <mxCell id="si8uyoqPotG8R0U7-kR5-3" value="Specify search&lt;br&gt;parameters" style="ellipse;whiteSpace=wrap;html=1;fontSize=14;fontColor=#E01B84;strokeColor=#283592;strokeWidth=2;fillColor=#C0C8FF;" parent="1" vertex="1">
          <mxGeometry x="480" y="184" width="120" height="60" as="geometry" />
        </mxCell>
        <mxCell id="si8uyoqPotG8R0U7-kR5-11" value="Filter the results" style="ellipse;whiteSpace=wrap;html=1;fontSize=14;fontColor=#E01B84;strokeColor=#283592;strokeWidth=2;fillColor=#C0C8FF;" parent="1" vertex="1">
          <mxGeometry x="240" y="184" width="120" height="60" as="geometry" />
        </mxCell>
        <mxCell id="si8uyoqPotG8R0U7-kR5-17" value="Compare results" style="ellipse;whiteSpace=wrap;html=1;fontSize=14;fontColor=#E01B84;strokeColor=#283592;strokeWidth=2;fillColor=#C0C8FF;" parent="1" vertex="1">
          <mxGeometry x="360" y="264" width="120" height="60" as="geometry" />
        </mxCell>
        <mxCell id="si8uyoqPotG8R0U7-kR5-18" style="edgeStyle=none;rounded=0;orthogonalLoop=1;jettySize=auto;html=1;exitX=0.5;exitY=1;exitDx=0;exitDy=0;entryX=0.5;entryY=0;entryDx=0;entryDy=0;fontSize=14;fontColor=#E01B84;startArrow=open;startFill=0;endArrow=none;endFill=0;strokeColor=#283592;dashed=1;" parent="1" source="0Z-lsKHnC-HnBV5NZcCl-4" target="si8uyoqPotG8R0U7-kR5-17" edge="1">
          <mxGeometry relative="1" as="geometry">
            <mxPoint x="350" y="204" as="sourcePoint" />
            <mxPoint x="307" y="289.0000000000002" as="targetPoint" />
          </mxGeometry>
        </mxCell>
        <mxCell id="si8uyoqPotG8R0U7-kR5-19" value="«extends»" style="edgeLabel;html=1;align=center;verticalAlign=middle;resizable=0;points=[];fontSize=14;fontColor=#E01B84;" parent="si8uyoqPotG8R0U7-kR5-18" vertex="1" connectable="0">
          <mxGeometry x="0.532" y="-2" relative="1" as="geometry">
            <mxPoint x="3" y="-6" as="offset" />
          </mxGeometry>
        </mxCell>
        <mxCell id="si8uyoqPotG8R0U7-kR5-24" value="Profile management" style="ellipse;whiteSpace=wrap;html=1;fontSize=14;fontColor=#E01B84;strokeColor=#283592;strokeWidth=2;fillColor=#C0C8FF;" parent="1" vertex="1">
          <mxGeometry x="240" y="330" width="120" height="60" as="geometry" />
        </mxCell>
        <mxCell id="si8uyoqPotG8R0U7-kR5-27" value="Adding Space" style="ellipse;whiteSpace=wrap;html=1;fontSize=14;fontColor=#E01B84;strokeColor=#283592;strokeWidth=2;fillColor=#C0C8FF;" parent="1" vertex="1">
          <mxGeometry x="361" y="439" width="120" height="60" as="geometry" />
        </mxCell>
        <mxCell id="si8uyoqPotG8R0U7-kR5-28" value="Application submittion&lt;span style=&quot;color: rgba(0, 0, 0, 0); font-family: monospace; font-size: 0px; text-align: start;&quot;&gt;%3CmxGraphModel%3E%3Croot%3E%3CmxCell%20id%3D%220%22%2F%3E%3CmxCell%20id%3D%221%22%20parent%3D%220%22%2F%3E%3CmxCell%20id%3D%222%22%20value%3D%22%22%20style%3D%22group%22%20vertex%3D%221%22%20connectable%3D%220%22%20parent%3D%221%22%3E%3CmxGeometry%20x%3D%22161%22%20y%3D%2240%22%20width%3D%22520%22%20height%3D%221090%22%20as%3D%22geometry%22%2F%3E%3C%2FmxCell%3E%3CmxCell%20id%3D%223%22%20value%3D%22%22%20style%3D%22rounded%3D0%3BwhiteSpace%3Dwrap%3Bhtml%3D1%3BfillColor%3Dnone%3BstrokeColor%3D%23283592%3BstrokeWidth%3D2%3B%22%20vertex%3D%221%22%20parent%3D%222%22%3E%3CmxGeometry%20width%3D%22520%22%20height%3D%221090%22%20as%3D%22geometry%22%2F%3E%3C%2FmxCell%3E%3CmxCell%20id%3D%224%22%20value%3D%22CoworkClub%22%20style%3D%22text%3Bhtml%3D1%3BstrokeColor%3Dnone%3BfillColor%3Dnone%3Balign%3Dcenter%3BverticalAlign%3Dmiddle%3BwhiteSpace%3Dwrap%3Brounded%3D0%3BfontColor%3D%23E01B84%3BfontStyle%3D1%3BfontSize%3D20%3B%22%20vertex%3D%221%22%20parent%3D%222%22%3E%3CmxGeometry%20x%3D%22196%22%20y%3D%2210%22%20width%3D%22128%22%20height%3D%2230%22%20as%3D%22geometry%22%2F%3E%3C%2FmxCell%3E%3CmxCell%20id%3D%225%22%20style%3D%22rounded%3D0%3BorthogonalLoop%3D1%3BjettySize%3Dauto%3Bhtml%3D1%3BexitX%3D1%3BexitY%3D1%3BexitDx%3D0%3BexitDy%3D0%3BentryX%3D0%3BentryY%3D0%3BentryDx%3D0%3BentryDy%3D0%3BfontSize%3D14%3BfontColor%3D%23E01B84%3BstrokeColor%3D%23283592%3BendArrow%3Dnone%3BendFill%3D0%3BstartArrow%3Dopen%3BstartFill%3D0%3Bdashed%3D1%3B%22%20edge%3D%221%22%20parent%3D%222%22%20source%3D%229%22%20target%3D%2210%22%3E%3CmxGeometry%20relative%3D%221%22%20as%3D%22geometry%22%2F%3E%3C%2FmxCell%3E%3CmxCell%20id%3D%226%22%20value%3D%22%C2%ABinclude%C2%BB%22%20style%3D%22edgeLabel%3Bhtml%3D1%3Balign%3Dcenter%3BverticalAlign%3Dmiddle%3Bresizable%3D0%3Bpoints%3D%5B%5D%3BfontSize%3D14%3BfontColor%3D%23E01B84%3B%22%20vertex%3D%221%22%20connectable%3D%220%22%20parent%3D%225%22%3E%3CmxGeometry%20x%3D%220.1907%22%20relative%3D%221%22%20as%3D%22geometry%22%3E%3CmxPoint%20as%3D%22offset%22%2F%3E%3C%2FmxGeometry%3E%3C%2FmxCell%3E%3CmxCell%20id%3D%227%22%20style%3D%22edgeStyle%3Dnone%3Brounded%3D0%3BorthogonalLoop%3D1%3BjettySize%3Dauto%3Bhtml%3D1%3BexitX%3D0%3BexitY%3D1%3BexitDx%3D0%3BexitDy%3D0%3BentryX%3D1%3BentryY%3D0%3BentryDx%3D0%3BentryDy%3D0%3BfontSize%3D14%3BfontColor%3D%23E01B84%3BstartArrow%3Dopen%3BstartFill%3D0%3BendArrow%3Dnone%3BendFill%3D0%3BstrokeColor%3D%23283592%3Bdashed%3D1%3B%22%20edge%3D%221%22%20parent%3D%222%22%20source%3D%229%22%20target%3D%2211%22%3E%3CmxGeometry%20relative%3D%221%22%20as%3D%22geometry%22%2F%3E%3C%2FmxCell%3E%3CmxCell%20id%3D%228%22%20value%3D%22%C2%ABextends%C2%BB%22%20style%3D%22edgeLabel%3Bhtml%3D1%3Balign%3Dcenter%3BverticalAlign%3Dmiddle%3Bresizable%3D0%3Bpoints%3D%5B%5D%3BfontSize%3D14%3BfontColor%3D%23E01B84%3B%22%20vertex%3D%221%22%20connectable%3D%220%22%20parent%3D%227%22%3E%3CmxGeometry%20x%3D%220.532%22%20y%3D%22-2%22%20relative%3D%221%22%20as%3D%22geometry%22%3E%3CmxPoint%20x%3D%222%22%20y%3D%22-10%22%20as%3D%22offset%22%2F%3E%3C%2FmxGeometry%3E%3C%2FmxCell%3E%3CmxCell%20id%3D%229%22%20value%3D%22Search%20for%26lt%3Bbr%26gt%3BSpace%22%20style%3D%22ellipse%3BwhiteSpace%3Dwrap%3Bhtml%3D1%3BfontSize%3D14%3BfontColor%3D%23E01B84%3BstrokeColor%3D%23283592%3BstrokeWidth%3D2%3BfillColor%3D%23C0C8FF%3B%22%20vertex%3D%221%22%20parent%3D%222%22%3E%3CmxGeometry%20x%3D%22200%22%20y%3D%2295%22%20width%3D%22120%22%20height%3D%2260%22%20as%3D%22geometry%22%2F%3E%3C%2FmxCell%3E%3CmxCell%20id%3D%2210%22%20value%3D%22Specify%20search%26lt%3Bbr%26gt%3Bparameters%22%20style%3D%22ellipse%3BwhiteSpace%3Dwrap%3Bhtml%3D1%3BfontSize%3D14%3BfontColor%3D%23E01B84%3BstrokeColor%3D%23283592%3BstrokeWidth%3D2%3BfillColor%3D%23C0C8FF%3B%22%20vertex%3D%221%22%20parent%3D%222%22%3E%3CmxGeometry%20x%3D%22320%22%20y%3D%22180%22%20width%3D%22120%22%20height%3D%2260%22%20as%3D%22geometry%22%2F%3E%3C%2FmxCell%3E%3CmxCell%20id%3D%2211%22%20value%3D%22Filter%20the%20results%22%20style%3D%22ellipse%3BwhiteSpace%3Dwrap%3Bhtml%3D1%3BfontSize%3D14%3BfontColor%3D%23E01B84%3BstrokeColor%3D%23283592%3BstrokeWidth%3D2%3BfillColor%3D%23C0C8FF%3B%22%20vertex%3D%221%22%20parent%3D%222%22%3E%3CmxGeometry%20x%3D%2280%22%20y%3D%22180%22%20width%3D%22120%22%20height%3D%2260%22%20as%3D%22geometry%22%2F%3E%3C%2FmxCell%3E%3CmxCell%20id%3D%2212%22%20value%3D%22Compare%20results%22%20style%3D%22ellipse%3BwhiteSpace%3Dwrap%3Bhtml%3D1%3BfontSize%3D14%3BfontColor%3D%23E01B84%3BstrokeColor%3D%23283592%3BstrokeWidth%3D2%3BfillColor%3D%23C0C8FF%3B%22%20vertex%3D%221%22%20parent%3D%222%22%3E%3CmxGeometry%20x%3D%22200%22%20y%3D%22260%22%20width%3D%22120%22%20height%3D%2260%22%20as%3D%22geometry%22%2F%3E%3C%2FmxCell%3E%3CmxCell%20id%3D%2213%22%20style%3D%22edgeStyle%3Dnone%3Brounded%3D0%3BorthogonalLoop%3D1%3BjettySize%3Dauto%3Bhtml%3D1%3BexitX%3D0.5%3BexitY%3D1%3BexitDx%3D0%3BexitDy%3D0%3BentryX%3D0.5%3BentryY%3D0%3BentryDx%3D0%3BentryDy%3D0%3BfontSize%3D14%3BfontColor%3D%23E01B84%3BstartArrow%3Dopen%3BstartFill%3D0%3BendArrow%3Dnone%3BendFill%3D0%3BstrokeColor%3D%23283592%3Bdashed%3D1%3B%22%20edge%3D%221%22%20parent%3D%222%22%20source%3D%229%22%20target%3D%2212%22%3E%3CmxGeometry%20relative%3D%221%22%20as%3D%22geometry%22%3E%3CmxPoint%20x%3D%22189%22%20y%3D%22165%22%20as%3D%22sourcePoint%22%2F%3E%3CmxPoint%20x%3D%22146%22%20y%3D%22250.00000000000023%22%20as%3D%22targetPoint%22%2F%3E%3C%2FmxGeometry%3E%3C%2FmxCell%3E%3CmxCell%20id%3D%2214%22%20value%3D%22%C2%ABextends%C2%BB%22%20style%3D%22edgeLabel%3Bhtml%3D1%3Balign%3Dcenter%3BverticalAlign%3Dmiddle%3Bresizable%3D0%3Bpoints%3D%5B%5D%3BfontSize%3D14%3BfontColor%3D%23E01B84%3B%22%20vertex%3D%221%22%20connectable%3D%220%22%20parent%3D%2213%22%3E%3CmxGeometry%20x%3D%220.532%22%20y%3D%22-2%22%20relative%3D%221%22%20as%3D%22geometry%22%3E%3CmxPoint%20x%3D%223%22%20y%3D%22-6%22%20as%3D%22offset%22%2F%3E%3C%2FmxGeometry%3E%3C%2FmxCell%3E%3CmxCell%20id%3D%2215%22%20value%3D%22Profile%20management%22%20style%3D%22ellipse%3BwhiteSpace%3Dwrap%3Bhtml%3D1%3BfontSize%3D14%3BfontColor%3D%23E01B84%3BstrokeColor%3D%23283592%3BstrokeWidth%3D2%3BfillColor%3D%23C0C8FF%3B%22%20vertex%3D%221%22%20parent%3D%222%22%3E%3CmxGeometry%20x%3D%2280%22%20y%3D%22340%22%20width%3D%22120%22%20height%3D%2260%22%20as%3D%22geometry%22%2F%3E%3C%2FmxCell%3E%3CmxCell%20id%3D%2216%22%20value%3D%22Adding%20Space%22%20style%3D%22ellipse%3BwhiteSpace%3Dwrap%3Bhtml%3D1%3BfontSize%3D14%3BfontColor%3D%23E01B84%3BstrokeColor%3D%23283592%3BstrokeWidth%3D2%3BfillColor%3D%23C0C8FF%3B%22%20vertex%3D%221%22%20parent%3D%222%22%3E%3CmxGeometry%20x%3D%22200%22%20y%3D%22460%22%20width%3D%22120%22%20height%3D%2260%22%20as%3D%22geometry%22%2F%3E%3C%2FmxCell%3E%3CmxCell%20id%3D%2217%22%20value%3D%22Application%20submittion%22%20style%3D%22ellipse%3BwhiteSpace%3Dwrap%3Bhtml%3D1%3BfontSize%3D14%3BfontColor%3D%23E01B84%3BstrokeColor%3D%23283592%3BstrokeWidth%3D2%3BfillColor%3D%23C0C8FF%3B%22%20vertex%3D%221%22%20parent%3D%222%22%3E%3CmxGeometry%20x%3D%2276%22%20y%3D%22540%22%20width%3D%22120%22%20height%3D%2260%22%20as%3D%22geometry%22%2F%3E%3C%2FmxCell%3E%3CmxCell%20id%3D%2218%22%20style%3D%22rounded%3D0%3BorthogonalLoop%3D1%3BjettySize%3Dauto%3Bhtml%3D1%3BexitX%3D0%3BexitY%3D1%3BexitDx%3D0%3BexitDy%3D0%3BentryX%3D1%3BentryY%3D0%3BentryDx%3D0%3BentryDy%3D0%3BfontSize%3D14%3BfontColor%3D%23E01B84%3BstrokeColor%3D%23283592%3BendArrow%3Dnone%3BendFill%3D0%3BstartArrow%3Dopen%3BstartFill%3D0%3Bdashed%3D1%3B%22%20edge%3D%221%22%20parent%3D%222%22%20source%3D%2216%22%20target%3D%2217%22%3E%3CmxGeometry%20relative%3D%221%22%20as%3D%22geometry%22%3E%3CmxPoint%20x%3D%22362.42640687119297%22%20y%3D%22268.7132034355966%22%20as%3D%22sourcePoint%22%2F%3E%3CmxPoint%20x%3D%22397.57359312880703%22%20y%3D%22311.2867965644034%22%20as%3D%22targetPoint%22%2F%3E%3C%2FmxGeometry%3E%3C%2FmxCell%3E%3CmxCell%20id%3D%2219%22%20value%3D%22%C2%ABinclude%C2%BB%22%20style%3D%22edgeLabel%3Bhtml%3D1%3Balign%3Dcenter%3BverticalAlign%3Dmiddle%3Bresizable%3D0%3Bpoints%3D%5B%5D%3BfontSize%3D14%3BfontColor%3D%23E01B84%3B%22%20vertex%3D%221%22%20connectable%3D%220%22%20parent%3D%2218%22%3E%3CmxGeometry%20x%3D%220.1907%22%20relative%3D%221%22%20as%3D%22geometry%22%3E%3CmxPoint%20as%3D%22offset%22%2F%3E%3C%2FmxGeometry%3E%3C%2FmxCell%3E%3CmxCell%20id%3D%2220%22%20value%3D%22Access%20to%20management%26lt%3Bbr%26gt%3Bdashboard%22%20style%3D%22ellipse%3BwhiteSpace%3Dwrap%3Bhtml%3D1%3BfontSize%3D14%3BfontColor%3D%23E01B84%3BstrokeColor%3D%23283592%3BstrokeWidth%3D2%3BfillColor%3D%23C0C8FF%3B%22%20vertex%3D%221%22%20parent%3D%222%22%3E%3CmxGeometry%20x%3D%22320%22%20y%3D%22540%22%20width%3D%22120%22%20height%3D%2260%22%20as%3D%22geometry%22%2F%3E%3C%2FmxCell%3E%3CmxCell%20id%3D%2221%22%20style%3D%22edgeStyle%3Dnone%3Brounded%3D0%3BorthogonalLoop%3D1%3BjettySize%3Dauto%3Bhtml%3D1%3BexitX%3D1%3BexitY%3D1%3BexitDx%3D0%3BexitDy%3D0%3BentryX%3D0%3BentryY%3D0%3BentryDx%3D0%3BentryDy%3D0%3BfontSize%3D14%3BfontColor%3D%23E01B84%3BstartArrow%3Dopen%3BstartFill%3D0%3BendArrow%3Dnone%3BendFill%3D0%3BstrokeColor%3D%23283592%3Bdashed%3D1%3B%22%20edge%3D%221%22%20parent%3D%222%22%20source%3D%2216%22%20target%3D%2220%22%3E%3CmxGeometry%20relative%3D%221%22%20as%3D%22geometry%22%3E%3CmxPoint%20x%3D%22270%22%20y%3D%22165%22%20as%3D%22sourcePoint%22%2F%3E%3CmxPoint%20x%3D%22270%22%20y%3D%22270%22%20as%3D%22targetPoint%22%2F%3E%3C%2FmxGeometry%3E%3C%2FmxCell%3E%3CmxCell%20id%3D%2222%22%20value%3D%22%C2%ABextends%C2%BB%22%20style%3D%22edgeLabel%3Bhtml%3D1%3Balign%3Dcenter%3BverticalAlign%3Dmiddle%3Bresizable%3D0%3Bpoints%3D%5B%5D%3BfontSize%3D14%3BfontColor%3D%23E01B84%3B%22%20vertex%3D%221%22%20connectable%3D%220%22%20parent%3D%2221%22%3E%3CmxGeometry%20x%3D%220.532%22%20y%3D%22-2%22%20relative%3D%221%22%20as%3D%22geometry%22%3E%3CmxPoint%20x%3D%22-19%22%20y%3D%22-6%22%20as%3D%22offset%22%2F%3E%3C%2FmxGeometry%3E%3C%2FmxCell%3E%3C%2Froot%3E%3C%2FmxGraphModel%3E&lt;/span&gt;" style="ellipse;whiteSpace=wrap;html=1;fontSize=14;fontColor=#E01B84;strokeColor=#283592;strokeWidth=2;fillColor=#C0C8FF;" parent="1" vertex="1">
          <mxGeometry x="237" y="519" width="120" height="60" as="geometry" />
        </mxCell>
        <mxCell id="si8uyoqPotG8R0U7-kR5-29" style="rounded=0;orthogonalLoop=1;jettySize=auto;html=1;exitX=0;exitY=1;exitDx=0;exitDy=0;entryX=1;entryY=0;entryDx=0;entryDy=0;fontSize=14;fontColor=#E01B84;strokeColor=#283592;endArrow=none;endFill=0;startArrow=open;startFill=0;dashed=1;" parent="1" source="si8uyoqPotG8R0U7-kR5-27" target="si8uyoqPotG8R0U7-kR5-28" edge="1">
          <mxGeometry relative="1" as="geometry">
            <mxPoint x="523.426406871193" y="307.7132034355966" as="sourcePoint" />
            <mxPoint x="558.573593128807" y="350.2867965644034" as="targetPoint" />
          </mxGeometry>
        </mxCell>
        <mxCell id="si8uyoqPotG8R0U7-kR5-30" value="«include»" style="edgeLabel;html=1;align=center;verticalAlign=middle;resizable=0;points=[];fontSize=14;fontColor=#E01B84;" parent="si8uyoqPotG8R0U7-kR5-29" vertex="1" connectable="0">
          <mxGeometry x="0.1907" relative="1" as="geometry">
            <mxPoint as="offset" />
          </mxGeometry>
        </mxCell>
        <mxCell id="si8uyoqPotG8R0U7-kR5-33" value="Access to management&lt;br&gt;dashboard" style="ellipse;whiteSpace=wrap;html=1;fontSize=14;fontColor=#E01B84;strokeColor=#283592;strokeWidth=2;fillColor=#C0C8FF;" parent="1" vertex="1">
          <mxGeometry x="481" y="519" width="120" height="60" as="geometry" />
        </mxCell>
        <mxCell id="si8uyoqPotG8R0U7-kR5-34" style="edgeStyle=none;rounded=0;orthogonalLoop=1;jettySize=auto;html=1;exitX=1;exitY=1;exitDx=0;exitDy=0;entryX=0;entryY=0;entryDx=0;entryDy=0;fontSize=14;fontColor=#E01B84;startArrow=open;startFill=0;endArrow=none;endFill=0;strokeColor=#283592;dashed=1;" parent="1" source="si8uyoqPotG8R0U7-kR5-27" target="si8uyoqPotG8R0U7-kR5-33" edge="1">
          <mxGeometry relative="1" as="geometry">
            <mxPoint x="431" y="204" as="sourcePoint" />
            <mxPoint x="431" y="309" as="targetPoint" />
          </mxGeometry>
        </mxCell>
        <mxCell id="si8uyoqPotG8R0U7-kR5-35" value="«extends»" style="edgeLabel;html=1;align=center;verticalAlign=middle;resizable=0;points=[];fontSize=14;fontColor=#E01B84;" parent="si8uyoqPotG8R0U7-kR5-34" vertex="1" connectable="0">
          <mxGeometry x="0.532" y="-2" relative="1" as="geometry">
            <mxPoint x="-19" y="-6" as="offset" />
          </mxGeometry>
        </mxCell>
        <mxCell id="si8uyoqPotG8R0U7-kR5-39" value="Update&lt;br&gt;work-days calendar" style="ellipse;whiteSpace=wrap;html=1;fontSize=14;fontColor=#E01B84;strokeColor=#283592;strokeWidth=2;fillColor=#C0C8FF;" parent="1" vertex="1">
          <mxGeometry x="241" y="619" width="120" height="60" as="geometry" />
        </mxCell>
        <mxCell id="si8uyoqPotG8R0U7-kR5-37" style="edgeStyle=none;rounded=0;orthogonalLoop=1;jettySize=auto;html=1;exitX=0;exitY=1;exitDx=0;exitDy=0;entryX=1;entryY=0;entryDx=0;entryDy=0;fontSize=14;fontColor=#E01B84;startArrow=open;startFill=0;endArrow=none;endFill=0;strokeColor=#283592;dashed=1;" parent="1" source="si8uyoqPotG8R0U7-kR5-33" target="si8uyoqPotG8R0U7-kR5-39" edge="1">
          <mxGeometry relative="1" as="geometry">
            <mxPoint x="550" y="809" as="sourcePoint" />
            <mxPoint x="550" y="914" as="targetPoint" />
          </mxGeometry>
        </mxCell>
        <mxCell id="si8uyoqPotG8R0U7-kR5-38" value="«extends»" style="edgeLabel;html=1;align=center;verticalAlign=middle;resizable=0;points=[];fontSize=14;fontColor=#E01B84;" parent="si8uyoqPotG8R0U7-kR5-37" vertex="1" connectable="0">
          <mxGeometry x="0.532" y="-2" relative="1" as="geometry">
            <mxPoint x="3" y="-6" as="offset" />
          </mxGeometry>
        </mxCell>
        <mxCell id="si8uyoqPotG8R0U7-kR5-40" value="Alter space&lt;br&gt;specifications" style="ellipse;whiteSpace=wrap;html=1;fontSize=14;fontColor=#E01B84;strokeColor=#283592;strokeWidth=2;fillColor=#C0C8FF;" parent="1" vertex="1">
          <mxGeometry x="480" y="619" width="120" height="60" as="geometry" />
        </mxCell>
        <mxCell id="si8uyoqPotG8R0U7-kR5-41" style="edgeStyle=none;rounded=0;orthogonalLoop=1;jettySize=auto;html=1;exitX=0.5;exitY=1;exitDx=0;exitDy=0;entryX=0.5;entryY=0;entryDx=0;entryDy=0;fontSize=14;fontColor=#E01B84;startArrow=open;startFill=0;endArrow=none;endFill=0;strokeColor=#283592;dashed=1;" parent="1" source="si8uyoqPotG8R0U7-kR5-33" target="si8uyoqPotG8R0U7-kR5-40" edge="1">
          <mxGeometry relative="1" as="geometry">
            <mxPoint x="508.1998141091135" y="640.0246527183303" as="sourcePoint" />
            <mxPoint x="353.80018589088775" y="697.9753472816692" as="targetPoint" />
          </mxGeometry>
        </mxCell>
        <mxCell id="si8uyoqPotG8R0U7-kR5-42" value="«extends»" style="edgeLabel;html=1;align=center;verticalAlign=middle;resizable=0;points=[];fontSize=14;fontColor=#E01B84;" parent="si8uyoqPotG8R0U7-kR5-41" vertex="1" connectable="0">
          <mxGeometry x="0.532" y="-2" relative="1" as="geometry">
            <mxPoint x="3" y="-6" as="offset" />
          </mxGeometry>
        </mxCell>
        <mxCell id="si8uyoqPotG8R0U7-kR5-43" value="Study user trends" style="ellipse;whiteSpace=wrap;html=1;fontSize=14;fontColor=#E01B84;strokeColor=#283592;strokeWidth=2;fillColor=#C0C8FF;" parent="1" vertex="1">
          <mxGeometry x="361" y="699" width="120" height="60" as="geometry" />
        </mxCell>
        <mxCell id="si8uyoqPotG8R0U7-kR5-47" value="Alerts" style="ellipse;whiteSpace=wrap;html=1;fontSize=14;fontColor=#E01B84;strokeColor=#283592;strokeWidth=2;fillColor=#C0C8FF;" parent="1" vertex="1">
          <mxGeometry x="480" y="790" width="120" height="60" as="geometry" />
        </mxCell>
        <mxCell id="si8uyoqPotG8R0U7-kR5-50" value="Booking&lt;span style=&quot;color: rgba(0, 0, 0, 0); font-family: monospace; font-size: 0px; text-align: start;&quot;&gt;%3CmxGraphModel%3E%3Croot%3E%3CmxCell%20id%3D%220%22%2F%3E%3CmxCell%20id%3D%221%22%20parent%3D%220%22%2F%3E%3CmxCell%20id%3D%222%22%20value%3D%22Booking%20alteratitions%22%20style%3D%22ellipse%3BwhiteSpace%3Dwrap%3Bhtml%3D1%3BfontSize%3D14%3BfontColor%3D%23E01B84%3BstrokeColor%3D%23283592%3BstrokeWidth%3D2%3BfillColor%3D%23C0C8FF%3B%22%20vertex%3D%221%22%20parent%3D%221%22%3E%3CmxGeometry%20x%3D%22360%22%20y%3D%22880%22%20width%3D%22120%22%20height%3D%2260%22%20as%3D%22geometry%22%2F%3E%3C%2FmxCell%3E%3C%2Froot%3E%3C%2FmxGraphModel%3E&lt;/span&gt;&lt;span style=&quot;color: rgba(0, 0, 0, 0); font-family: monospace; font-size: 0px; text-align: start;&quot;&gt;%3CmxGraphModel%3E%3Croot%3E%3CmxCell%20id%3D%220%22%2F%3E%3CmxCell%20id%3D%221%22%20parent%3D%220%22%2F%3E%3CmxCell%20id%3D%222%22%20value%3D%22Booking%20alteratitions%22%20style%3D%22ellipse%3BwhiteSpace%3Dwrap%3Bhtml%3D1%3BfontSize%3D14%3BfontColor%3D%23E01B84%3BstrokeColor%3D%23283592%3BstrokeWidth%3D2%3BfillColor%3D%23C0C8FF%3B%22%20vertex%3D%221%22%20parent%3D%221%22%3E%3CmxGeometry%20x%3D%22360%22%20y%3D%22880%22%20width%3D%22120%22%20height%3D%2260%22%20as%3D%22geometry%22%2F%3E%3C%2FmxCell%3E%3C%2Froot%3E%3C%2FmxGraphModel%3E&lt;/span&gt;&lt;br&gt;&amp;nbsp;alteratitions" style="ellipse;whiteSpace=wrap;html=1;fontSize=14;fontColor=#E01B84;strokeColor=#283592;strokeWidth=2;fillColor=#C0C8FF;" parent="1" vertex="1">
          <mxGeometry x="361" y="850" width="120" height="60" as="geometry" />
        </mxCell>
        <mxCell id="si8uyoqPotG8R0U7-kR5-53" value="Exchange messages" style="ellipse;whiteSpace=wrap;html=1;fontSize=14;fontColor=#E01B84;strokeColor=#283592;strokeWidth=2;fillColor=#C0C8FF;" parent="1" vertex="1">
          <mxGeometry x="480" y="890" width="120" height="60" as="geometry" />
        </mxCell>
        <mxCell id="si8uyoqPotG8R0U7-kR5-56" value="Booking" style="ellipse;whiteSpace=wrap;html=1;fontSize=14;fontColor=#E01B84;strokeColor=#283592;strokeWidth=2;fillColor=#C0C8FF;" parent="1" vertex="1">
          <mxGeometry x="237" y="940" width="120" height="60" as="geometry" />
        </mxCell>
        <mxCell id="si8uyoqPotG8R0U7-kR5-57" value="Select a&lt;br&gt;date and time" style="ellipse;whiteSpace=wrap;html=1;fontSize=14;fontColor=#E01B84;strokeColor=#283592;strokeWidth=2;fillColor=#C0C8FF;" parent="1" vertex="1">
          <mxGeometry x="480" y="960" width="120" height="60" as="geometry" />
        </mxCell>
        <mxCell id="si8uyoqPotG8R0U7-kR5-58" style="rounded=0;orthogonalLoop=1;jettySize=auto;html=1;exitX=1;exitY=0.5;exitDx=0;exitDy=0;entryX=0;entryY=0.5;entryDx=0;entryDy=0;fontSize=14;fontColor=#E01B84;strokeColor=#283592;endArrow=none;endFill=0;startArrow=open;startFill=0;dashed=1;" parent="1" source="si8uyoqPotG8R0U7-kR5-56" target="si8uyoqPotG8R0U7-kR5-57" edge="1">
          <mxGeometry relative="1" as="geometry">
            <mxPoint x="388.57359312880726" y="500.2132034355966" as="sourcePoint" />
            <mxPoint x="349.42640687119274" y="537.7867965644036" as="targetPoint" />
          </mxGeometry>
        </mxCell>
        <mxCell id="si8uyoqPotG8R0U7-kR5-59" value="«include»" style="edgeLabel;html=1;align=center;verticalAlign=middle;resizable=0;points=[];fontSize=14;fontColor=#E01B84;" parent="si8uyoqPotG8R0U7-kR5-58" vertex="1" connectable="0">
          <mxGeometry x="0.1907" relative="1" as="geometry">
            <mxPoint as="offset" />
          </mxGeometry>
        </mxCell>
        <mxCell id="si8uyoqPotG8R0U7-kR5-60" value="Payment" style="ellipse;whiteSpace=wrap;html=1;fontSize=14;fontColor=#E01B84;strokeColor=#283592;strokeWidth=2;fillColor=#C0C8FF;" parent="1" vertex="1">
          <mxGeometry x="360" y="1020" width="120" height="60" as="geometry" />
        </mxCell>
        <mxCell id="si8uyoqPotG8R0U7-kR5-61" style="rounded=0;orthogonalLoop=1;jettySize=auto;html=1;exitX=1;exitY=1;exitDx=0;exitDy=0;entryX=0;entryY=0;entryDx=0;entryDy=0;fontSize=14;fontColor=#E01B84;strokeColor=#283592;endArrow=none;endFill=0;startArrow=open;startFill=0;dashed=1;" parent="1" source="si8uyoqPotG8R0U7-kR5-56" target="si8uyoqPotG8R0U7-kR5-60" edge="1">
          <mxGeometry relative="1" as="geometry">
            <mxPoint x="367" y="980" as="sourcePoint" />
            <mxPoint x="490.0000000000023" y="1000" as="targetPoint" />
          </mxGeometry>
        </mxCell>
        <mxCell id="si8uyoqPotG8R0U7-kR5-62" value="«include»" style="edgeLabel;html=1;align=center;verticalAlign=middle;resizable=0;points=[];fontSize=14;fontColor=#E01B84;" parent="si8uyoqPotG8R0U7-kR5-61" vertex="1" connectable="0">
          <mxGeometry x="0.1907" relative="1" as="geometry">
            <mxPoint x="-1" y="-3" as="offset" />
          </mxGeometry>
        </mxCell>
        <mxCell id="si8uyoqPotG8R0U7-kR5-70" style="edgeStyle=orthogonalEdgeStyle;rounded=0;orthogonalLoop=1;jettySize=auto;html=1;exitX=0.5;exitY=0.5;exitDx=0;exitDy=0;exitPerimeter=0;entryX=1;entryY=0.5;entryDx=0;entryDy=0;fontSize=14;fontColor=#E01B84;startArrow=none;startFill=0;endArrow=none;endFill=0;strokeColor=#E01B84;" parent="1" source="si8uyoqPotG8R0U7-kR5-69" target="si8uyoqPotG8R0U7-kR5-60" edge="1">
          <mxGeometry relative="1" as="geometry" />
        </mxCell>
        <mxCell id="si8uyoqPotG8R0U7-kR5-69" value="Payment&lt;br&gt;Service&lt;br&gt;Provider" style="shape=umlActor;verticalLabelPosition=bottom;verticalAlign=top;html=1;outlineConnect=0;fontSize=14;fontColor=#E01B84;strokeColor=#283592;strokeWidth=2;fillColor=#C0C8FF;" parent="1" vertex="1">
          <mxGeometry x="720" y="1015" width="40" height="70" as="geometry" />
        </mxCell>
        <mxCell id="si8uyoqPotG8R0U7-kR5-74" style="edgeStyle=orthogonalEdgeStyle;rounded=0;orthogonalLoop=1;jettySize=auto;html=1;exitX=0;exitY=0.5;exitDx=0;exitDy=0;entryX=0.5;entryY=0.5;entryDx=0;entryDy=0;entryPerimeter=0;fontSize=14;fontColor=#E01B84;startArrow=none;startFill=0;endArrow=none;endFill=0;strokeColor=#E01B84;" parent="1" source="si8uyoqPotG8R0U7-kR5-73" target="si8uyoqPotG8R0U7-kR5-6" edge="1">
          <mxGeometry relative="1" as="geometry">
            <Array as="points">
              <mxPoint x="200" y="830" />
              <mxPoint x="200" y="585" />
            </Array>
          </mxGeometry>
        </mxCell>
        <mxCell id="si8uyoqPotG8R0U7-kR5-75" style="edgeStyle=orthogonalEdgeStyle;rounded=0;orthogonalLoop=1;jettySize=auto;html=1;exitX=1;exitY=0.5;exitDx=0;exitDy=0;entryX=0.5;entryY=0.5;entryDx=0;entryDy=0;entryPerimeter=0;fontSize=14;fontColor=#E01B84;startArrow=none;startFill=0;endArrow=none;endFill=0;strokeColor=#E01B84;" parent="1" source="si8uyoqPotG8R0U7-kR5-73" target="si8uyoqPotG8R0U7-kR5-26" edge="1">
          <mxGeometry relative="1" as="geometry">
            <Array as="points">
              <mxPoint x="480" y="830" />
              <mxPoint x="480" y="860" />
              <mxPoint x="640" y="860" />
              <mxPoint x="640" y="585" />
            </Array>
          </mxGeometry>
        </mxCell>
        <mxCell id="si8uyoqPotG8R0U7-kR5-73" value="Post Reviews" style="ellipse;whiteSpace=wrap;html=1;fontSize=14;fontColor=#E01B84;strokeColor=#283592;strokeWidth=2;fillColor=#C0C8FF;" parent="1" vertex="1">
          <mxGeometry x="240" y="800" width="120" height="60" as="geometry" />
        </mxCell>
      </root>
    </mxGraphModel>
  </diagram>
  <diagram id="3AX5AcfbSX27HTJwtolj" name="State Diagram">
    <mxGraphModel dx="1198" dy="606" grid="1" gridSize="10" guides="1" tooltips="1" connect="1" arrows="1" fold="1" page="1" pageScale="1" pageWidth="827" pageHeight="1169" math="0" shadow="0">
      <root>
        <mxCell id="0" />
        <mxCell id="1" parent="0" />
        <mxCell id="XdJnSUiB7nTLBw-LB_dR-1" value="" style="ellipse;html=1;shape=endState;fillColor=#000000;strokeColor=none;dashed=1;dashPattern=1 4;" vertex="1" parent="1">
          <mxGeometry x="160" y="140" width="30" height="30" as="geometry" />
        </mxCell>
        <mxCell id="XdJnSUiB7nTLBw-LB_dR-2" value="" style="endArrow=open;endFill=0;endSize=12;html=1;rounded=0;strokeColor=#e01b84;entryX=0;entryY=0.5;entryDx=0;entryDy=0;exitX=1;exitY=0.5;exitDx=0;exitDy=0;" edge="1" source="XdJnSUiB7nTLBw-LB_dR-1" target="XdJnSUiB7nTLBw-LB_dR-3" parent="1">
          <mxGeometry width="160" relative="1" as="geometry">
            <mxPoint x="180" y="150" as="sourcePoint" />
            <mxPoint x="155" y="170" as="targetPoint" />
            <Array as="points" />
          </mxGeometry>
        </mxCell>
        <mxCell id="XdJnSUiB7nTLBw-LB_dR-3" value="&lt;p style=&quot;margin: 4px 0px 0px; text-align: center;&quot;&gt;New Booking&lt;br&gt;&lt;/p&gt;&lt;hr&gt;&lt;p style=&quot;margin:0px;margin-left:8px;&quot;&gt;Set on the space&#39;s &lt;br&gt;&lt;/p&gt;&lt;p style=&quot;margin:0px;margin-left:8px;&quot;&gt;Calendar&lt;/p&gt;&lt;p style=&quot;margin:0px;margin-left:8px;&quot;&gt;Needs to be payed&lt;br&gt;&lt;/p&gt;&lt;p style=&quot;margin:0px;margin-left:8px;&quot;&gt;&lt;br&gt;&lt;/p&gt;&lt;p style=&quot;margin:0px;margin-left:8px;&quot;&gt;&lt;br&gt;&lt;/p&gt;&lt;p style=&quot;margin:0px;margin-left:8px;&quot;&gt;&lt;br&gt;&lt;/p&gt;" style="verticalAlign=top;align=left;overflow=fill;fontSize=12;fontFamily=Helvetica;html=1;rounded=1;fontColor=#e01b84;strokeColor=#283592;strokeWidth=3;fillColor=#B0BEF0;gradientColor=none;" vertex="1" parent="1">
          <mxGeometry x="365" y="110" width="160" height="90" as="geometry" />
        </mxCell>
        <mxCell id="XdJnSUiB7nTLBw-LB_dR-4" value="A Booking is created" style="text;html=1;align=center;verticalAlign=middle;resizable=0;points=[];autosize=1;strokeColor=none;fillColor=none;fontSize=11;fontFamily=Helvetica;fontColor=#e01b84;" vertex="1" parent="1">
          <mxGeometry x="210" y="130" width="110" height="20" as="geometry" />
        </mxCell>
        <mxCell id="XdJnSUiB7nTLBw-LB_dR-5" value="&lt;p style=&quot;margin: 4px 0px 0px; text-align: center;&quot;&gt;Paying&lt;br&gt;&lt;/p&gt;&lt;hr&gt;&lt;p style=&quot;margin:0px;margin-left:8px;&quot;&gt;Choose Method of&lt;/p&gt;&lt;p style=&quot;margin:0px;margin-left:8px;&quot;&gt;payment&lt;/p&gt;&lt;p style=&quot;margin:0px;margin-left:8px;&quot;&gt;Needs confirmation from &lt;br&gt;&lt;/p&gt;&lt;p style=&quot;margin:0px;margin-left:8px;&quot;&gt;the bank&lt;br&gt;&lt;/p&gt;&lt;p style=&quot;margin:0px;margin-left:8px;&quot;&gt;&lt;br&gt;&lt;/p&gt;" style="verticalAlign=top;align=left;overflow=fill;fontSize=12;fontFamily=Helvetica;html=1;rounded=1;fontColor=#e01b84;strokeColor=#283592;strokeWidth=3;fillColor=#B0BEF0;gradientColor=none;" vertex="1" parent="1">
          <mxGeometry x="365" y="300" width="160" height="110" as="geometry" />
        </mxCell>
        <mxCell id="XdJnSUiB7nTLBw-LB_dR-6" value="" style="endArrow=open;endFill=0;endSize=12;html=1;rounded=0;exitX=0.5;exitY=1;exitDx=0;exitDy=0;strokeColor=#e01b84;entryX=0.5;entryY=0;entryDx=0;entryDy=0;" edge="1" source="XdJnSUiB7nTLBw-LB_dR-3" target="XdJnSUiB7nTLBw-LB_dR-5" parent="1">
          <mxGeometry width="160" relative="1" as="geometry">
            <mxPoint x="165" y="80" as="sourcePoint" />
            <mxPoint x="390" y="170" as="targetPoint" />
            <Array as="points" />
          </mxGeometry>
        </mxCell>
        <mxCell id="XdJnSUiB7nTLBw-LB_dR-7" value="Booking must be payed" style="text;html=1;align=center;verticalAlign=middle;resizable=0;points=[];autosize=1;strokeColor=none;fillColor=none;fontSize=11;fontFamily=Helvetica;fontColor=#e01b84;" vertex="1" parent="1">
          <mxGeometry x="320" y="240" width="130" height="20" as="geometry" />
        </mxCell>
        <mxCell id="XdJnSUiB7nTLBw-LB_dR-8" value="" style="endArrow=diamondThin;endFill=0;endSize=24;html=1;rounded=0;labelBackgroundColor=default;fontFamily=Helvetica;fontSize=11;fontColor=#e01b84;strokeColor=#e01b84;shape=connector;exitX=0.5;exitY=1;exitDx=0;exitDy=0;" edge="1" source="XdJnSUiB7nTLBw-LB_dR-5" parent="1">
          <mxGeometry width="160" relative="1" as="geometry">
            <mxPoint x="340" y="270" as="sourcePoint" />
            <mxPoint x="445" y="480" as="targetPoint" />
            <Array as="points" />
          </mxGeometry>
        </mxCell>
        <mxCell id="XdJnSUiB7nTLBw-LB_dR-9" value="" style="endArrow=open;endFill=1;endSize=12;html=1;rounded=0;labelBackgroundColor=default;fontFamily=Helvetica;fontSize=11;fontColor=#e01b84;strokeColor=#e01b84;shape=connector;" edge="1" parent="1">
          <mxGeometry width="160" relative="1" as="geometry">
            <mxPoint x="460" y="480" as="sourcePoint" />
            <mxPoint x="289.9999999999998" y="480" as="targetPoint" />
          </mxGeometry>
        </mxCell>
        <mxCell id="XdJnSUiB7nTLBw-LB_dR-10" value="&lt;p style=&quot;margin: 4px 0px 0px; text-align: center;&quot;&gt;Space Preparation&lt;br&gt;&lt;/p&gt;&lt;hr&gt;&lt;div&gt;&amp;nbsp; Ensuring that everything is &lt;br&gt;&lt;/div&gt;&lt;div&gt;&amp;nbsp; ok with the space&lt;/div&gt;&lt;div&gt;&amp;nbsp; &lt;br&gt;&lt;/div&gt;&lt;div align=&quot;justify&quot;&gt;&amp;nbsp; &lt;br&gt;&lt;/div&gt;" style="verticalAlign=top;align=left;overflow=fill;fontSize=12;fontFamily=Helvetica;html=1;rounded=1;fontColor=#e01b84;strokeColor=#283592;strokeWidth=3;fillColor=#B0BEF0;gradientColor=none;" vertex="1" parent="1">
          <mxGeometry x="120" y="440" width="170" height="70" as="geometry" />
        </mxCell>
        <mxCell id="XdJnSUiB7nTLBw-LB_dR-11" value="Bank accepts payment" style="text;html=1;align=center;verticalAlign=middle;resizable=0;points=[];autosize=1;strokeColor=none;fillColor=none;fontSize=11;fontFamily=Helvetica;fontColor=#e01b84;" vertex="1" parent="1">
          <mxGeometry x="310" y="460" width="130" height="20" as="geometry" />
        </mxCell>
        <mxCell id="XdJnSUiB7nTLBw-LB_dR-12" value="" style="endArrow=open;endFill=1;endSize=12;html=1;rounded=0;labelBackgroundColor=default;fontFamily=Helvetica;fontSize=11;fontColor=#e01b84;strokeColor=#e01b84;shape=connector;entryX=1;entryY=0.5;entryDx=0;entryDy=0;" edge="1" target="XdJnSUiB7nTLBw-LB_dR-17" parent="1">
          <mxGeometry width="160" relative="1" as="geometry">
            <mxPoint x="460" y="480" as="sourcePoint" />
            <mxPoint x="640" y="480" as="targetPoint" />
            <Array as="points">
              <mxPoint x="650" y="480" />
              <mxPoint x="650" y="705" />
            </Array>
          </mxGeometry>
        </mxCell>
        <mxCell id="XdJnSUiB7nTLBw-LB_dR-13" value="Bank refuses payment" style="text;html=1;align=center;verticalAlign=middle;resizable=0;points=[];autosize=1;strokeColor=none;fillColor=none;fontSize=11;fontFamily=Helvetica;fontColor=#e01b84;" vertex="1" parent="1">
          <mxGeometry x="490" y="460" width="120" height="20" as="geometry" />
        </mxCell>
        <mxCell id="XdJnSUiB7nTLBw-LB_dR-14" value="" style="endArrow=diamondThin;endFill=0;endSize=24;html=1;rounded=0;labelBackgroundColor=default;fontFamily=Helvetica;fontSize=11;fontColor=#e01b84;strokeColor=#e01b84;shape=connector;exitX=0.5;exitY=1;exitDx=0;exitDy=0;" edge="1" source="XdJnSUiB7nTLBw-LB_dR-10" parent="1">
          <mxGeometry width="160" relative="1" as="geometry">
            <mxPoint x="380" y="490" as="sourcePoint" />
            <mxPoint x="309.9999999999998" y="590" as="targetPoint" />
            <Array as="points">
              <mxPoint x="205" y="590" />
            </Array>
          </mxGeometry>
        </mxCell>
        <mxCell id="XdJnSUiB7nTLBw-LB_dR-15" value="" style="endArrow=open;endFill=1;endSize=12;html=1;rounded=0;labelBackgroundColor=default;fontFamily=Helvetica;fontSize=11;fontColor=#e01b84;strokeColor=#e01b84;shape=connector;" edge="1" parent="1">
          <mxGeometry width="160" relative="1" as="geometry">
            <mxPoint x="309.9999999999998" y="590" as="sourcePoint" />
            <mxPoint x="410" y="590" as="targetPoint" />
          </mxGeometry>
        </mxCell>
        <mxCell id="XdJnSUiB7nTLBw-LB_dR-16" value="&lt;p style=&quot;margin: 4px 0px 0px; text-align: center;&quot;&gt;Coworker&#39;s utilization&lt;br&gt;&lt;/p&gt;&lt;hr&gt;&lt;div&gt;&amp;nbsp; Coworker uses the booked&lt;/div&gt;&lt;div&gt;&amp;nbsp; space&lt;br&gt;&lt;/div&gt;&lt;div&gt;&amp;nbsp; End of the time of use&lt;br&gt;&lt;/div&gt;&lt;div align=&quot;justify&quot;&gt;&amp;nbsp; &lt;br&gt;&lt;/div&gt;" style="verticalAlign=top;align=left;overflow=fill;fontSize=12;fontFamily=Helvetica;html=1;rounded=1;fontColor=#e01b84;strokeColor=#283592;strokeWidth=3;fillColor=#B0BEF0;gradientColor=none;" vertex="1" parent="1">
          <mxGeometry x="410" y="550" width="170" height="90" as="geometry" />
        </mxCell>
        <mxCell id="XdJnSUiB7nTLBw-LB_dR-17" value="" style="ellipse;html=1;shape=endState;fillColor=#000000;strokeColor=#000000;rounded=1;fontFamily=Helvetica;fontSize=11;fontColor=#e01b84;" vertex="1" parent="1">
          <mxGeometry x="480" y="690" width="30" height="30" as="geometry" />
        </mxCell>
        <mxCell id="XdJnSUiB7nTLBw-LB_dR-18" value="" style="endArrow=open;endFill=1;endSize=12;html=1;rounded=0;labelBackgroundColor=default;fontFamily=Helvetica;fontSize=11;fontColor=#e01b84;strokeColor=#e01b84;shape=connector;entryX=0;entryY=0.5;entryDx=0;entryDy=0;" edge="1" target="XdJnSUiB7nTLBw-LB_dR-17" parent="1">
          <mxGeometry width="160" relative="1" as="geometry">
            <mxPoint x="309.9999999999998" y="590" as="sourcePoint" />
            <mxPoint x="540" y="630" as="targetPoint" />
            <Array as="points">
              <mxPoint x="310" y="705" />
            </Array>
          </mxGeometry>
        </mxCell>
        <mxCell id="XdJnSUiB7nTLBw-LB_dR-19" value="" style="endArrow=open;endFill=1;endSize=12;html=1;rounded=0;labelBackgroundColor=default;fontFamily=Helvetica;fontSize=11;fontColor=#e01b84;strokeColor=#e01b84;shape=connector;exitX=0.5;exitY=1;exitDx=0;exitDy=0;entryX=0.5;entryY=0;entryDx=0;entryDy=0;" edge="1" source="XdJnSUiB7nTLBw-LB_dR-16" target="XdJnSUiB7nTLBw-LB_dR-17" parent="1">
          <mxGeometry width="160" relative="1" as="geometry">
            <mxPoint x="380" y="630" as="sourcePoint" />
            <mxPoint x="540" y="630" as="targetPoint" />
          </mxGeometry>
        </mxCell>
        <mxCell id="XdJnSUiB7nTLBw-LB_dR-20" value="Something unexpected happened" style="text;html=1;align=center;verticalAlign=middle;resizable=0;points=[];autosize=1;strokeColor=none;fillColor=none;fontSize=11;fontFamily=Helvetica;fontColor=#e01b84;" vertex="1" parent="1">
          <mxGeometry x="310" y="680" width="180" height="20" as="geometry" />
        </mxCell>
        <mxCell id="XdJnSUiB7nTLBw-LB_dR-21" value="Booking ends" style="text;html=1;align=center;verticalAlign=middle;resizable=0;points=[];autosize=1;strokeColor=none;fillColor=none;fontSize=11;fontFamily=Helvetica;fontColor=#e01b84;" vertex="1" parent="1">
          <mxGeometry x="500" y="650" width="80" height="20" as="geometry" />
        </mxCell>
        <mxCell id="XdJnSUiB7nTLBw-LB_dR-22" value="Everyting set" style="text;html=1;align=center;verticalAlign=middle;resizable=0;points=[];autosize=1;strokeColor=none;fillColor=none;fontSize=11;fontFamily=Helvetica;fontColor=#e01b84;" vertex="1" parent="1">
          <mxGeometry x="310" y="570" width="80" height="20" as="geometry" />
        </mxCell>
      </root>
    </mxGraphModel>
  </diagram>
</mxfile>
